<?xml version="1.0" encoding="UTF-8" standalone="no"?>
<svg width="260px" height="40px" viewBox="0 0 260 40" version="1.1" xmlns="http://www.w3.org/2000/svg" xmlns:xlink="http://www.w3.org/1999/xlink">
    <!-- Generator: Sketch 41.2 (35397) - http://www.bohemiancoding.com/sketch -->
    <title>Group</title>
    <desc>Created with Sketch.</desc>
    <defs></defs>
    <g id="Page-1" stroke="none" stroke-width="1" fill="none" fill-rule="evenodd">
        <g id="Group">
            <rect id="Rectangle" fill="#000000" x="0" y="2" width="259.648438" height="38" rx="4"></rect>
            <rect id="Rectangle" fill="#B30717" x="0" y="0" width="259.648438" height="38" rx="4"></rect>
            <text id="Affordable-action-wi" font-family="GDSTransportWebsite, GDS Transport Website" font-size="18" font-weight="300" fill="#FFFFFF">
                <tspan x="12" y="26">Affordable action with icon</tspan>
            </text>
            <g id="cross" transform="translate(231.000000, 12.000000)" fill="#FFFFFF">
                <path d="M17.2952727,14.0225455 L17.2952727,14.0225455 L12,8.72727273 L17.2952727,3.432 L17.2952727,3.432 C17.3525455,3.37472727 17.3934545,3.30818182 17.4201818,3.23727273 C17.4927273,3.04309091 17.4512727,2.81672727 17.2952727,2.66072727 L14.7938182,0.159272727 C14.6378182,0.00327272727 14.4109091,-0.0376363636 14.2172727,0.0343636364 C14.1463636,0.0605454545 14.0798182,0.102 14.0225455,0.158727273 L14.0225455,0.158727273 L8.72727273,5.454 L3.432,0.158727273 L3.432,0.158727273 C3.37472727,0.102 3.30818182,0.0605454545 3.23727273,0.0343636364 C3.04309091,-0.0381818182 2.81672727,0.00327272727 2.66072727,0.159272727 L0.159272727,2.66072727 C0.00327272727,2.81672727 -0.0376363636,3.04363636 0.0343636364,3.23727273 C0.0610909091,3.30818182 0.102,3.37472727 0.159272727,3.432 L0.159272727,3.432 L5.45454545,8.72727273 L0.159272727,14.0225455 L0.159272727,14.0225455 C0.102545455,14.0798182 0.0610909091,14.1463636 0.0343636364,14.2172727 C-0.0381818182,14.4109091 0.00327272727,14.6378182 0.159272727,14.7938182 L2.66072727,17.2952727 C2.81672727,17.4512727 3.04363636,17.4921818 3.23727273,17.4201818 C3.30818182,17.3934545 3.37472727,17.3525455 3.432,17.2952727 L3.432,17.2952727 L8.72727273,12 L14.0225455,17.2952727 L14.0225455,17.2952727 C14.0798182,17.3525455 14.1463636,17.3934545 14.2172727,17.4201818 C14.4114545,17.4927273 14.6378182,17.4512727 14.7938182,17.2952727 L17.2952727,14.7938182 C17.4512727,14.6378182 17.4927273,14.4109091 17.4201818,14.2172727 C17.3934545,14.1463636 17.3525455,14.0798182 17.2952727,14.0225455 L17.2952727,14.0225455 Z" id="Shape"></path>
            </g>
        </g>
    </g>
</svg>