<?xml version="1.0" encoding="UTF-8" standalone="no"?>
<svg width="575px" height="209px" viewBox="0 0 575 209" version="1.1" xmlns="http://www.w3.org/2000/svg" xmlns:xlink="http://www.w3.org/1999/xlink">
    <!-- Generator: Sketch 41.2 (35397) - http://www.bohemiancoding.com/sketch -->
    <title>icon alignment - central</title>
    <desc>Created with Sketch.</desc>
    <defs></defs>
    <g id="Page-1" stroke="none" stroke-width="1" fill="none" fill-rule="evenodd">
        <g id="icon-alignment---central">
            <rect id="Rectangle-3" fill="#FFFFFF" x="0" y="0" width="575" height="209"></rect>
            <g id="type-with-icon" transform="translate(11.000000, 146.000000)">
                <rect id="Rectangle-2" fill="#DEE0E2" opacity="0.522796175" x="0" y="14" width="287.789062" height="16"></rect>
                <g id="download-button" transform="translate(220.000000, 3.000000)" fill="#000000">
                    <path d="M31.42225,13.0586875 L22.7168437,13.0586875 L22.7168437,0 L9.65815625,0 L9.65815625,13.0586875 L0.95275,13.0586875 L16.1875,28.2934375 L31.42225,13.0586875 L31.42225,13.0586875 Z M0.95275,32.6467187 L0.95275,37 L31.4234062,37 L31.4234062,32.6467187 L0.95275,32.6467187 L0.95275,32.6467187 Z" id="Shape"></path>
                </g>
                <text id="Type-with-icon" font-family="GDSTransportWebsite, GDS Transport Website" font-size="30" font-weight="300" fill="#000000">
                    <tspan x="17" y="29.5">Type with icon</tspan>
                </text>
                <path d="M0.985578981,3.25 L286.864651,3.25" id="Line" stroke="#D53880" stroke-width="0.5" stroke-linecap="square"></path>
                <path d="M0.985578981,40.25 L286.864651,40.25" id="Line" stroke="#D53880" stroke-width="0.5" stroke-linecap="square"></path>
            </g>
            <g id="type-with-icon" transform="translate(11.000000, 18.000000)">
                <path d="M0,15 L447.0625,15 L447.0625,24 L0,24 L0,15 Z M0,29 L447.0625,29 L447.0625,38 L0,38 L0,29 Z" id="Rectangle-2" fill="#DEE0E2" opacity="0.522796175"></path>
                <rect id="Rectangle-2" fill="#DEE0E2" opacity="0.522796175" x="0" y="0" width="447.0625" height="9"></rect>
                <g id="download-button" transform="translate(122.000000, 10.000000)" fill="#000000">
                    <path d="M15.75,6.352875 L11.5149375,6.352875 L11.5149375,0 L5.1620625,0 L5.1620625,6.352875 L0.927,6.352875 L8.3385,13.764375 L15.75,6.352875 L15.75,6.352875 Z M0.927,15.8821875 L0.927,18 L15.7505625,18 L15.7505625,15.8821875 L0.927,15.8821875 L0.927,15.8821875 Z" id="Shape"></path>
                </g>
                <text id="Type-with-icon" font-family="GDSTransportWebsite, GDS Transport Website" font-size="16" font-weight="300" fill="#000000">
                    <tspan x="10" y="23.5">Type with icon</tspan>
                </text>
                <g id="home3" transform="translate(211.000000, 11.000000)" fill="#000000">
                    <polygon id="Shape" points="18.962963 9.48148148 15.4074074 5.92592593 15.4074074 0.592592593 13.037037 0.592592593 13.037037 3.55555556 9.48148148 0 0 9.48148148 0 10.0740741 2.37037037 10.0740741 2.37037037 16 8.2962963 16 8.2962963 12.4444444 10.6666667 12.4444444 10.6666667 16 16.5925926 16 16.5925926 10.0740741 18.962963 10.0740741"></polygon>
                </g>
                <text id="Type-with-icon" font-family="GDSTransportWebsite, GDS Transport Website" font-size="16" font-weight="300" fill="#000000">
                    <tspan x="240" y="23.5">Type with icon</tspan>
                </text>
            </g>
            <g id="type-with-icon" transform="translate(11.000000, 56.000000)">
                <path d="M0,7 L447,7 L447,16 L0,16 L0,7 Z M0,21 L447,21 L447,30 L0,30 L0,21 Z" id="Rectangle-2" fill="#DEE0E2" opacity="0.522796175"></path>
                <text id="Type-with-icon" font-family="GDSTransportWebsite, GDS Transport Website" font-size="16" font-weight="300" fill="#000000">
                    <tspan x="11" y="15.5">Type with icon</tspan>
                </text>
                <text id="Type-with-icon" font-family="GDSTransportWebsite, GDS Transport Website" font-size="16" font-weight="300" fill="#000000">
                    <tspan x="240" y="15.5">Type with icon</tspan>
                </text>
                <g id="printer" transform="translate(211.000000, 3.000000)" fill="#000000">
                    <g id="Group">
                        <polygon id="Shape" points="4.57142857 0 13.7142857 0 13.7142857 2.28571429 4.57142857 2.28571429"></polygon>
                        <path d="M17.1428571,3.42857143 L1.14285714,3.42857143 C0.514285714,3.42857143 0,3.94285714 0,4.57142857 L0,10.2857143 C0,10.9142857 0.514285714,11.4285714 1.14285714,11.4285714 L4.57142857,11.4285714 L4.57142857,16 L13.7142857,16 L13.7142857,11.4285714 L17.1428571,11.4285714 C17.7714286,11.4285714 18.2857143,10.9142857 18.2857143,10.2857143 L18.2857143,4.57142857 C18.2857143,3.94285714 17.7714286,3.42857143 17.1428571,3.42857143 Z M2.28571429,6.85714286 C1.65428571,6.85714286 1.14285714,6.34571429 1.14285714,5.71428571 C1.14285714,5.08285714 1.65428571,4.57142857 2.28571429,4.57142857 C2.91714286,4.57142857 3.42857143,5.08285714 3.42857143,5.71428571 C3.42857143,6.34571429 2.91714286,6.85714286 2.28571429,6.85714286 Z M12.5714286,14.8571429 L5.71428571,14.8571429 L5.71428571,9.14285714 L12.5714286,9.14285714 L12.5714286,14.8571429 Z" id="Shape"></path>
                    </g>
                </g>
                <g id="cross" transform="translate(123.000000, 2.000000)" fill="#000000">
                    <path d="M15.8535657,12.8536492 L15.8535657,12.8536492 L10.9997007,7.9997842 L15.8535657,3.14591922 L15.8535657,3.14591922 C15.9060643,3.09342068 15.9435632,3.03242238 15.9680625,2.96742419 C16.0345607,2.78942914 15.9965617,2.58193491 15.8535657,2.43893889 L13.5606295,0.146002676 C13.4176335,0.00300665425 13.2096393,-0.0344923026 13.0321442,0.0315058614 C12.967146,0.0555051938 12.9061477,0.0935041367 12.8536492,0.14550269 L12.8536492,0.14550269 L7.9997842,4.99936766 L3.14591922,0.14550269 L3.14591922,0.14550269 C3.09342068,0.0935041367 3.03242238,0.0555051938 2.96742419,0.0315058614 C2.78942914,-0.0349922887 2.58193491,0.00300665425 2.43893889,0.146002676 L0.146002676,2.43893889 C0.00300665425,2.58193491 -0.0344923026,2.78992913 0.0315058614,2.96742419 C0.0560051799,3.03242238 0.0935041367,3.09342068 0.146002676,3.14591922 L0.146002676,3.14591922 L4.99986765,7.9997842 L0.146002676,12.8536492 L0.146002676,12.8536492 C0.0940041228,12.9061477 0.0560051799,12.967146 0.0315058614,13.0321442 C-0.0349922887,13.2096393 0.00300665425,13.4176335 0.146002676,13.5606295 L2.43893889,15.8535657 C2.58193491,15.9965617 2.78992913,16.0340607 2.96742419,15.9680625 C3.03242238,15.9435632 3.09342068,15.9060643 3.14591922,15.8535657 L3.14591922,15.8535657 L7.9997842,10.9997007 L12.8536492,15.8535657 L12.8536492,15.8535657 C12.9061477,15.9060643 12.967146,15.9435632 13.0321442,15.9680625 C13.2101393,16.0345607 13.4176335,15.9965617 13.5606295,15.8535657 L15.8535657,13.5606295 C15.9965617,13.4176335 16.0345607,13.2096393 15.9680625,13.0321442 C15.9435632,12.967146 15.9060643,12.9061477 15.8535657,12.8536492 L15.8535657,12.8536492 Z" id="Shape"></path>
                </g>
            </g>
        </g>
    </g>
</svg>