<?xml version="1.0" encoding="UTF-8" standalone="no"?>
<svg width="582px" height="132px" viewBox="0 0 582 132" version="1.1" xmlns="http://www.w3.org/2000/svg" xmlns:xlink="http://www.w3.org/1999/xlink">
    <!-- Generator: Sketch 41.2 (35397) - http://www.bohemiancoding.com/sketch -->
    <title>Home_Office</title>
    <desc>Created with Sketch.</desc>
    <defs></defs>
    <g id="Page-1" stroke="none" stroke-width="1" fill="none" fill-rule="evenodd">
        <g id="Home_Office">
            <g id="Layer_1">
                <rect id="Rectangle-path" fill="#7F3F98" x="0.7" y="0.1" width="6.9" height="131"></rect>
                <path d="M76.2,9.4 L76.2,13.5 C78.3,13.6 79.8,14 80.6,14.2 C80.2,11.8 78.5,10 76.2,9.4" id="Shape" fill="#000000"></path>
                <path d="M73.7,6.5 L73.7,6.5 C73.7,7.9 73.4,8.8 73,9.4 C73,9.4 73.7,9.2 74.6,9.2 C75.2,9.2 76.1,9.4 76.2,9.4 C75.8,8.8 75.5,7.9 75.5,6.5 L75.5,6.5 C78.6,6.5 79.3,7.9 79.3,9.1 L79.9,9.1 L79.9,5.6 L79.9,2.1 L79.3,2.1 C79.3,3.3 78.5,4.7 75.5,4.7 C75.5,1.6 76.9,0.9 78.1,0.9 L78.1,0.3 L74.6,0.3 L71.1,0.3 L71.1,0.9 C72.3,0.9 73.7,1.7 73.7,4.7 C70.6,4.7 69.9,3.3 69.9,2.1 L69.3,2.1 L69.3,5.6 L69.3,9.1 L69.9,9.1 C69.9,7.9 70.6,6.5 73.7,6.5" id="Shape" fill="#000000"></path>
                <path d="M73,9.4 C70.8,10 69.1,11.9 68.6,14.2 C69.4,14 70.9,13.6 73,13.5 L73,9.4 Z" id="Shape" fill="#000000"></path>
                <path d="M76.8,110.9 C76.8,112.3 78,113.5 79.4,113.5 C80.8,113.5 82,112.3 82,110.9 C82,109.5 80.8,108.3 79.4,108.3 C77.9,108.4 76.8,109.5 76.8,110.9 M78.1,110.9 C78.1,110.2 78.7,109.6 79.4,109.6 C80.1,109.6 80.7,110.2 80.7,110.9 C80.7,111.6 80.1,112.2 79.4,112.2 C78.6,112.2 78.1,111.7 78.1,110.9" id="Shape" fill="#000000"></path>
                <path d="M72.1,77 C72.1,75.7 71.1,74.7 69.8,74.7 L69.4,74.7 L56.8,74.7 C55.7,74.7 54.8,75.6 54.8,76.7 C54.8,77.5 55.4,78.1 56.2,78.1 C57,78.1 57.6,77.5 57.6,76.6 C57.9,76.9 58.2,77.1 58.6,77.3 C58.4,78.1 58.2,79.2 58.1,80.5 C57.9,80.2 57.6,80.1 57.3,80.1 C56.8,80.1 56.3,80.5 56.3,81.1 C56.3,81.6 56.7,82.1 57.3,82.1 C57.6,82.1 57.9,81.9 58.1,81.7 C58.1,82.4 58.1,83.1 58.2,83.9 C58,83.8 57.8,83.7 57.6,83.7 C57.1,83.7 56.6,84.1 56.6,84.7 C56.6,85.2 57,85.7 57.6,85.7 C57.9,85.7 58.3,85.5 58.4,85.2 C58.4,85.3 58.4,85.4 58.5,85.5 C58.7,86.1 58.9,86.7 59.1,87.2 C59,87.1 58.8,87.1 58.6,87.1 C58.1,87.1 57.6,87.5 57.6,88.1 C57.6,88.6 58,89.1 58.6,89.1 C59.1,89.1 59.5,88.7 59.6,88.3 C59.9,88.9 60.3,89.5 60.8,90.1 L60.6,90.1 C60.1,90.1 59.6,90.5 59.6,91.1 C59.6,91.7 60,92.1 60.6,92.1 C61.1,92.1 61.6,91.7 61.6,91.1 C61.6,91.1 61.6,91.1 61.6,91 C63.1,92.5 65,93.8 67.3,94.7 L66.9,97.7 C66.9,97.7 67.8,98.1 69.2,98.5 C70.6,98.9 71.9,99.1 71.9,99.1 L72.1,77 Z M60.3,78.2 C60.3,78.2 60.4,78.2 60.5,78.3 L67.6,92.7 C58.8,88.7 59.7,81.5 60.3,78.2 L60.3,78.2 Z M67.8,91.6 L61.3,78.5 C61.7,78.6 62.1,78.6 62.5,78.6 L68.1,89.9 L67.8,91.6 Z M68.2,88.7 L63.2,78.5 C63.6,78.5 63.9,78.4 64.2,78.3 L68.4,86.9 L68.2,88.7 Z M68.6,85.8 L64.8,78.2 C65.1,78.1 65.4,78 65.7,77.8 L68.8,84 L68.6,85.8 Z M69,82.9 L66.3,77.5 C66.6,77.3 66.9,77.1 67.1,76.9 L69.2,81.1 L69,82.9 Z M69.7,77.9 L69.4,80.1 L67.7,76.6 C67.9,76.5 68.1,76.5 68.3,76.5 C69.1,76.4 69.8,77.1 69.7,77.9 L69.7,77.9 Z" id="Shape" fill="#000000"></path>
                <path d="M63.5,19.1 C63.5,18.3 64.2,17.6 65,17.6 C65.8,17.6 66.5,18.3 66.5,19.1 C66.5,20 65.8,20.6 65,20.6 C64.2,20.7 63.5,20 63.5,19.1" id="Shape" fill="#000000"></path>
                <path d="M43.6,29.7 C43.6,28.9 44.3,28.2 45.1,28.2 C46,28.2 46.6,28.9 46.6,29.7 C46.6,30.6 45.9,31.2 45.1,31.2 C44.3,31.2 43.6,30.5 43.6,29.7" id="Shape" fill="#000000"></path>
                <path d="M42.8,25.8 C42.8,24.9 43.5,24.3 44.3,24.3 C45.1,24.3 45.8,25 45.8,25.8 C45.8,26.6 45.1,27.3 44.3,27.3 C43.5,27.4 42.8,26.7 42.8,25.8" id="Shape" fill="#000000"></path>
                <path d="M43.1,21.9 C43.1,21.1 43.8,20.4 44.6,20.4 C45.5,20.4 46.1,21.1 46.1,21.9 C46.1,22.7 45.4,23.4 44.6,23.4 C43.8,23.4 43.1,22.7 43.1,21.9" id="Shape" fill="#000000"></path>
                <path d="M45.2,18.5 C45.2,17.7 45.9,17 46.7,17 C47.6,17 48.2,17.7 48.2,18.5 C48.2,19.3 47.5,20 46.7,20 C45.9,20.1 45.2,19.4 45.2,18.5" id="Shape" fill="#000000"></path>
                <path d="M48.4,16.2 C48.4,15.4 49.1,14.7 49.9,14.7 C50.7,14.7 51.4,15.4 51.4,16.2 C51.4,17.1 50.7,17.7 49.9,17.7 C49.1,17.8 48.4,17.1 48.4,16.2" id="Shape" fill="#000000"></path>
                <path d="M52.3,15.5 C52.3,14.7 53,14 53.8,14 C54.7,14 55.3,14.7 55.3,15.5 C55.3,16.3 54.6,17 53.8,17 C53,17.1 52.3,16.4 52.3,15.5" id="Shape" fill="#000000"></path>
                <path d="M56.1,16.3 C56.1,15.5 56.8,14.8 57.6,14.8 C58.5,14.8 59.1,15.5 59.1,16.3 C59.1,17.1 58.4,17.8 57.6,17.8 C56.8,17.9 56.1,17.2 56.1,16.3" id="Shape" fill="#000000"></path>
                <path d="M59.8,17.8 C59.8,17 60.5,16.3 61.3,16.3 C62.2,16.3 62.8,17 62.8,17.8 C62.8,18.7 62.1,19.3 61.3,19.3 C60.5,19.3 59.8,18.6 59.8,17.8" id="Shape" fill="#000000"></path>
                <path d="M85.7,19.1 C85.7,18.3 85,17.6 84.2,17.6 C83.4,17.6 82.7,18.3 82.7,19.1 C82.7,20 83.4,20.6 84.2,20.6 C85,20.7 85.7,20 85.7,19.1" id="Shape" fill="#000000"></path>
                <path d="M105.6,29.7 C105.6,28.9 104.9,28.2 104.1,28.2 C103.2,28.2 102.6,28.9 102.6,29.7 C102.6,30.6 103.3,31.2 104.1,31.2 C104.9,31.2 105.6,30.5 105.6,29.7" id="Shape" fill="#000000"></path>
                <path d="M106.4,25.8 C106.4,24.9 105.7,24.3 104.9,24.3 C104.1,24.3 103.4,25 103.4,25.8 C103.4,26.6 104.1,27.3 104.9,27.3 C105.7,27.4 106.4,26.7 106.4,25.8" id="Shape" fill="#000000"></path>
                <path d="M106,21.9 C106,21.1 105.3,20.4 104.5,20.4 C103.6,20.4 103,21.1 103,21.9 C103,22.7 103.7,23.4 104.5,23.4 C105.4,23.4 106,22.7 106,21.9" id="Shape" fill="#000000"></path>
                <path d="M104,18.5 C104,17.7 103.3,17 102.5,17 C101.7,17 101,17.7 101,18.5 C101,19.3 101.7,20 102.5,20 C103.3,20.1 104,19.4 104,18.5" id="Shape" fill="#000000"></path>
                <path d="M100.8,16.2 C100.8,15.4 100.1,14.7 99.3,14.7 C98.4,14.7 97.8,15.4 97.8,16.2 C97.8,17.1 98.5,17.7 99.3,17.7 C100.1,17.8 100.8,17.1 100.8,16.2" id="Shape" fill="#000000"></path>
                <path d="M96.9,15.5 C96.9,14.7 96.2,14 95.4,14 C94.5,14 93.9,14.7 93.9,15.5 C93.9,16.3 94.6,17 95.4,17 C96.2,17.1 96.9,16.4 96.9,15.5" id="Shape" fill="#000000"></path>
                <path d="M93,16.3 C93,15.5 92.3,14.8 91.5,14.8 C90.6,14.8 90,15.5 90,16.3 C90,17.1 90.7,17.8 91.5,17.8 C92.4,17.9 93,17.2 93,16.3" id="Shape" fill="#000000"></path>
                <path d="M89.3,17.8 C89.3,17 88.6,16.3 87.8,16.3 C87,16.3 86.3,17 86.3,17.8 C86.3,18.7 87,19.3 87.8,19.3 C88.7,19.3 89.3,18.6 89.3,17.8" id="Shape" fill="#000000"></path>
                <path d="M87.8,41.2 C87.8,40.3 87,39.5 86.1,39.5 C85.2,39.5 84.4,40.3 84.4,41.2 C84.4,42.1 85.2,42.9 86.1,42.9 C87,42.9 87.8,42.1 87.8,41.2" id="Shape" fill="#000000"></path>
                <path d="M76.7,51.4 L76.7,70.8 L93.9,70.8 L93.9,51.4 L76.7,51.4 Z M93.4,70.3 L77.2,70.3 L77.2,52 L83.5,52 L85.9,52 L93.3,52 L93.4,70.3 L93.4,70.3 Z" id="Shape" fill="#000000"></path>
                <path d="M78.9,52.6 L78.9,52.6 L77.9,52.6 L77.9,68.6 L77.9,69.6 L78.9,69.6 L91.7,69.6 L92.7,69.6 L92.7,68.6 L92.7,53.6 L92.7,52.6 L91.7,52.6 L86.2,52.6 L83.3,52.6 L78.9,52.6 Z M91.7,53.1 L91.7,53.6 L92.2,53.6 L92.2,68.6 L91.7,68.6 L91.7,69.1 L78.9,69.1 L78.9,68.6 L78.4,68.6 L78.4,53.6 L78.9,53.6 L78.9,53.1 L91.7,53.1 Z" id="Shape" fill="#000000"></path>
                <path d="M91,57.5 L90.2,58.3 L90.2,58.3 C90.2,58.3 90.1,58.3 90.1,58.4 L90.1,58.4 L88.6,59.8 C88.1,60.2 88,60.9 88.4,61.4 L89.3,62.6 C89.4,62.7 89.4,62.8 89.4,63 C89.4,63.1 89.3,63.3 89.2,63.3 C89.1,63.4 89,63.4 88.8,63.4 C88.7,63.4 88.5,63.3 88.5,63.2 C88.5,63.2 87.6,62 87.2,61.4 L87.2,59.7 L89.3,57.7 L89.3,56 L88.6,55.3 L89.5,54.4 L85.8,54.4 L84.9,55.3 L84.9,56.3 C85,56.2 85.2,56.2 85.3,56.2 C85.7,56.2 86.1,56.6 86.1,57 C86.1,57.4 85.7,57.8 85.3,57.8 C85.2,57.8 85,57.8 84.9,57.7 L84.9,58.9 L83.6,58.9 L82.1,56.8 C82.3,56.6 82.4,56.3 82.4,56 C82.4,55.4 81.9,55 81.4,55 C81.2,55 81,55.1 80.8,55.2 L80.8,55.8 L80.8,56.8 L80.8,56.9 L80.9,56.9 L82.3,58.9 L83,59.9 L84.3,59.9 L84.7,59.9 L83.8,60.8 L82,60.8 C81.9,60.4 81.5,60.2 81.1,60.2 C80.7,60.2 80.3,60.5 80.2,60.8 C80.2,60.9 80.1,61 80.1,61.2 C80.1,61.4 80.2,61.7 80.3,61.8 L81.9,61.8 L84.4,61.8 L85.1,62.8 L83.5,62.8 L82.3,62.8 L82.3,62.8 L83.4,64.3 L84,65.1 L82.6,65.1 C82.5,64.7 82.1,64.4 81.6,64.4 C81.2,64.4 80.8,64.7 80.6,65.1 L80.6,65.4 C80.6,65.7 80.7,65.9 80.9,66.1 L82.4,66.1 L84.8,66.1 L86,66.1 L85.3,65.1 L84.7,64.3 L86.3,64.3 L86.9,65.1 L87.6,66.1 L89.7,66.1 L90,66.1 L90,67.2 L89.7,67.2 C89.6,66.8 89.2,66.5 88.7,66.5 C88.2,66.5 87.9,66.8 87.7,67.2 L87.7,67.5 C87.7,67.8 87.8,68 88,68.2 L91,68.2 L91,66 L91,65 L90,65 L89,65 L88,63.7 C88.2,63.9 88.4,64.1 88.7,64.1 C89,64.1 89.3,64.1 89.6,63.9 C89.9,63.7 90,63.4 90.1,63.1 C90.1,62.8 90.1,62.5 89.9,62.2 L89,61 C88.8,60.8 88.9,60.4 89.1,60.3 C89.1,60.3 89.3,60.1 89.5,59.9 C89.9,60.2 90.4,60.2 90.8,59.9 C91,59.7 91.1,59.5 91.1,59.2 L91.1,59.2 L91.1,59.2 L91,57.5 Z" id="Shape" fill="#000000"></path>
                <polygon id="Shape" fill="#000000" points="72.3 41.2 74.6 38.9 76.9 41.2 74.6 43.5"></polygon>
                <path d="M61.4,41.2 C61.4,40.3 62.2,39.5 63.1,39.5 C64,39.5 64.8,40.3 64.8,41.2 C64.8,42.1 64,42.9 63.1,42.9 C62.2,42.9 61.4,42.1 61.4,41.2" id="Shape" fill="#000000"></path>
                <path d="M92.7,84.8 L92.7,84.8 L92.7,84.8 L92.7,84.3 C92.7,83.6 92.2,83.1 91.5,83.1 L87.2,83.1 C87.2,82.6 86.7,82.1 86.2,82.1 C85.9,82.1 85.7,82.2 85.5,82.4 L84.2,83.7 L85.5,83.7 L85.5,83.7 L87,83.7 L91.5,83.7 C91.8,83.7 92,83.9 92,84.2 C92,84.5 91.8,84.7 91.5,84.7 L91.5,84.7 L88.6,84.7 L88.6,84.7 L83,84.7 L83,83.5 L84.5,82 L78.6,82 L80.1,83.5 L80.1,85.7 L77.7,83.8 C77.9,83.6 78,83.3 78,83 C78,82.4 77.5,82 77,82 C76.8,82 76.5,82.1 76.3,82.2 L76.3,83.7 L76.3,83.7 L76.3,84 L80,87 L78.3,87.5 C78.2,87.1 77.8,86.8 77.3,86.8 C76.7,86.8 76.3,87.3 76.3,87.8 C76.3,88 76.4,88.3 76.5,88.4 L77.7,88.4 L78.6,88.4 L87.8,85.5 L87.8,86.9 L86.6,87.4 C86.5,86.9 86.1,86.6 85.6,86.6 C85,86.6 84.6,87.1 84.6,87.6 C84.6,87.8 84.7,88.1 84.8,88.2 L85.9,88.2 L87.1,88.2 L88.5,87.5 L89.4,87.1 L89,86.2 L89,86 L92.4,86 C92.4,86.1 92.3,86.3 92.3,86.4 C92.2,86.6 92.1,86.9 92,87.1 C91.8,86.9 91.5,86.8 91.2,86.8 C90.6,86.8 90.2,87.3 90.2,87.8 C90.2,88 90.3,88.3 90.4,88.4 L92,88.4 L92.5,88.4 C92.8,87.8 93,87.1 93.1,86.7 C93.4,85.8 93.6,85 93.6,84.7 C93.7,84.8 92.7,84.8 92.7,84.8 L92.7,84.8 Z M81.6,84.9 L80.6,83.9 L82.6,83.9 L81.6,84.9 Z" id="Shape" fill="#000000"></path>
                <path d="M92.8,77.4 C92.9,77.2 92.9,77.1 92.9,76.9 C92.9,76.2 92.4,75.7 91.7,75.7 L87.2,75.7 C87.2,75.2 86.7,74.7 86.2,74.7 C85.9,74.7 85.7,74.8 85.5,75 L84.2,76.3 L85.5,76.3 L85.5,76.3 L87,76.3 L91.8,76.3 C92.1,76.3 92.3,76.5 92.3,76.8 C92.3,77.1 92.1,77.3 91.8,77.3 L88.7,77.3 L83,77.3 L83,76.1 L84.5,74.6 L78.6,74.6 L80.1,76.1 L80.1,78.3 L77.7,76.4 C77.9,76.2 78,75.9 78,75.7 C78,75.1 77.5,74.7 77,74.7 C76.8,74.7 76.5,74.8 76.3,74.9 L76.3,76.4 L76.3,76.7 L79.9,79.6 L78.2,80.1 C78.1,79.7 77.7,79.4 77.2,79.4 C76.6,79.4 76.2,79.9 76.2,80.4 C76.2,80.6 76.3,80.9 76.4,81.1 L78,81.1 L78.5,81.1 L87.7,78.2 L87.7,79.7 L86.5,80.1 C86.4,79.7 86,79.4 85.5,79.4 C84.9,79.4 84.5,79.9 84.5,80.4 C84.5,80.6 84.6,80.9 84.7,81.1 L86.3,81.1 L87,81.1 L89.3,80.4 L90.4,80 L89.5,79.2 L88.9,78.6 L93,78.6 L93,79.7 C92.8,79.5 92.5,79.3 92.2,79.3 C91.6,79.3 91.2,79.8 91.2,80.3 C91.2,80.5 91.3,80.8 91.4,81 L93,81 L94,81 L94,78.5 L94,78 L94,77.3 L92.8,77.4 L92.8,77.4 Z M81.6,77.5 L80.6,76.5 L82.6,76.5 L81.6,77.5 Z" id="Shape" fill="#000000"></path>
                <path d="M89,90.4 L87.2,90.4 C87.2,89.9 86.7,89.4 86.2,89.4 C85.9,89.4 85.7,89.5 85.5,89.7 L84.2,91 L85.5,91 L85.5,91 L87.1,91 L89.1,91 C89.4,91 89.6,91.2 89.6,91.5 C89.6,91.8 89.4,92 89.1,92 L86.2,92 L83.2,92 L83.2,91 L84.7,89.5 L78.8,89.5 L80.3,91 L80.3,93.5 L77.9,91.3 C78.1,91.1 78.3,90.8 78.3,90.5 C78.3,89.9 77.8,89.5 77.3,89.5 C77.1,89.5 76.8,89.6 76.6,89.7 L76.6,90.8 L76.6,91.4 L80.4,94.9 L80.6,94.7 L78.2,97.6 C78,97.4 77.7,97.4 77.5,97.4 C76.9,97.5 76.5,98 76.6,98.5 C76.6,98.7 76.7,98.9 76.8,99.1 C77.2,99.1 77.7,99 78.5,98.9 L81.2,95.7 C81.6,95.6 81.9,95.4 82.3,95.3 L83.4,96.3 C83.2,96.4 83,96.5 82.8,96.6 C82.5,96.4 82.1,96.3 81.8,96.4 C81.3,96.6 81,97.2 81.2,97.7 C81.3,97.9 81.4,98 81.5,98.1 C81.5,98.1 81.9,98 82.3,97.8 C82.7,97.6 83.1,97.5 83.1,97.5 L83.1,97.5 C83.6,97.3 84,97.1 84.4,96.9 L84.4,95.7 L84.4,94.2 C85.1,93.8 85.7,93.4 86.2,92.9 L87.2,93.8 C87,94 86.8,94.1 86.5,94.3 C86.2,94.1 85.8,94.1 85.5,94.3 C85.3,94.4 85.1,94.7 85,94.9 L85,95.3 C85,95.4 85.1,95.6 85.1,95.7 C85.2,95.9 85.4,96 85.6,96.1 C86.1,95.8 86.5,95.5 87,95.2 C87.3,95 87.7,94.7 88,94.4 C88.1,94.3 88.2,94.2 88.3,94.1 L88.3,93.1 L88.3,92.8 L89,92.8 C89.7,92.8 90.2,92.3 90.2,91.6 C90.2,91 89.7,90.4 89,90.4 L89,90.4 Z M81.6,92.3 L80.6,91.3 L82.6,91.3 L81.6,92.3 Z" id="Shape" fill="#000000"></path>
                <path d="M71.4,67.7 C71.5,67.5 71.5,67.4 71.5,67.2 C71.5,66.5 71,66 70.3,66 L65.8,66 C65.8,65.5 65.3,65 64.8,65 C64.5,65 64.3,65.1 64.1,65.3 L62.8,66.6 L64,66.6 L64,66.6 L65.6,66.6 L70.4,66.6 C70.7,66.6 70.9,66.8 70.9,67.1 C70.9,67.4 70.7,67.6 70.4,67.6 L67.3,67.6 L67.3,67.6 L61.7,67.6 L61.7,66.4 L63.2,64.9 L57.3,64.9 L58.8,66.4 L58.8,68.6 L56.4,66.7 C56.6,66.5 56.7,66.2 56.7,66 C56.7,65.4 56.2,65 55.7,65 C55.4,65 55.2,65.1 55,65.2 L55,66.7 L55,67 L58.6,69.9 L56.9,70.4 C56.8,70 56.4,69.7 55.9,69.7 C55.3,69.7 54.9,70.2 54.9,70.7 C54.9,71 55,71.2 55.1,71.4 L56.7,71.4 L57.2,71.4 L66.4,68.5 L66.4,70 L65.2,70.4 C65.1,70 64.7,69.7 64.2,69.7 C63.6,69.7 63.2,70.2 63.2,70.7 C63.2,71 63.3,71.2 63.4,71.4 L65,71.4 L65.5,71.4 L67.8,70.7 L68.9,70.4 L68,69.6 L67.4,69 L71.5,69 L71.5,70.1 C71.3,69.9 71,69.7 70.7,69.7 C70.1,69.7 69.7,70.2 69.7,70.7 C69.7,71 69.8,71.2 69.9,71.4 L71.5,71.4 L72.5,71.4 L72.5,69 L72.5,67.7 L71.4,67.7 Z M60.1,67.8 L59.1,66.8 L61.1,66.8 L60.1,67.8 Z" id="Shape" fill="#000000"></path>
                <path d="M71.4,60.6 C71.5,60.4 71.5,60.3 71.5,60.1 C71.5,59.4 71,58.9 70.3,58.9 L65.8,58.9 C65.8,58.4 65.3,57.9 64.8,57.9 C64.5,57.9 64.3,58 64.1,58.2 L62.8,59.5 L64,59.5 L64,59.5 L65.5,59.5 L70.3,59.5 C70.6,59.5 70.8,59.7 70.8,60 C70.8,60.3 70.6,60.5 70.3,60.5 L67.2,60.5 L61.6,60.5 L61.6,59.3 L63.1,57.8 L57.2,57.8 L58.7,59.3 L58.7,61.5 L56.3,59.6 C56.5,59.4 56.6,59.1 56.6,58.9 C56.6,58.3 56.1,57.9 55.6,57.9 C55.3,57.9 55.1,58 54.9,58.1 L54.9,59.6 L54.9,59.9 L58.5,62.8 L56.8,63.3 C56.7,62.9 56.3,62.6 55.8,62.6 C55.2,62.6 54.8,63.1 54.8,63.6 C54.8,63.8 54.9,64.1 55,64.3 L56.6,64.3 L57.1,64.3 L66.3,61.4 L66.3,62.9 L65.1,63.3 C65,62.9 64.6,62.6 64.1,62.6 C63.5,62.6 63.1,63.1 63.1,63.6 C63.1,63.8 63.2,64.1 63.3,64.3 L65,64.3 L65.5,64.3 L67.8,63.6 L68.9,63.2 L68,62.4 L67.4,61.8 L71.5,61.8 L71.5,62.9 C71.3,62.7 71,62.5 70.7,62.5 C70.1,62.5 69.7,63 69.7,63.5 C69.7,63.7 69.8,64 69.9,64.2 L71.5,64.2 L72.5,64.2 L72.5,61.7 L72.5,60.4 L71.4,60.4 L71.4,60.6 L71.4,60.6 Z M60.1,60.7 L59.1,59.7 L61.1,59.7 L60.1,60.7 Z" id="Shape" fill="#000000"></path>
                <path d="M71.4,53.4 C71.5,53.2 71.5,53.1 71.5,52.9 C71.5,52.2 71,51.7 70.3,51.7 L65.8,51.7 C65.8,51.2 65.3,50.7 64.8,50.7 C64.5,50.7 64.3,50.8 64.1,51 L62.8,52.3 L64,52.3 L64,52.3 L65.5,52.3 L70.3,52.3 C70.6,52.3 70.8,52.5 70.8,52.8 C70.8,53.1 70.6,53.3 70.3,53.3 L70.3,53.3 L67.2,53.3 L67.2,53.3 L61.6,53.3 L61.6,52.1 L63.1,50.6 L57.2,50.6 L58.7,52.1 L58.7,54.3 L56.3,52.4 C56.5,52.2 56.6,51.9 56.6,51.7 C56.6,51.1 56.1,50.7 55.6,50.7 C55.3,50.7 55.1,50.8 54.9,50.9 L54.9,52.4 L54.9,52.7 L58.5,55.6 L56.8,56.1 C56.7,55.7 56.3,55.4 55.8,55.4 C55.2,55.4 54.8,55.9 54.8,56.4 C54.8,56.7 54.9,56.9 55,57.1 L56.6,57.1 L57.1,57.1 L66.3,54.2 L66.3,55.7 L65.1,56.1 C65,55.7 64.6,55.4 64.1,55.4 C63.5,55.4 63.1,55.9 63.1,56.4 C63.1,56.7 63.2,56.9 63.3,57.1 L64.9,57.1 L65.4,57.1 L67.7,56.4 L68.8,56.1 L67.9,55.3 L67.3,54.7 L71.4,54.7 L71.4,55.8 C71.2,55.6 70.9,55.4 70.6,55.4 C70,55.4 69.6,55.9 69.6,56.4 C69.6,56.7 69.7,56.9 69.8,57.1 L71.4,57.1 L72.4,57.1 L72.4,54.6 L72.4,53.3 L71.4,53.4 L71.4,53.4 Z M60.1,53.6 L59.1,52.6 L61.1,52.6 L60.1,53.6 Z" id="Shape" fill="#000000"></path>
                <path d="M102.7,71.7 L102.7,71.7 C103.4,71.5 103.7,70.8 103.5,70.2 C103.4,69.9 103.2,69.6 102.9,69.5 C102.6,69.3 102.3,69.3 102,69.4 C101.7,69.5 101.4,69.7 101.3,70 C101.1,70.3 101.1,70.6 101.2,70.9 C101.4,71.5 102.1,71.8 102.7,71.7" id="Shape" fill="#000000"></path>
                <path d="M99.2,74.4 L99.4,75.5 L103.4,74.9 C103.5,74.9 107.4,76.9 107.4,76.9 L107.2,75.5 C107.2,75.5 104.6,74.2 104.4,74.1 C104.6,73.9 106.7,72 106.7,72 L106.5,70.6 L106.4,70.7 C106.4,70.7 103.3,73.6 103.2,73.7 C103.2,73.8 99.2,74.4 99.2,74.4" id="Shape" fill="#000000"></path>
                <path d="M102.3,78.3 C102.3,78.6 102.4,78.9 102.7,79.2 C102.9,79.4 103.2,79.6 103.6,79.5 C103.9,79.5 104.2,79.4 104.5,79.1 C104.7,78.9 104.8,78.6 104.8,78.2 C104.8,77.9 104.7,77.6 104.4,77.3 C104.2,77.1 103.9,76.9 103.5,76.9 C102.8,77 102.3,77.6 102.3,78.3" id="Shape" fill="#000000"></path>
                <path d="M99.5,80.3 L99.4,81.4 C99.4,81.4 102.5,81.8 102.7,81.9 C102.7,82 102.6,82.8 102.6,82.8 L102.6,83.3 C102.6,83.8 102.7,84.3 103,84.7 C103.3,85.1 103.8,85.4 104.5,85.5 C105.9,85.7 106.9,85 107.1,83.6 L107.4,81.4 L99.5,80.3 L99.5,80.3 Z M105.9,82.3 C105.9,82.4 105.8,83.4 105.8,83.4 C105.7,84.4 104.9,84.4 104.6,84.3 C104,84.2 103.6,83.8 103.6,83.3 L103.6,83.1 C103.6,83.1 103.7,82.3 103.7,82.1 C103.9,82 105.8,82.2 105.9,82.3 L105.9,82.3 Z" id="Shape" fill="#000000"></path>
                <path d="M98.8,84.8 L97.5,88.6 L98.6,89 C98.6,89 99.5,86.3 99.5,86.2 C99.6,86.3 101.4,86.8 101.6,86.9 C101.5,87.1 100.7,89.5 100.7,89.5 L101.8,89.9 C101.8,89.9 102.6,87.4 102.7,87.3 C102.8,87.4 104.6,87.9 104.7,88 C104.6,88.2 103.8,90.7 103.8,90.7 L104.9,91.1 L106.2,87.3 L98.8,84.8 L98.8,84.8 Z" id="Shape" fill="#000000"></path>
                <path d="M97.3,89.3 L96.8,90.1 C96.8,90.1 101.2,92.9 101.6,93.2 C101.1,93.2 94.5,93.8 94.5,93.8 L94,94.6 L100.6,98.8 L101.2,97.9 C101.2,97.9 96.8,95.1 96.4,94.8 C96.9,94.8 103.6,94.1 103.6,94.1 L104.1,93.3 L97.3,89.3 L97.3,89.3 Z" id="Shape" fill="#000000"></path>
                <path d="M94.7,98.7 C93.9,98.8 93.2,99 92.7,98.5 C92.5,98.3 92.3,97.7 92.8,97.2 C93.3,96.7 94,96.6 94.8,96.7 L95.1,96.7 L93.9,95.5 L93.9,95.5 C93.1,95.6 92.5,95.8 92,96.4 C91.6,96.8 91.4,97.3 91.4,97.8 C91.4,98.4 91.6,98.9 92.1,99.4 C93.1,100.4 94.2,100.2 95.2,100 C95.9,99.8 96.5,99.7 97,100.1 C97.1,100.3 97.2,100.4 97.2,100.6 C97.2,100.9 97.1,101.1 96.8,101.4 C96.4,101.8 95.9,102 95.2,101.9 L95,101.9 L96.1,103 L96.1,103 C96.7,102.9 97.2,102.7 97.6,102.3 C98.1,101.8 98.3,101.3 98.3,100.8 C98.3,100.3 98.1,99.7 97.6,99.3 C96.7,98.3 95.6,98.5 94.7,98.7" id="Shape" fill="#000000"></path>
                <path d="M89.9,98.3 L86.6,100.5 L87.2,101.5 C87.2,101.5 89.5,99.9 89.7,99.8 C89.8,99.9 90.8,101.5 90.9,101.6 C90.8,101.7 88.6,103.2 88.6,103.2 L89.2,104.2 C89.2,104.2 91.4,102.7 91.5,102.7 C91.6,102.8 92.6,104.3 92.7,104.5 C92.6,104.6 90.3,106.1 90.3,106.1 L90.9,107.1 L94.2,104.9 L89.9,98.3 L89.9,98.3 Z" id="Shape" fill="#000000"></path>
                <path d="M61,103.5 C60.9,103.4 58,101.6 57.9,101.5 C58,101.4 59.7,98.7 59.7,98.7 L58.7,98.1 L58.7,98.2 L54.6,104.7 L55.6,105.3 C55.6,105.3 57.3,102.6 57.4,102.5 C57.5,102.6 60.4,104.4 60.5,104.5 C60.4,104.6 58.7,107.3 58.7,107.3 L59.7,107.9 L63.9,101.3 L62.9,100.7 C62.8,100.7 61.1,103.3 61,103.5" id="Shape" fill="#000000"></path>
                <path d="M57,97.7 C57.1,96.7 56.7,95.8 56.1,95.1 C54.4,93.2 52.1,93.6 50.6,94.9 C49.7,95.7 49.2,96.7 49.2,97.7 C49.1,98.7 49.5,99.6 50.2,100.4 C51.6,102 54,102.1 55.7,100.6 C56.4,99.8 56.9,98.8 57,97.7 M55.8,97.7 C55.8,98.4 55.4,99.2 54.8,99.7 C53.6,100.8 52,100.8 51,99.6 C50.5,99.1 50.3,98.4 50.4,97.8 C50.4,97.1 50.8,96.4 51.4,95.8 C52,95.3 52.8,95 53.5,95 C54.2,95 54.8,95.3 55.2,95.8 C55.6,96.4 55.8,97 55.8,97.7" id="Shape" fill="#000000"></path>
                <path d="M52.9,91.2 C52.9,91.2 48.1,93.4 47.7,93.6 C47.9,93.2 51,87.1 51,87.1 L50.6,86.2 L50.5,86.2 L43.5,89.5 L44,90.5 C44,90.5 48.8,88.3 49.2,88.1 C49,88.5 45.9,94.6 45.9,94.6 L46.3,95.4 L53.3,92.1 L52.9,91.2 Z" id="Shape" fill="#000000"></path>
                <polygon id="Shape" fill="#000000" points="50.3 84.1 50.2 84.2 42.7 86 43 87.2 50.5 85.3"></polygon>
                <path d="M46.7,81.6 C46.4,81.4 46.1,81.3 45.8,81.4 C45.5,81.4 45.2,81.6 45,81.9 C44.8,82.2 44.7,82.5 44.8,82.8 C44.8,83.1 45,83.4 45.3,83.6 C45.6,83.8 45.9,83.9 46.2,83.8 C46.9,83.7 47.3,83.1 47.2,82.4 C47.1,82 46.9,81.8 46.7,81.6" id="Shape" fill="#000000"></path>
                <path d="M46.2,78.6 C46.7,77.9 47.1,77.3 47.8,77.3 C48,77.3 48.2,77.4 48.4,77.6 C48.6,77.8 48.7,78.1 48.7,78.4 C48.7,79 48.3,79.6 47.6,80.1 L47.4,80.3 L49.1,80.3 L49.1,80.3 C49.6,79.7 49.8,79.1 49.8,78.3 C49.8,77.8 49.6,77.3 49.3,76.9 C48.9,76.5 48.3,76.3 47.7,76.3 C46.3,76.3 45.7,77.2 45.1,78.1 C44.7,78.7 44.4,79.3 43.8,79.3 C43.6,79.3 43.4,79.2 43.3,79.1 C43.1,78.9 43,78.6 43,78.3 C43,77.8 43.3,77.2 43.8,76.8 L44,76.7 L42.5,76.7 L42.5,76.7 C42.1,77.2 41.9,77.7 41.9,78.3 C41.9,79 42.1,79.5 42.5,79.9 C42.9,80.3 43.4,80.5 44,80.5 C45,80.3 45.6,79.4 46.2,78.6" id="Shape" fill="#000000"></path>
                <path d="M45.7,75.3 C46.8,75.6 47.9,75.4 48.8,74.9 C49.6,74.4 50.2,73.6 50.4,72.6 C50.6,71.6 50.5,70.6 50,69.8 C49.5,68.9 48.5,68.2 47.4,68 C45.2,67.4 43.1,68.6 42.6,70.7 C42.5,71 42.5,71.3 42.5,71.6 C42.5,72.3 42.7,72.9 43,73.4 C43.7,74.4 44.6,75.1 45.7,75.3 M43.9,71 C44.1,70.3 44.5,69.8 45,69.4 C45.6,69 46.4,68.9 47.2,69.1 C48,69.3 48.7,69.8 49,70.4 C49.3,71 49.4,71.6 49.3,72.3 C48.9,73.7 47.5,74.5 45.9,74.1 C44.4,73.8 43.5,72.5 43.9,71" id="Shape" fill="#000000"></path>
                <path d="M110.5,78.6 C110.5,69 106.8,60 100,53.2 C99.2,52.4 98.4,51.7 97.5,50.9 L97.5,49.5 C98.9,49.4 100.1,48.2 100.1,46.8 C100.1,45.3 98.9,44.1 97.4,44.1 L97.2,44.1 L99.8,42.9 L98.8,40.7 L102.7,31.6 L101,30.9 L97,40.2 L94.9,41.2 L96.3,44.2 L84.8,44.2 L64.4,44.2 L52.9,44.2 L54.3,41.2 L52.1,40.2 L48.1,30.9 L46.4,31.6 L50.3,40.7 L49.3,42.9 L51.9,44.1 C51.9,44.1 51.9,44.1 51.8,44.1 C50.3,44.1 49.1,45.3 49.1,46.8 C49.1,48.2 50.2,49.4 51.6,49.5 L51.6,50.9 C50.8,51.6 49.9,52.4 49.1,53.2 C42.3,60 38.6,69 38.6,78.6 C38.6,86 40.8,93.1 45.1,99.2 C49.3,105.1 55,109.6 61.8,112.1 C61.8,112.1 62.2,112.2 62.8,112.5 C62.9,113.5 63.5,114.4 64.4,114.7 C65.4,115.1 66.5,114.7 67.1,114 L67.2,114 L67.2,124.2 C67.2,128 70.4,131 74.4,131 C78.4,131 81.6,127.9 81.6,124.2 L81.6,117.4 L99.2,109 C99.8,108.8 100.3,108.5 100.8,108.1 C102.2,106.8 102.4,104.8 101.5,102.2 C103.1,100.4 104.5,98.5 105.6,96.4 C108.8,91 110.5,84.9 110.5,78.6 L110.5,78.6 Z M91.8,45.8 L97,46.9 L91.8,48 L91.8,45.8 Z M75.1,100.4 L75.1,73.4 L95.7,73.4 L95.7,78.5 C95.7,83.5 94.8,86.9 93.5,89.4 C92.4,91.2 91.1,92.9 89.5,94.4 C89.4,94.5 89.3,94.6 89.2,94.7 C85.4,98.3 80.3,100.3 75.1,100.4 L75.1,100.4 Z M81.3,101.3 C80.9,102.2 80.6,103.2 80.4,104.3 C78.4,103.6 76.5,102.9 74.6,102.2 L74.6,102.2 C76.9,102.3 79.2,101.9 81.3,101.3 L81.3,101.3 Z M75.1,72.5 L75.1,49.6 L92.5,49.6 L95.7,49.6 L95.7,67.6 L95.7,72.5 L75.1,72.5 Z M82.3,45.8 L87.5,46.9 L82.3,48 L82.3,45.8 Z M72.7,45.8 L77.9,46.9 L72.7,48 L72.7,45.8 Z M63,45.8 L68.2,46.9 L63,48 L63,45.8 Z M53.6,45.8 L58.8,46.9 L53.6,48 L53.6,45.8 Z M53.6,67.6 L53.6,49.6 L56.8,49.6 L74.2,49.6 L74.2,72.5 L53.6,72.5 L53.6,67.6 Z M53.6,73.4 L74.2,73.4 L74.2,100.4 C70,100.3 65.9,99 62.4,96.6 L62.4,96.6 C62.3,96.5 62.1,96.4 62,96.3 L61.9,96.2 C61.8,96.1 61.7,96.1 61.6,96 C61.5,95.9 61.4,95.8 61.3,95.8 C61.3,95.8 61.3,95.8 61.2,95.7 C59,94 57.1,91.8 55.7,89.3 C54.4,86.8 53.6,83.4 53.6,78.5 L53.6,73.4 Z M63.4,110.8 C63.1,110.7 62.8,110.6 62.6,110.5 C56.2,108.1 50.7,103.8 46.8,98.2 C42.8,92.5 40.6,85.7 40.6,78.6 C40.6,69.5 44.1,61 50.6,54.5 C51,54.1 51.4,53.7 51.8,53.4 L51.8,62.7 C50.4,61.7 48.8,60.7 48.7,60.6 C48.8,60.5 50,58.6 50,58.6 L49,58 L49,58.1 L45.8,62.9 L46.8,63.5 C46.8,63.5 48,61.7 48.1,61.5 C48.2,61.6 50.3,62.9 51.8,64 L51.8,67.3 L45.2,64.3 L45.2,64.4 L44.7,65.4 L51.8,68.7 L51.8,72.7 C51.3,74.6 51,76.6 51,78.7 C51,83 52.2,87 54.2,90.5 C55.5,93 57.2,94.7 58.8,96.2 C59.5,96.8 60.2,97.4 61,98 C61.1,98 61.1,98.1 61.2,98.1 C61.3,98.2 61.4,98.2 61.5,98.3 C61.6,98.4 61.7,98.4 61.8,98.5 L61.9,98.6 C62.5,99 63.1,99.4 63.8,99.7 L63.8,99.7 C64.7,100.1 65.9,100.7 67.3,101.3 L65.8,105 L65.1,104.7 C64.7,104.5 64.2,104.7 64,105.1 C63.8,105.5 64,106 64.4,106.2 L65.1,106.5 L63.4,110.8 Z M80,124.3 C80,125 79.8,125.7 79.5,126.3 C79.2,126.8 78.7,127.1 78.2,127.1 C77.5,127.1 76.9,126.7 76.7,126 C76.7,125.9 76.6,125.6 76.5,125.1 C76.7,125.2 76.9,125.2 77.1,125.2 C78,125.2 78.7,124.5 78.7,123.7 C78.7,122.8 78,122.2 77.1,122.2 C76.6,122.2 76.2,122.4 75.9,122.7 C75.4,120.7 74.9,118.5 74.9,118.5 L74.6,118.5 L74.2,118.5 C74.2,118.5 73.7,120.7 73.2,122.7 C72.9,122.4 72.5,122.2 72.1,122.2 C71.2,122.2 70.6,122.9 70.6,123.7 C70.6,124.6 71.3,125.2 72.1,125.2 C72.3,125.2 72.5,125.2 72.7,125.1 C72.6,125.5 72.5,125.9 72.5,126 C72.3,126.6 71.7,127.1 71,127.1 C70.4,127.1 69.9,126.8 69.6,126.3 C69.3,125.7 69.2,125 69.2,124.3 L69.2,114.7 C72.4,115.7 76.4,116.9 80.1,117.7 L80,124.3 L80,124.3 Z M80.8,115.9 C75.2,114.7 68.7,112.6 64.9,111.3 C65.3,110.4 65.9,108.8 66.6,107.1 L67.6,107.5 L67.6,107.7 C67.6,109.1 68.8,110.3 70.2,110.3 C71.6,110.3 72.8,109.1 72.8,107.7 C72.8,106.3 71.6,105.1 70.2,105.1 C69.4,105.1 68.8,105.4 68.3,106 L67.2,105.5 C67.8,104 68.3,102.6 68.7,101.8 C72.5,103.4 77.4,105.3 82.1,106.8 C87.1,108.3 91.1,109.2 94.1,109.5 C88.8,112.1 81.2,115.7 80.8,115.9 L80.8,115.9 Z M99.7,106.7 C99.2,107.2 98,107.7 95.5,107.7 C97.2,106.5 98.7,105.2 100.1,103.7 C100.5,105.1 100.4,106.1 99.7,106.7 L99.7,106.7 Z M92.6,107.5 C90.2,107.2 86.9,106.4 82.6,105.1 C82.4,105 82.2,105 82,104.9 C82.4,102.4 83.2,100.8 84.6,100 C86.8,99 88.8,97.6 90.6,95.9 C92.2,94.5 93.8,92.8 95,90.4 C97,86.9 98.2,82.8 98.2,78.5 C98.2,76.5 97.9,74.4 97.4,72.5 L97.4,68.7 L98.5,71.5 L99.6,71.1 C99.6,71.1 98.5,68.4 98.5,68.3 C98.7,68.2 104.7,65.8 104.7,65.8 L104.3,64.7 L104.2,64.7 L97.5,67.4 L97.5,66.9 L102,60.5 L101.6,59.8 L101.5,59.8 L97.5,60.7 L97.5,53.2 C97.9,53.6 98.3,53.9 98.7,54.3 C105.1,60.7 108.7,69.3 108.7,78.4 C108.7,84.3 107.2,90.2 104.2,95.3 C101.4,100.4 97.4,104.5 92.6,107.5 L92.6,107.5 Z M97.9,64.6 C97.9,64.6 97.7,64.9 97.5,65.2 L97.5,64 C97.7,64.3 97.9,64.6 97.9,64.6 L97.9,64.6 Z M97.6,62 C97.8,62 99.8,61.5 100.1,61.4 C99.9,61.7 98.7,63.4 98.6,63.5 C98.5,63.4 97.7,62.2 97.6,62 L97.6,62 Z" id="Shape" fill="#000000"></path>
                <path d="M101.4,21 C100,18.9 97.7,18 96,18 C93.6,18 91.1,19 88.7,20 C86,21.1 83.2,22.2 80.4,22 C80.7,21 81.1,20 81.6,19.2 L79.9,18.4 C80.2,17.8 80.5,17.1 80.6,16.3 C80.4,16.2 78.1,15.4 74.4,15.4 C70.7,15.4 68.6,16.2 68.4,16.3 C68.5,17.1 68.7,17.8 69.1,18.4 L67.4,19.2 C67.9,20 68.3,21 68.6,22 C65.8,22.3 63,21.1 60.3,20 C57.9,19 55.4,18 53,18 C51.3,18 49,18.9 47.6,21 C46.5,22.7 45.6,25.9 48,31 L48,31 L48,30.9 L51.5,29.4 L51.7,30 C50.6,30.5 49.5,31.8 50.8,34.8 C53.8,33.5 53.9,31.8 53.4,30.7 L54,30.5 L55.5,33.9 L57,37.3 L56.4,37.5 C55.9,36.4 54.6,35.3 51.6,36.6 C52.9,39.6 55.2,40.8 57,40.8 C60.1,40.8 62.3,38.9 62,37 C61.8,35.6 60.5,35.1 60,35.2 C59.4,35.3 59,36 59.1,36.4 C59.1,36.5 59.2,36.6 59.2,36.7 L59.1,36.8 C58.3,36.7 57.6,36.1 57.4,35.3 C57.2,34.3 57.9,33.3 58.9,33.1 C59.5,33 60.1,33.2 60.6,33.6 L60.8,33.3 C60.2,33 59.8,32.5 59.7,31.8 C59.4,30.2 61.2,28.6 61.3,28.6 L61.3,28.6 L61.3,28.6 C61.3,28.6 63.6,29.4 63.9,31 C64,31.7 63.8,32.3 63.4,32.8 L63.7,33 C63.9,32.5 64.4,32 65.1,31.9 C66.1,31.7 67.1,32.4 67.3,33.4 C67.5,34.2 67,35.1 66.3,35.4 L66.2,35.3 L66.2,35 C66.1,34.5 65.5,34.1 64.9,34.2 C64.4,34.3 63.4,35.2 63.7,36.6 C64.2,39 66.2,40.7 68.6,40.7 C71,40.7 73.6,38.7 73.6,35.7 C70.1,35.7 69.3,37.3 69.3,38.7 L68.6,38.7 L68.6,34.7 L68.6,30.7 L69.3,30.7 C69.3,32 70.2,33.7 73.6,33.7 C73.6,30.2 72,29.4 70.6,29.4 L70.6,28.7 L74,28.7 L75.1,28.7 L78.5,28.7 L78.5,29.4 C77.2,29.4 75.5,30.3 75.5,33.7 C79,33.7 79.8,32.1 79.8,30.7 L80.5,30.7 L80.5,34.7 L80.5,38.7 L80,38.7 C80,37.4 79.1,35.7 75.7,35.7 C75.7,38.7 78.2,40.7 80.7,40.7 C83.1,40.7 85.2,39 85.6,36.6 C85.9,35.2 84.9,34.2 84.4,34.2 C83.8,34.1 83.2,34.5 83.1,35 L83.1,35.3 L83,35.4 C82.3,35 81.8,34.2 82,33.4 C82.2,32.4 83.2,31.7 84.2,31.9 C84.8,32 85.3,32.4 85.6,33 L85.9,32.8 C85.5,32.3 85.3,31.7 85.4,31 C85.7,29.4 88,28.6 88,28.6 C88,28.6 89.9,30.2 89.6,31.8 C89.5,32.5 89,33 88.5,33.3 L88.7,33.6 C89.1,33.2 89.7,33 90.4,33.1 C91.4,33.3 92.1,34.3 91.9,35.3 C91.7,36.2 91,36.8 90.2,36.8 L90.1,36.7 C90.2,36.6 90.2,36.5 90.2,36.4 C90.3,35.9 89.9,35.3 89.3,35.2 C88.8,35.1 87.5,35.6 87.3,37 C87,38.9 89.3,40.8 92.3,40.8 C94.1,40.8 96.4,39.6 97.7,36.6 C94.7,35.3 93.4,36.4 92.9,37.5 L92.3,37.3 L93.8,33.9 L95.3,30.5 L95.9,30.7 C95.4,31.8 95.5,33.5 98.5,34.8 C99.8,31.8 98.7,30.5 97.6,30 L97.8,29.4 L101.3,30.9 L101.3,31 L101.3,31 C103.4,25.8 102.5,22.7 101.4,21 M69.3,25.4 C67.6,25.4 66.2,26.3 65.4,27.7 C64.5,26.1 62.5,25.1 60.6,25.5 C59.2,25.8 58,26.8 57.5,28 C56.7,26.7 55.3,25.9 53.7,25.9 C51.7,25.9 50,27.2 49.4,29 C48.3,26.1 48.3,23.7 49.4,22 C50.5,20.3 52.4,19.8 53.2,19.8 C55.3,19.8 57.5,20.7 59.8,21.6 C62.8,22.8 65.9,24.1 69.3,23.6 C69.4,24.2 69.5,24.7 69.6,25.3 C69.5,25.4 69.4,25.4 69.3,25.4 M74.6,16.1 C75.5,16.1 76.3,16.8 76.4,17.7 C75.9,17.3 75.3,17 74.6,17 C73.9,17 73.3,17.3 72.8,17.7 C72.9,16.8 73.7,16.1 74.6,16.1 M74.6,17.8 C75.5,17.8 76.3,18.5 76.4,19.4 C75.9,19 75.3,18.7 74.6,18.7 C73.9,18.7 73.3,19 72.8,19.4 C72.9,18.5 73.7,17.8 74.6,17.8 M74.6,27.9 C73.6,27.9 72.8,27.1 72.8,26.1 C72.8,25.1 73.6,24.3 74.6,24.3 C75.6,24.3 76.4,25.1 76.4,26.1 C76.4,27.1 75.6,27.9 74.6,27.9 M76.3,24 C75.8,23.6 75.2,23.4 74.6,23.4 C73.9,23.4 73.4,23.6 72.9,24 C72.8,23.8 72.8,23.6 72.8,23.4 C72.8,22.4 73.6,21.6 74.6,21.6 C75.6,21.6 76.4,22.4 76.4,23.4 C76.4,23.6 76.4,23.8 76.3,24 M76.4,21.5 C75.9,21.1 75.3,20.8 74.6,20.8 C73.9,20.8 73.3,21.1 72.8,21.5 L72.8,21.4 C72.8,20.4 73.6,19.6 74.6,19.6 C75.6,19.6 76.4,20.4 76.4,21.4 C76.4,21.4 76.4,21.4 76.4,21.5 M99.8,29 C99.2,27.2 97.5,25.9 95.5,25.9 C93.9,25.9 92.5,26.7 91.7,28 C91.1,26.8 90,25.8 88.6,25.5 C86.6,25.1 84.7,26 83.8,27.7 C83,26.4 81.6,25.4 79.9,25.4 L79.6,25.4 C79.7,24.9 79.8,24.3 79.9,23.7 C83.3,24.2 86.4,22.9 89.4,21.7 C91.7,20.8 93.9,19.9 96,19.9 C96.8,19.9 98.7,20.4 99.8,22.1 C100.9,23.7 100.9,26.1 99.8,29" id="Shape" fill="#000000"></path>
                <polygon id="Shape" fill="#000000" points="85.3 50.9 85.3 50.9 84.6 50.9 85 51.7 85.3 51.7 85.4 51.7 85.3 52 85.4 51.8 85.5 51.8 85.6 51.7 86 50.9"></polygon>
                <polyline id="Shape" fill="#000000" points="77 51.6 76.9 51.7 76.9 52 76.2 51.9 76.2 51.4 75.7 50.5 75.8 50.4 76.7 50.9 77.2 50.9 77.2 51.6 77 51.5"></polyline>
                <path d="M77.5,51.4 C77.4,51.4 77.3,51.3 77.3,51.2 C77.3,51.1 77.4,51 77.5,51 C77.6,51 77.6,51 77.7,51.1 L77.8,51.1 L77.8,50.9 C77.8,50.6 77.6,50.4 77.3,50.4 C77,50.4 76.8,50.6 76.8,50.9 C76.8,51.2 77,51.4 77.3,51.4 L77.5,51.4 L77.5,51.4" id="Shape" fill="#000000"></path>
                <path d="M76.7,52.2 C76.7,52.1 76.6,52 76.5,52 C76.4,52 76.3,52.1 76.3,52.2 C76.3,52.3 76.3,52.3 76.4,52.4 L76.4,52.5 L76.2,52.5 C75.9,52.5 75.7,52.3 75.7,52 C75.7,51.7 75.9,51.5 76.2,51.5 C76.5,51.5 76.7,51.7 76.7,52 L76.7,52.2 L76.7,52.2" id="Shape" fill="#000000"></path>
                <polyline id="Shape" fill="#000000" points="77 70.7 76.9 70.6 76.9 70.3 76.2 70.4 76.2 70.8 75.7 71.7 75.8 71.9 76.7 71.3 77.2 71.3 77.2 70.6 77 70.7"></polyline>
                <path d="M77.5,70.8 C77.4,70.8 77.3,70.9 77.3,71 C77.3,71.1 77.4,71.2 77.5,71.2 C77.6,71.2 77.6,71.2 77.7,71.1 L77.8,71.1 L77.8,71.3 C77.8,71.6 77.6,71.8 77.3,71.8 C77,71.8 76.8,71.6 76.8,71.3 C76.8,71 77,70.8 77.3,70.8 L77.5,70.8 L77.5,70.8" id="Shape" fill="#000000"></path>
                <path d="M76.7,70.1 C76.7,70.2 76.6,70.3 76.5,70.3 C76.4,70.3 76.3,70.2 76.3,70.1 C76.3,70 76.3,70 76.4,69.9 L76.4,69.8 L76.2,69.8 C75.9,69.8 75.7,70 75.7,70.3 C75.7,70.6 75.9,70.8 76.2,70.8 C76.5,70.8 76.7,70.6 76.7,70.3 L76.7,70.1 L76.7,70.1" id="Shape" fill="#000000"></path>
                <polyline id="Shape" fill="#000000" points="93.6 70.7 93.7 70.6 93.7 70.3 94.4 70.4 94.4 70.8 94.9 71.7 94.8 71.9 93.9 71.3 93.4 71.3 93.4 70.6 93.6 70.7"></polyline>
                <path d="M93.1,70.8 C93.2,70.8 93.3,70.9 93.3,71 C93.3,71.1 93.2,71.2 93.1,71.2 C93,71.2 93,71.2 92.9,71.1 L92.8,71.1 L92.8,71.3 C92.8,71.6 93,71.8 93.3,71.8 C93.6,71.8 93.8,71.6 93.8,71.3 C93.8,71 93.6,70.8 93.3,70.8 L93.1,70.8 L93.1,70.8" id="Shape" fill="#000000"></path>
                <path d="M93.9,70.1 C93.9,70.2 94,70.3 94.1,70.3 C94.2,70.3 94.3,70.2 94.3,70.1 C94.3,70 94.3,70 94.2,69.9 L94.2,69.8 L94.4,69.8 C94.7,69.8 94.9,70 94.9,70.3 C94.9,70.6 94.7,70.8 94.4,70.8 C94.1,70.8 93.9,70.6 93.9,70.3 L93.9,70.1 L93.9,70.1" id="Shape" fill="#000000"></path>
                <polyline id="Shape" fill="#000000" points="93.6 51.6 93.7 51.7 93.7 52 94.4 51.9 94.4 51.4 94.9 50.5 94.8 50.4 93.9 50.9 93.4 50.9 93.4 51.6 93.6 51.5"></polyline>
                <path d="M93.1,51.4 C93.2,51.4 93.3,51.3 93.3,51.2 C93.3,51.1 93.2,51 93.1,51 C93,51 93,51 92.9,51.1 L92.8,51.1 L92.8,50.9 C92.8,50.6 93,50.4 93.3,50.4 C93.6,50.4 93.8,50.6 93.8,50.9 C93.8,51.2 93.6,51.4 93.3,51.4 L93.1,51.4 L93.1,51.4" id="Shape" fill="#000000"></path>
                <path d="M93.9,52.2 C93.9,52.1 94,52 94.1,52 C94.2,52 94.3,52.1 94.3,52.2 C94.3,52.3 94.3,52.3 94.2,52.4 L94.2,52.5 L94.4,52.5 C94.7,52.5 94.9,52.3 94.9,52 C94.9,51.7 94.7,51.5 94.4,51.5 C94.1,51.5 93.9,51.7 93.9,52 L93.9,52.2 L93.9,52.2 Z" id="Shape" fill="#000000"></path>
                <rect id="Rectangle-path" fill="#000000" x="84.5" y="52.8" width="1.5" height="0.6"></rect>
                <polygon id="Shape" fill="#000000" points="85.4 54.1 85.2 54.1 84.9 53.5 85.7 53.5"></polygon>
                <path d="M86.4,53.4 L86.3,53.5 C86.2,53.5 86.1,53.4 86.1,53.3 C86.1,53.2 86.2,53.1 86.3,53.1 L86.1,53.1 C85.9,53.1 85.7,53.3 85.7,53.5 C85.7,53.7 85.9,53.9 86.1,53.9 C86.3,53.9 86.5,53.7 86.5,53.5 C86.4,53.5 86.4,53.5 86.4,53.4 L86.4,53.4 Z" id="Shape" fill="#000000"></path>
                <path d="M84.2,53.4 L84.3,53.5 C84.4,53.5 84.5,53.4 84.5,53.3 C84.5,53.2 84.4,53.1 84.3,53.1 L84.5,53.1 C84.7,53.1 84.9,53.3 84.9,53.5 C84.9,53.7 84.7,53.9 84.5,53.9 C84.3,53.9 84.1,53.7 84.1,53.5 C84.2,53.5 84.2,53.5 84.2,53.4 L84.2,53.4 Z" id="Shape" fill="#000000"></path>
                <polygon id="Shape" fill="#000000" points="85.3 71.4 85.3 71.4 86 71.4 85.6 70.6 85.3 70.5 85.2 70.5 85.4 70.3 85.2 70.5 85.1 70.5 85 70.6 84.6 71.4"></polygon>
                <rect id="Rectangle-path" fill="#000000" x="84.6" y="68.7" width="1.5" height="0.6"></rect>
                <polygon id="Shape" fill="#000000" points="85.2 68.1 85.4 68.1 85.7 68.8 84.9 68.8"></polygon>
                <path d="M84.2,68.9 L84.3,68.8 C84.4,68.8 84.5,68.9 84.5,69 C84.5,69.1 84.4,69.2 84.3,69.2 L84.5,69.2 C84.7,69.2 84.9,69 84.9,68.8 C84.9,68.6 84.7,68.4 84.5,68.4 C84.3,68.4 84.1,68.6 84.1,68.8 C84.2,68.8 84.2,68.8 84.2,68.9 L84.2,68.9 Z" id="Shape" fill="#000000"></path>
                <path d="M86.4,68.9 L86.3,68.8 C86.2,68.8 86.1,68.9 86.1,69 C86.1,69.1 86.2,69.2 86.3,69.2 L86.1,69.2 C85.9,69.2 85.7,69 85.7,68.8 C85.7,68.6 85.9,68.4 86.1,68.4 C86.3,68.4 86.5,68.6 86.5,68.8 C86.4,68.8 86.4,68.8 86.4,68.9 L86.4,68.9 Z" id="Shape" fill="#000000"></path>
                <polygon id="Shape" fill="#000000" points="94.4 61.1 94.4 61.1 94.4 60.4 93.6 60.8 93.6 61.1 93.6 61.2 93.4 61.1 93.6 61.3 93.5 61.3 93.6 61.4 94.4 61.8"></polygon>
                <rect id="Rectangle-path" fill="#000000" x="91.8" y="60.4" width="0.6" height="1.5"></rect>
                <polygon id="Shape" fill="#000000" points="91.2 61.2 91.2 61 91.8 60.7 91.8 61.5"></polygon>
                <polyline id="Shape" fill="#000000" points="92.2 62.1 92.2 62 92.2 62.1 92.2 62.1"></polyline>
                <path d="M92,62.2 L91.9,62.1 C91.9,62 92,61.9 92.1,61.9 C92.2,61.9 92.3,62 92.3,62.1 L92.3,61.9 C92.3,61.7 92.1,61.5 91.9,61.5 C91.7,61.5 91.5,61.7 91.5,61.9 C91.5,62.1 91.7,62.3 91.9,62.3 C91.9,62.3 91.9,62.3 92,62.2 L92,62.2 Z" id="Shape" fill="#000000"></path>
                <path d="M92,60.1 L91.9,60.2 C91.9,60.3 92,60.4 92.1,60.4 C92.2,60.4 92.3,60.3 92.3,60.2 L92.3,60.4 C92.3,60.6 92.1,60.8 91.9,60.8 C91.7,60.8 91.5,60.6 91.5,60.4 C91.5,60.2 91.7,60 91.9,60 C91.9,60 91.9,60 92,60.1 L92,60.1 Z" id="Shape" fill="#000000"></path>
                <polygon id="Shape" fill="#000000" points="76.2 61.1 76.2 61.1 76.2 60.4 77 60.8 77 61.1 77 61.2 77.2 61.1 77 61.3 77.1 61.3 77 61.4 76.2 61.8"></polygon>
                <rect id="Rectangle-path" fill="#000000" x="78.1" y="60.4" width="0.6" height="1.5"></rect>
                <polygon id="Shape" fill="#000000" points="79.4 61.2 79.4 61 78.8 60.7 78.8 61.5"></polygon>
                <polyline id="Shape" fill="#000000" points="78.4 62.1 78.4 62 78.4 62.1 78.4 62.1"></polyline>
                <path d="M78.7,62.2 L78.8,62.1 C78.8,62 78.7,61.9 78.6,61.9 C78.5,61.9 78.4,62 78.4,62.1 L78.4,61.9 C78.4,61.7 78.6,61.5 78.8,61.5 C79,61.5 79.2,61.7 79.2,61.9 C79.2,62.1 79,62.3 78.8,62.3 C78.8,62.3 78.7,62.3 78.7,62.2 L78.7,62.2 Z" id="Shape" fill="#000000"></path>
                <path d="M78.7,60.1 L78.8,60.2 C78.8,60.3 78.7,60.4 78.6,60.4 C78.5,60.4 78.4,60.3 78.4,60.2 L78.4,60.4 C78.4,60.6 78.6,60.8 78.8,60.8 C79,60.8 79.2,60.6 79.2,60.4 C79.2,60.2 79,60 78.8,60 C78.8,60 78.7,60 78.7,60.1 L78.7,60.1 Z" id="Shape" fill="#000000"></path>
                <g id="Group" transform="translate(141.000000, 35.000000)" fill="#000000">
                    <polygon id="Shape" points="8.6 1.9 8.6 27 39.4 27 39.4 1.9 47.2 1.9 47.2 60.3 39.4 60.3 39.4 33.6 8.6 33.6 8.6 60.3 0.8 60.3 0.8 1.9"></polygon>
                    <path d="M56.8,30.5 C57.7,27.8 59,25.5 60.7,23.5 C62.4,21.5 64.6,19.9 67.2,18.8 C69.8,17.7 72.7,17.1 76,17.1 C79.4,17.1 82.3,17.7 84.9,18.8 C87.4,19.9 89.6,21.5 91.3,23.5 C93,25.5 94.4,27.8 95.2,30.5 C96.1,33.2 96.5,36.1 96.5,39.2 C96.5,42.3 96.1,45.2 95.2,47.9 C94.3,50.6 93,52.9 91.3,54.9 C89.6,56.9 87.4,58.4 84.9,59.6 C82.4,60.7 79.4,61.3 76,61.3 C72.7,61.3 69.7,60.7 67.2,59.6 C64.6,58.5 62.5,56.9 60.7,54.9 C59,52.9 57.6,50.6 56.8,47.9 C55.9,45.2 55.5,42.3 55.5,39.2 C55.5,36.1 55.9,33.2 56.8,30.5 Z M63.9,46 C64.6,48 65.5,49.7 66.7,51 C67.9,52.3 69.3,53.4 70.9,54.1 C72.5,54.8 74.2,55.2 76,55.2 C77.8,55.2 79.5,54.8 81.1,54.1 C82.7,53.4 84.1,52.4 85.3,51 C86.5,49.7 87.4,48 88.1,46 C88.8,44 89.1,41.7 89.1,39.2 C89.1,36.6 88.8,34.4 88.1,32.4 C87.4,30.4 86.5,28.7 85.3,27.4 C84.1,26 82.7,25 81.1,24.3 C79.5,23.6 77.8,23.2 76,23.2 C74.2,23.2 72.5,23.6 70.9,24.3 C69.3,25 67.9,26 66.7,27.4 C65.5,28.8 64.6,30.4 63.9,32.4 C63.2,34.4 62.9,36.7 62.9,39.2 C62.9,41.7 63.2,44 63.9,46 Z" id="Shape"></path>
                    <path d="M110.3,18 L110.3,24.2 L110.5,24.2 C113.7,19.4 118.2,17 124.2,17 C126.8,17 129.2,17.5 131.3,18.6 C133.4,19.7 134.9,21.5 135.8,24.2 C137.2,21.9 139.1,20.1 141.4,18.9 C143.7,17.6 146.3,17 149,17 C151.1,17 153,17.2 154.8,17.7 C156.5,18.2 158,18.9 159.2,19.9 C160.4,20.9 161.4,22.1 162.1,23.7 C162.8,25.3 163.1,27.1 163.1,29.3 L163.1,60.3 L156.1,60.3 L156.1,32.6 C156.1,31.3 156,30.1 155.8,28.9 C155.6,27.8 155.2,26.8 154.6,25.9 C154,25.1 153.2,24.4 152.1,23.9 C151,23.4 149.7,23.2 148,23.2 C144.6,23.2 141.9,24.2 139.9,26.1 C137.9,28 137,30.7 137,34 L137,60.3 L130,60.3 L130,32.6 C130,31.2 129.9,30 129.6,28.8 C129.4,27.7 128.9,26.7 128.3,25.8 C127.7,25 126.9,24.3 125.9,23.8 C124.9,23.3 123.6,23.1 122,23.1 C120,23.1 118.3,23.5 116.8,24.3 C115.4,25.1 114.2,26.1 113.3,27.2 C112.4,28.3 111.7,29.5 111.3,30.8 C110.9,32 110.7,33 110.7,33.9 L110.7,60.2 L103.7,60.2 L103.7,18 L110.3,18 Z" id="Shape"></path>
                    <path d="M202.5,57.6 C199.3,60 195.4,61.2 190.6,61.2 C187.2,61.2 184.3,60.7 181.8,59.6 C179.3,58.5 177.2,57 175.5,55 C173.8,53 172.5,50.7 171.7,48 C170.9,45.3 170.4,42.3 170.3,39.1 C170.3,35.9 170.8,32.9 171.8,30.3 C172.8,27.6 174.2,25.3 175.9,23.3 C177.7,21.3 179.8,19.8 182.2,18.7 C184.6,17.6 187.3,17.1 190.2,17.1 C194,17.1 197.1,17.9 199.6,19.4 C202.1,21 204.1,22.9 205.6,25.3 C207.1,27.7 208.1,30.3 208.7,33.2 C209.3,36 209.5,38.7 209.4,41.3 L177.7,41.3 C177.6,43.2 177.9,44.9 178.4,46.6 C178.9,48.3 179.7,49.7 180.8,51 C181.9,52.3 183.3,53.3 185,54.1 C186.7,54.9 188.7,55.2 191,55.2 C193.9,55.2 196.4,54.5 198.2,53.2 C200.1,51.8 201.3,49.8 201.9,47 L208.8,47 C207.7,51.6 205.6,55.2 202.5,57.6 Z M200.8,30.4 C200.2,28.9 199.3,27.7 198.3,26.6 C197.2,25.5 196,24.7 194.5,24.1 C193.1,23.5 191.5,23.2 189.7,23.2 C187.9,23.2 186.3,23.5 184.8,24.1 C183.4,24.7 182.1,25.6 181.1,26.7 C180.1,27.8 179.2,29.1 178.6,30.5 C178,31.9 177.6,33.5 177.5,35.1 L201.8,35.1 C201.8,33.5 201.4,31.9 200.8,30.4 Z" id="Shape"></path>
                    <path d="M236.9,19.6 C238.1,15.9 239.8,12.7 242.2,9.8 C244.5,7 247.5,4.7 251,3 C254.5,1.3 258.6,0.5 263.2,0.5 C267.8,0.5 271.9,1.3 275.4,3 C278.9,4.7 281.8,7 284.2,9.8 C286.5,12.6 288.3,15.9 289.5,19.6 C290.7,23.3 291.3,27.1 291.3,31.1 C291.3,35.1 290.7,38.9 289.5,42.6 C288.3,46.3 286.6,49.5 284.2,52.4 C281.9,55.2 278.9,57.5 275.4,59.1 C271.9,60.8 267.8,61.6 263.2,61.6 C258.6,61.6 254.5,60.8 251,59.1 C247.5,57.4 244.6,55.2 242.2,52.4 C239.9,49.6 238.1,46.3 236.9,42.6 C235.7,38.9 235.1,35.1 235.1,31.1 C235.1,27.1 235.7,23.3 236.9,19.6 Z M244,39.8 C244.8,42.7 246,45.2 247.6,47.5 C249.2,49.8 251.3,51.6 253.9,53 C256.5,54.4 259.5,55.1 263.1,55.1 C266.6,55.1 269.7,54.4 272.3,53 C274.9,51.6 277,49.8 278.6,47.5 C280.2,45.2 281.4,42.6 282.2,39.8 C283,36.9 283.3,34 283.3,31.1 C283.3,28.2 282.9,25.3 282.2,22.4 C281.4,19.5 280.2,17 278.6,14.7 C277,12.4 274.9,10.6 272.3,9.2 C269.7,7.8 266.7,7.1 263.1,7.1 C259.6,7.1 256.5,7.8 253.9,9.2 C251.3,10.6 249.2,12.4 247.6,14.7 C246,17 244.8,19.6 244,22.4 C243.2,25.3 242.9,28.2 242.9,31.1 C242.9,34 243.3,36.9 244,39.8 Z" id="Shape"></path>
                    <path d="M294.2,24.1 L294.2,18 L301.3,18 L301.3,11.7 C301.3,8.3 302.3,5.7 304.3,3.9 C306.3,2.1 309.2,1.2 313,1.2 C313.7,1.2 314.4,1.3 315.2,1.4 C316,1.5 316.8,1.7 317.4,1.9 L317.4,8 C316.8,7.8 316.1,7.6 315.4,7.6 C314.7,7.5 314,7.5 313.4,7.5 C311.7,7.5 310.4,7.8 309.5,8.5 C308.6,9.2 308.1,10.4 308.1,12.3 L308.1,18.2 L316.3,18.2 L316.3,24.3 L308.1,24.3 L308.1,60.5 L301.1,60.5 L301.1,24.3 L294.2,24.3 L294.2,24.1 Z" id="Shape"></path>
                    <path d="M315.9,24.1 L315.9,18 L323,18 L323,11.7 C323,8.3 324,5.7 326,3.9 C328,2.1 330.9,1.2 334.7,1.2 C335.4,1.2 336.1,1.3 336.9,1.4 C337.7,1.5 338.5,1.7 339.1,1.9 L339.1,8 C338.5,7.8 337.8,7.6 337.1,7.6 C336.4,7.5 335.7,7.5 335.1,7.5 C333.4,7.5 332.1,7.8 331.2,8.5 C330.3,9.2 329.8,10.4 329.8,12.3 L329.8,18.2 L338,18.2 L338,24.3 L330,24.3 L330,60.5 L323,60.5 L323,24.3 L315.9,24.3 L315.9,24.1 Z" id="Shape"></path>
                    <path d="M343.8,10.4 L343.8,1.9 L350.8,1.9 L350.8,10.4 L343.8,10.4 Z M350.8,18 L350.8,60.3 L343.8,60.3 L343.8,18 L350.8,18 Z" id="Shape"></path>
                    <path d="M385.8,25.4 C384.1,23.9 381.7,23.2 378.8,23.2 C376.3,23.2 374.2,23.7 372.5,24.6 C370.8,25.5 369.5,26.8 368.5,28.3 C367.5,29.8 366.8,31.6 366.3,33.6 C365.9,35.6 365.6,37.6 365.6,39.8 C365.6,41.8 365.8,43.7 366.3,45.5 C366.8,47.4 367.5,49 368.5,50.4 C369.5,51.8 370.8,53 372.3,53.9 C373.9,54.8 375.8,55.2 377.9,55.2 C381.3,55.2 384,54.3 386,52.5 C387.9,50.7 389.1,48.2 389.6,44.9 L396.7,44.9 C395.9,50.1 394,54.2 390.9,57 C387.8,59.8 383.5,61.3 378.1,61.3 C374.9,61.3 372,60.8 369.6,59.7 C367.1,58.7 365,57.2 363.4,55.3 C361.7,53.4 360.5,51.1 359.6,48.5 C358.8,45.9 358.3,43 358.3,39.8 C358.3,36.6 358.7,33.7 359.5,30.9 C360.3,28.1 361.6,25.7 363.2,23.7 C364.9,21.7 366.9,20 369.5,18.9 C372,17.7 374.9,17.1 378.3,17.1 C380.7,17.1 382.9,17.4 385,18 C387.1,18.6 389,19.5 390.6,20.7 C392.2,21.9 393.5,23.4 394.6,25.2 C395.6,27 396.3,29.2 396.6,31.7 L389.4,31.7 C388.7,28.9 387.6,26.8 385.8,25.4 Z" id="Shape"></path>
                    <path d="M433.4,57.6 C430.2,60 426.3,61.2 421.5,61.2 C418.1,61.2 415.2,60.7 412.7,59.6 C410.2,58.5 408.1,57 406.4,55 C404.7,53 403.4,50.7 402.6,48 C401.8,45.3 401.3,42.3 401.2,39.1 C401.2,35.9 401.7,32.9 402.7,30.3 C403.7,27.6 405.1,25.3 406.8,23.3 C408.6,21.3 410.7,19.8 413.1,18.7 C415.5,17.6 418.2,17.1 421.1,17.1 C424.9,17.1 428,17.9 430.5,19.4 C433,21 435,22.9 436.5,25.3 C438,27.7 439,30.3 439.6,33.2 C440.2,36 440.4,38.7 440.3,41.3 L408.6,41.3 C408.5,43.2 408.8,44.9 409.3,46.6 C409.8,48.3 410.6,49.7 411.7,51 C412.8,52.3 414.2,53.3 415.9,54.1 C417.6,54.9 419.6,55.2 421.9,55.2 C424.8,55.2 427.3,54.5 429.1,53.2 C431,51.8 432.2,49.8 432.8,47 L439.7,47 C438.6,51.6 436.6,55.2 433.4,57.6 Z M431.8,30.4 C431.2,28.9 430.3,27.7 429.3,26.6 C428.2,25.5 427,24.7 425.5,24.1 C424.1,23.5 422.5,23.2 420.7,23.2 C418.9,23.2 417.3,23.5 415.8,24.1 C414.4,24.7 413.1,25.6 412.1,26.7 C411.1,27.8 410.2,29.1 409.6,30.5 C409,31.9 408.6,33.5 408.5,35.1 L432.8,35.1 C432.8,33.5 432.4,31.9 431.8,30.4 Z" id="Shape"></path>
                </g>
            </g>
        </g>
    </g>
</svg>