<?xml version="1.0" encoding="utf-8"?>
<!-- Generator: Adobe Illustrator 18.0.0, SVG Export Plug-In . SVG Version: 6.00 Build 0)  -->
<!DOCTYPE svg PUBLIC "-//W3C//DTD SVG 1.1//EN" "http://www.w3.org/Graphics/SVG/1.1/DTD/svg11.dtd">
<svg version="1.1" id="Layer_1" xmlns="http://www.w3.org/2000/svg" xmlns:xlink="http://www.w3.org/1999/xlink" x="0px" y="0px"
	 viewBox="3.7 128.1 480.6 205.5" enable-background="new 3.7 128.1 480.6 205.5" xml:space="preserve">
<rect x="3.7" y="128.1" fill="#7F3F98" width="6.9" height="204"/>
<path d="M79.2,137.4v4.1c2.1,0.1,3.6,0.5,4.4,0.7C83.2,139.8,81.5,138,79.2,137.4"/>
<path d="M76.7,134.5L76.7,134.5c0,1.4-0.3,2.3-0.7,2.9c0,0,0.7-0.2,1.6-0.2c0.6,0,1.5,0.2,1.6,0.2c-0.4-0.6-0.7-1.5-0.7-2.9l0,0
	c3.1,0,3.8,1.4,3.8,2.6h0.6v-3.5v-3.5h-0.6c0,1.2-0.8,2.6-3.8,2.6c0-3.1,1.4-3.8,2.6-3.8v-0.6h-3.5h-3.5v0.6c1.2,0,2.6,0.8,2.6,3.8
	c-3.1,0-3.8-1.4-3.8-2.6h-0.6v3.5v3.5h0.6C72.9,135.9,73.6,134.5,76.7,134.5"/>
<path d="M76,137.4c-2.2,0.6-3.9,2.5-4.4,4.8c0.8-0.2,2.3-0.6,4.4-0.7V137.4z"/>
<path d="M79.8,238.9c0,1.4,1.2,2.6,2.6,2.6s2.6-1.2,2.6-2.6s-1.2-2.6-2.6-2.6C80.9,236.4,79.8,237.5,79.8,238.9 M81.1,238.9
	c0-0.7,0.6-1.3,1.3-1.3c0.7,0,1.3,0.6,1.3,1.3s-0.6,1.3-1.3,1.3C81.6,240.2,81.1,239.7,81.1,238.9"/>
<path d="M75.1,205c0-1.3-1-2.3-2.3-2.3h-0.4H59.8c-1.1,0-2,0.9-2,2c0,0.8,0.6,1.4,1.4,1.4c0.8,0,1.4-0.6,1.4-1.5
	c0.3,0.3,0.6,0.5,1,0.7c-0.2,0.8-0.4,1.9-0.5,3.2c-0.2-0.3-0.5-0.4-0.8-0.4c-0.5,0-1,0.4-1,1c0,0.5,0.4,1,1,1c0.3,0,0.6-0.2,0.8-0.4
	c0,0.7,0,1.4,0.1,2.2c-0.2-0.1-0.4-0.2-0.6-0.2c-0.5,0-1,0.4-1,1c0,0.5,0.4,1,1,1c0.3,0,0.7-0.2,0.8-0.5c0,0.1,0,0.2,0.1,0.3
	c0.2,0.6,0.4,1.2,0.6,1.7c-0.1-0.1-0.3-0.1-0.5-0.1c-0.5,0-1,0.4-1,1c0,0.5,0.4,1,1,1c0.5,0,0.9-0.4,1-0.8c0.3,0.6,0.7,1.2,1.2,1.8
	c-0.1,0-0.1,0-0.2,0c-0.5,0-1,0.4-1,1s0.4,1,1,1c0.5,0,1-0.4,1-1c0,0,0,0,0-0.1c1.5,1.5,3.4,2.8,5.7,3.7l-0.4,3c0,0,0.9,0.4,2.3,0.8
	c1.4,0.4,2.7,0.6,2.7,0.6L75.1,205z M63.3,206.2c0,0,0.1,0,0.2,0.1l7.1,14.4C61.8,216.7,62.7,209.5,63.3,206.2 M70.8,219.6
	l-6.5-13.1c0.4,0.1,0.8,0.1,1.2,0.1l5.6,11.3L70.8,219.6z M71.2,216.7l-5-10.2c0.4,0,0.7-0.1,1-0.2l4.2,8.6L71.2,216.7z M71.6,213.8
	l-3.8-7.6c0.3-0.1,0.6-0.2,0.9-0.4l3.1,6.2L71.6,213.8z M72,210.9l-2.7-5.4c0.3-0.2,0.6-0.4,0.8-0.6l2.1,4.2L72,210.9z M72.7,205.9
	l-0.3,2.2l-1.7-3.5c0.2-0.1,0.4-0.1,0.6-0.1C72.1,204.4,72.8,205.1,72.7,205.9"/>
<path d="M66.5,147.1c0-0.8,0.7-1.5,1.5-1.5s1.5,0.7,1.5,1.5c0,0.9-0.7,1.5-1.5,1.5C67.2,148.7,66.5,148,66.5,147.1"/>
<path d="M46.6,157.7c0-0.8,0.7-1.5,1.5-1.5c0.9,0,1.5,0.7,1.5,1.5c0,0.9-0.7,1.5-1.5,1.5S46.6,158.5,46.6,157.7"/>
<path d="M45.8,153.8c0-0.9,0.7-1.5,1.5-1.5s1.5,0.7,1.5,1.5s-0.7,1.5-1.5,1.5C46.5,155.4,45.8,154.7,45.8,153.8"/>
<path d="M46.1,149.9c0-0.8,0.7-1.5,1.5-1.5c0.9,0,1.5,0.7,1.5,1.5s-0.7,1.5-1.5,1.5S46.1,150.7,46.1,149.9"/>
<path d="M48.2,146.5c0-0.8,0.7-1.5,1.5-1.5c0.9,0,1.5,0.7,1.5,1.5s-0.7,1.5-1.5,1.5C48.9,148.1,48.2,147.4,48.2,146.5"/>
<path d="M51.4,144.2c0-0.8,0.7-1.5,1.5-1.5s1.5,0.7,1.5,1.5c0,0.9-0.7,1.5-1.5,1.5C52.1,145.8,51.4,145.1,51.4,144.2"/>
<path d="M55.3,143.5c0-0.8,0.7-1.5,1.5-1.5c0.9,0,1.5,0.7,1.5,1.5s-0.7,1.5-1.5,1.5C56,145.1,55.3,144.4,55.3,143.5"/>
<path d="M59.1,144.3c0-0.8,0.7-1.5,1.5-1.5c0.9,0,1.5,0.7,1.5,1.5s-0.7,1.5-1.5,1.5C59.8,145.9,59.1,145.2,59.1,144.3"/>
<path d="M62.8,145.8c0-0.8,0.7-1.5,1.5-1.5c0.9,0,1.5,0.7,1.5,1.5c0,0.9-0.7,1.5-1.5,1.5S62.8,146.6,62.8,145.8"/>
<path d="M88.7,147.1c0-0.8-0.7-1.5-1.5-1.5s-1.5,0.7-1.5,1.5c0,0.9,0.7,1.5,1.5,1.5C88,148.7,88.7,148,88.7,147.1"/>
<path d="M108.6,157.7c0-0.8-0.7-1.5-1.5-1.5c-0.9,0-1.5,0.7-1.5,1.5c0,0.9,0.7,1.5,1.5,1.5S108.6,158.5,108.6,157.7"/>
<path d="M109.4,153.8c0-0.9-0.7-1.5-1.5-1.5s-1.5,0.7-1.5,1.5s0.7,1.5,1.5,1.5C108.7,155.4,109.4,154.7,109.4,153.8"/>
<path d="M109,149.9c0-0.8-0.7-1.5-1.5-1.5c-0.9,0-1.5,0.7-1.5,1.5s0.7,1.5,1.5,1.5C108.4,151.4,109,150.7,109,149.9"/>
<path d="M107,146.5c0-0.8-0.7-1.5-1.5-1.5s-1.5,0.7-1.5,1.5s0.7,1.5,1.5,1.5C106.3,148.1,107,147.4,107,146.5"/>
<path d="M103.8,144.2c0-0.8-0.7-1.5-1.5-1.5c-0.9,0-1.5,0.7-1.5,1.5c0,0.9,0.7,1.5,1.5,1.5C103.1,145.8,103.8,145.1,103.8,144.2"/>
<path d="M99.9,143.5c0-0.8-0.7-1.5-1.5-1.5c-0.9,0-1.5,0.7-1.5,1.5s0.7,1.5,1.5,1.5C99.2,145.1,99.9,144.4,99.9,143.5"/>
<path d="M96,144.3c0-0.8-0.7-1.5-1.5-1.5c-0.9,0-1.5,0.7-1.5,1.5s0.7,1.5,1.5,1.5C95.4,145.9,96,145.2,96,144.3"/>
<path d="M92.3,145.8c0-0.8-0.7-1.5-1.5-1.5s-1.5,0.7-1.5,1.5c0,0.9,0.7,1.5,1.5,1.5C91.7,147.3,92.3,146.6,92.3,145.8"/>
<path d="M90.8,169.2c0-0.9-0.8-1.7-1.7-1.7c-0.9,0-1.7,0.8-1.7,1.7s0.8,1.7,1.7,1.7S90.8,170.1,90.8,169.2"/>
<path d="M79.7,179.4v19.4h17.2v-19.4H79.7z M96.4,198.3H80.2V180h6.3h2.4h7.4L96.4,198.3L96.4,198.3z"/>
<path d="M81.9,180.6L81.9,180.6h-1v16v1h1h12.8h1v-1v-15v-1h-1h-5.5h-2.9H81.9z M94.7,181.1v0.5h0.5v15h-0.5v0.5H81.9v-0.5h-0.5v-15
	h0.5v-0.5H94.7z"/>
<path d="M94,185.5l-0.8,0.8l0,0c0,0-0.1,0-0.1,0.1l0,0l-1.5,1.4c-0.5,0.4-0.6,1.1-0.2,1.6l0.9,1.2c0.1,0.1,0.1,0.2,0.1,0.4
	c0,0.1-0.1,0.3-0.2,0.3c-0.1,0.1-0.2,0.1-0.4,0.1c-0.1,0-0.3-0.1-0.3-0.2c0,0-0.9-1.2-1.3-1.8v-1.7l2.1-2V184l-0.7-0.7l0.9-0.9h-3.7
	l-0.9,0.9v1c0.1-0.1,0.3-0.1,0.4-0.1c0.4,0,0.8,0.4,0.8,0.8c0,0.4-0.4,0.8-0.8,0.8c-0.1,0-0.3,0-0.4-0.1v1.2h-1.3l-1.5-2.1
	c0.2-0.2,0.3-0.5,0.3-0.8c0-0.6-0.5-1-1-1c-0.2,0-0.4,0.1-0.6,0.2v0.6v1v0.1c0,0,0,0,0.1,0l1.4,2l0.7,1h1.3h0.4l-0.9,0.9H85
	c-0.1-0.4-0.5-0.6-0.9-0.6s-0.8,0.3-0.9,0.6c0,0.1-0.1,0.2-0.1,0.4s0.1,0.5,0.2,0.6h1.6h2.5l0.7,1h-1.6h-1.2l0,0l1.1,1.5l0.6,0.8
	h-1.4c-0.1-0.4-0.5-0.7-1-0.7c-0.4,0-0.8,0.3-1,0.7c0,0.1,0,0.2,0,0.3c0,0.3,0.1,0.5,0.3,0.7h1.5h2.4H89l-0.7-1l-0.6-0.8h1.6
	l0.6,0.8l0.7,1h2.1H93v1.1h-0.3c-0.1-0.4-0.5-0.7-1-0.7s-0.8,0.3-1,0.7c0,0.1,0,0.2,0,0.3c0,0.3,0.1,0.5,0.3,0.7h3V194v-1h-1h-1
	l-1-1.3c0.2,0.2,0.4,0.4,0.7,0.4c0.3,0,0.6,0,0.9-0.2s0.4-0.5,0.5-0.8c0-0.3,0-0.6-0.2-0.9L92,189c-0.2-0.2-0.1-0.6,0.1-0.7
	c0,0,0.2-0.2,0.4-0.4c0.4,0.3,0.9,0.3,1.3,0c0.2-0.2,0.3-0.4,0.3-0.7l0,0l0,0L94,185.5z"/>
<polygon points="75.3,169.2 77.6,166.9 79.9,169.2 77.6,171.5 "/>
<path d="M64.4,169.2c0-0.9,0.8-1.7,1.7-1.7c0.9,0,1.7,0.8,1.7,1.7s-0.8,1.7-1.7,1.7C65.2,170.9,64.4,170.1,64.4,169.2"/>
<path d="M95.7,212.8L95.7,212.8L95.7,212.8c0-0.2,0-0.3,0-0.5c0-0.7-0.5-1.2-1.2-1.2h-4.3c0-0.5-0.5-1-1-1c-0.3,0-0.5,0.1-0.7,0.3
	l-1.3,1.3h1.3l0,0H90h4.5c0.3,0,0.5,0.2,0.5,0.5s-0.2,0.5-0.5,0.5l0,0h-2.9l0,0H86v-1.2l1.5-1.5h-5.9l1.5,1.5v2.2l-2.4-1.9
	c0.2-0.2,0.3-0.5,0.3-0.8c0-0.6-0.5-1-1-1c-0.2,0-0.5,0.1-0.7,0.2v1.5l0,0v0.3l3.7,3l-1.7,0.5c-0.1-0.4-0.5-0.7-1-0.7
	c-0.6,0-1,0.5-1,1c0,0.2,0.1,0.5,0.2,0.6h1.2h0.9l9.2-2.9v1.4l-1.2,0.5c-0.1-0.5-0.5-0.8-1-0.8c-0.6,0-1,0.5-1,1
	c0,0.2,0.1,0.5,0.2,0.6h1.1h1.2l1.4-0.7l0.9-0.4l-0.4-0.9l0-0.2h3.4c0,0.1-0.1,0.3-0.1,0.4c-0.1,0.2-0.2,0.5-0.3,0.7
	c-0.2-0.2-0.5-0.3-0.8-0.3c-0.6,0-1,0.5-1,1c0,0.2,0.1,0.5,0.2,0.6H95h0.5c0.3-0.6,0.5-1.3,0.6-1.7c0.3-0.9,0.5-1.7,0.5-2
	C96.7,212.8,95.7,212.8,95.7,212.8 M84.6,212.9l-1-1h2L84.6,212.9z"/>
<path d="M95.8,205.4c0.1-0.2,0.1-0.3,0.1-0.5c0-0.7-0.5-1.2-1.2-1.2h-4.5c0-0.5-0.5-1-1-1c-0.3,0-0.5,0.1-0.7,0.3l-1.3,1.3h1.3l0,0
	H90h4.8c0.3,0,0.5,0.2,0.5,0.5s-0.2,0.5-0.5,0.5h-3.1H86v-1.2l1.5-1.5h-5.9l1.5,1.5v2.2l-2.4-1.9c0.2-0.2,0.3-0.5,0.3-0.7
	c0-0.6-0.5-1-1-1c-0.2,0-0.5,0.1-0.7,0.2v1.5v0.3l3.6,2.9l-1.7,0.5c-0.1-0.4-0.5-0.7-1-0.7c-0.6,0-1,0.5-1,1c0,0.2,0.1,0.5,0.2,0.7
	H81h0.5l9.2-2.9v1.5l-1.2,0.4c-0.1-0.4-0.5-0.7-1-0.7c-0.6,0-1,0.5-1,1c0,0.2,0.1,0.5,0.2,0.7h1.6H90l2.3-0.7l1.1-0.4l-0.9-0.8
	l-0.6-0.6H96v1.1c-0.2-0.2-0.5-0.4-0.8-0.4c-0.6,0-1,0.5-1,1c0,0.2,0.1,0.5,0.2,0.7H96h1v-2.5V206v-0.7L95.8,205.4L95.8,205.4z
	 M84.6,205.5l-1-1h2L84.6,205.5z"/>
<path d="M92,218.4h-1.8c0-0.5-0.5-1-1-1c-0.3,0-0.5,0.1-0.7,0.3l-1.3,1.3h1.3l0,0h1.6h2c0.3,0,0.5,0.2,0.5,0.5s-0.2,0.5-0.5,0.5
	h-2.9h-3v-1l1.5-1.5h-5.9l1.5,1.5v2.5l-2.4-2.2c0.2-0.2,0.4-0.5,0.4-0.8c0-0.6-0.5-1-1-1c-0.2,0-0.5,0.1-0.7,0.2v1.1v0.6l3.8,3.5
	l0.2-0.2l-2.4,2.9c-0.2-0.2-0.5-0.2-0.7-0.2c-0.6,0.1-1,0.6-0.9,1.1c0,0.2,0.1,0.4,0.2,0.6c0.4,0,0.9-0.1,1.7-0.2l2.7-3.2
	c0.4-0.1,0.7-0.3,1.1-0.4l1.1,1c-0.2,0.1-0.4,0.2-0.6,0.3c-0.3-0.2-0.7-0.3-1-0.2c-0.5,0.2-0.8,0.8-0.6,1.3c0.1,0.2,0.2,0.3,0.3,0.4
	c0,0,0.4-0.1,0.8-0.3s0.8-0.3,0.8-0.3l0,0c0.5-0.2,0.9-0.4,1.3-0.6v-1.2v-1.5c0.7-0.4,1.3-0.8,1.8-1.3l1,0.9
	c-0.2,0.2-0.4,0.3-0.7,0.5c-0.3-0.2-0.7-0.2-1,0c-0.2,0.1-0.4,0.4-0.5,0.6c0,0.1,0,0.3,0,0.4c0,0.1,0.1,0.3,0.1,0.4
	c0.1,0.2,0.3,0.3,0.5,0.4c0.5-0.3,0.9-0.6,1.4-0.9c0.3-0.2,0.7-0.5,1-0.8c0.1-0.1,0.2-0.2,0.3-0.3v-1v-0.3H92c0.7,0,1.2-0.5,1.2-1.2
	C93.2,219,92.7,218.4,92,218.4 M83.9,222.1L83.9,222.1L83.9,222.1z M84.6,220.3l-1-1h2L84.6,220.3z"/>
<path d="M74.4,195.7c0.1-0.2,0.1-0.3,0.1-0.5c0-0.7-0.5-1.2-1.2-1.2h-4.5c0-0.5-0.5-1-1-1c-0.3,0-0.5,0.1-0.7,0.3l-1.3,1.3H67l0,0
	c0,0,1.5,0,1.6,0h4.8c0.3,0,0.5,0.2,0.5,0.5s-0.2,0.5-0.5,0.5h-3.1l0,0h-5.6v-1.2l1.5-1.5h-5.9l1.5,1.5v2.2l-2.4-1.9
	c0.2-0.2,0.3-0.5,0.3-0.7c0-0.6-0.5-1-1-1c-0.3,0-0.5,0.1-0.7,0.2v1.5v0.3l3.6,2.9l-1.7,0.5c-0.1-0.4-0.5-0.7-1-0.7
	c-0.6,0-1,0.5-1,1c0,0.3,0.1,0.5,0.2,0.7c0,0,1.4,0,1.6,0h0.5l9.2-2.9v1.5l-1.2,0.4c-0.1-0.4-0.5-0.7-1-0.7c-0.6,0-1,0.5-1,1
	c0,0.3,0.1,0.5,0.2,0.7c0,0,1.4,0,1.6,0h0.5l2.3-0.7l1.1-0.3l-0.9-0.8l-0.6-0.6h4.1v1.1c-0.2-0.2-0.5-0.4-0.8-0.4c-0.6,0-1,0.5-1,1
	c0,0.3,0.1,0.5,0.2,0.7h1.6h1V197v-1.3H74.4z M63.1,195.8l-1-1h2L63.1,195.8z"/>
<path d="M74.4,188.6c0.1-0.2,0.1-0.3,0.1-0.5c0-0.7-0.5-1.2-1.2-1.2h-4.5c0-0.5-0.5-1-1-1c-0.3,0-0.5,0.1-0.7,0.3l-1.3,1.3H67l0,0
	h1.5h4.8c0.3,0,0.5,0.2,0.5,0.5s-0.2,0.5-0.5,0.5h-3.1h-5.6v-1.2l1.5-1.5h-5.9l1.5,1.5v2.2l-2.4-1.9c0.2-0.2,0.3-0.5,0.3-0.7
	c0-0.6-0.5-1-1-1c-0.3,0-0.5,0.1-0.7,0.2v1.5v0.3l3.6,2.9l-1.7,0.5c-0.1-0.4-0.5-0.7-1-0.7c-0.6,0-1,0.5-1,1c0,0.2,0.1,0.5,0.2,0.7
	h1.6h0.5l9.2-2.9v1.5l-1.2,0.4c-0.1-0.4-0.5-0.7-1-0.7c-0.6,0-1,0.5-1,1c0,0.2,0.1,0.5,0.2,0.7H68h0.5l2.3-0.7l1.1-0.4l-0.9-0.8
	l-0.6-0.6h4.1v1.1c-0.2-0.2-0.5-0.4-0.8-0.4c-0.6,0-1,0.5-1,1c0,0.2,0.1,0.5,0.2,0.7h1.6h1v-2.5v-1.3h-1.1V188.6z M63.1,188.7l-1-1
	h2L63.1,188.7z"/>
<path d="M74.4,181.4c0.1-0.2,0.1-0.3,0.1-0.5c0-0.7-0.5-1.2-1.2-1.2h-4.5c0-0.5-0.5-1-1-1c-0.3,0-0.5,0.1-0.7,0.3l-1.3,1.3H67l0,0
	c0,0,1.3,0,1.5,0h4.8c0.3,0,0.5,0.2,0.5,0.5s-0.2,0.5-0.5,0.5l0,0h-3.1l0,0h-5.6v-1.2l1.5-1.5h-5.9l1.5,1.5v2.2l-2.4-1.9
	c0.2-0.2,0.3-0.5,0.3-0.7c0-0.6-0.5-1-1-1c-0.3,0-0.5,0.1-0.7,0.2v1.5v0.3l3.6,2.9l-1.7,0.5c-0.1-0.4-0.5-0.7-1-0.7
	c-0.6,0-1,0.5-1,1c0,0.3,0.1,0.5,0.2,0.7c0,0,1.5,0,1.6,0h0.5l9.2-2.9v1.5l-1.2,0.4c-0.1-0.4-0.5-0.7-1-0.7c-0.6,0-1,0.5-1,1
	c0,0.3,0.1,0.5,0.2,0.7c0,0,1.5,0,1.6,0h0.5l2.3-0.7l1.1-0.3l-0.9-0.8l-0.6-0.6h4.1v1.1c-0.2-0.2-0.5-0.4-0.8-0.4c-0.6,0-1,0.5-1,1
	c0,0.3,0.1,0.5,0.2,0.7h1.6h1v-2.5v-1.3L74.4,181.4L74.4,181.4z M63.1,181.6l-1-1h2L63.1,181.6z"/>
<path d="M105.7,199.7L105.7,199.7c0.7-0.2,1-0.9,0.8-1.5c-0.1-0.3-0.3-0.6-0.6-0.7c-0.3-0.2-0.6-0.2-0.9-0.1
	c-0.3,0.1-0.6,0.3-0.7,0.6c-0.2,0.3-0.2,0.6-0.1,0.9C104.4,199.5,105.1,199.8,105.7,199.7"/>
<path d="M102.2,202.4l0.2,1.1l4-0.6c0.1,0,4,2,4,2l-0.2-1.4c0,0-2.6-1.3-2.8-1.4c0.2-0.2,2.3-2.1,2.3-2.1l-0.2-1.4l-0.1,0.1
	c0,0-3.1,2.9-3.2,3C106.2,201.8,102.2,202.4,102.2,202.4"/>
<path d="M105.3,206.3c0,0.3,0.1,0.6,0.4,0.9c0.2,0.2,0.5,0.4,0.9,0.3c0.3,0,0.6-0.1,0.9-0.4c0.2-0.2,0.3-0.5,0.3-0.9
	c0-0.3-0.1-0.6-0.4-0.9c-0.2-0.2-0.5-0.4-0.9-0.4C105.8,205,105.3,205.6,105.3,206.3"/>
<path d="M102.5,208.3l-0.1,1.1c0,0,3.1,0.4,3.3,0.5c0,0.1-0.1,0.9-0.1,0.9c0,0.2,0,0.3,0,0.5c0,0.5,0.1,1,0.4,1.4s0.8,0.7,1.5,0.8
	c1.4,0.2,2.4-0.5,2.6-1.9l0.3-2.2L102.5,208.3L102.5,208.3z M108.9,210.3c0,0.1-0.1,1.1-0.1,1.1c-0.1,1-0.9,1-1.2,0.9
	c-0.6-0.1-1-0.5-1-1c0-0.1,0-0.1,0-0.2c0,0,0.1-0.8,0.1-1C106.9,210,108.8,210.2,108.9,210.3"/>
<path d="M101.8,212.8l-1.3,3.8l1.1,0.4c0,0,0.9-2.7,0.9-2.8c0.1,0.1,1.9,0.6,2.1,0.7c-0.1,0.2-0.9,2.6-0.9,2.6l1.1,0.4
	c0,0,0.8-2.5,0.9-2.6c0.1,0.1,1.9,0.6,2,0.7c-0.1,0.2-0.9,2.7-0.9,2.7l1.1,0.4l1.3-3.8L101.8,212.8L101.8,212.8z"/>
<path d="M100.3,217.3l-0.5,0.8c0,0,4.4,2.8,4.8,3.1c-0.5,0-7.1,0.6-7.1,0.6l-0.5,0.8l6.6,4.2l0.6-0.9c0,0-4.4-2.8-4.8-3.1
	c0.5,0,7.2-0.7,7.2-0.7l0.5-0.8L100.3,217.3L100.3,217.3z"/>
<path d="M97.7,226.7c-0.8,0.1-1.5,0.3-2-0.2c-0.2-0.2-0.4-0.8,0.1-1.3s1.2-0.6,2-0.5h0.3l-1.2-1.2l0,0c-0.8,0.1-1.4,0.3-1.9,0.9
	c-0.4,0.4-0.6,0.9-0.6,1.4c0,0.6,0.2,1.1,0.7,1.6c1,1,2.1,0.8,3.1,0.6c0.7-0.2,1.3-0.3,1.8,0.1c0.1,0.2,0.2,0.3,0.2,0.5
	c0,0.3-0.1,0.5-0.4,0.8c-0.4,0.4-0.9,0.6-1.6,0.5H98l1.1,1.1l0,0c0.6-0.1,1.1-0.3,1.5-0.7c0.5-0.5,0.7-1,0.7-1.5s-0.2-1.1-0.7-1.5
	C99.7,226.3,98.6,226.5,97.7,226.7"/>
<path d="M92.9,226.3l-3.3,2.2l0.6,1c0,0,2.3-1.6,2.5-1.7c0.1,0.1,1.1,1.7,1.2,1.8c-0.1,0.1-2.3,1.6-2.3,1.6l0.6,1
	c0,0,2.2-1.5,2.3-1.5c0.1,0.1,1.1,1.6,1.2,1.8c-0.1,0.1-2.4,1.6-2.4,1.6l0.6,1l3.3-2.2L92.9,226.3L92.9,226.3z"/>
<path d="M64,231.5c-0.1-0.1-3-1.9-3.1-2c0.1-0.1,1.8-2.8,1.8-2.8l-1-0.6v0.1l-4.1,6.5l1,0.6c0,0,1.7-2.7,1.8-2.8
	c0.1,0.1,3,1.9,3.1,2c-0.1,0.1-1.8,2.8-1.8,2.8l1,0.6l4.2-6.6l-1-0.6C65.8,228.7,64.1,231.3,64,231.5"/>
<path d="M60,225.7c0.1-1-0.3-1.9-0.9-2.6c-1.7-1.9-4-1.5-5.5-0.2c-0.9,0.8-1.4,1.8-1.4,2.8c-0.1,1,0.3,1.9,1,2.7
	c1.4,1.6,3.8,1.7,5.5,0.2C59.4,227.8,59.9,226.8,60,225.7 M58.8,225.7c0,0.7-0.4,1.5-1,2c-1.2,1.1-2.8,1.1-3.8-0.1
	c-0.5-0.5-0.7-1.2-0.6-1.8c0-0.7,0.4-1.4,1-2c0.6-0.5,1.4-0.8,2.1-0.8c0.7,0,1.3,0.3,1.7,0.8C58.6,224.4,58.8,225,58.8,225.7"/>
<path d="M55.9,219.2c0,0-4.8,2.2-5.2,2.4c0.2-0.4,3.3-6.5,3.3-6.5l-0.4-0.9h-0.1l-7,3.3l0.5,1c0,0,4.8-2.2,5.2-2.4
	c-0.2,0.4-3.3,6.5-3.3,6.5l0.4,0.8l7-3.3L55.9,219.2z"/>
<polygon points="53.3,212.1 53.2,212.2 45.7,214 46,215.2 53.5,213.3 "/>
<path d="M49.7,209.6c-0.3-0.2-0.6-0.3-0.9-0.2c-0.3,0-0.6,0.2-0.8,0.5s-0.3,0.6-0.2,0.9c0,0.3,0.2,0.6,0.5,0.8s0.6,0.3,0.9,0.2
	c0.7-0.1,1.1-0.7,1-1.4C50.1,210,49.9,209.8,49.7,209.6"/>
<path d="M49.2,206.6c0.5-0.7,0.9-1.3,1.6-1.3c0.2,0,0.4,0.1,0.6,0.3c0.2,0.2,0.3,0.5,0.3,0.8c0,0.6-0.4,1.2-1.1,1.7l-0.2,0.2h1.7
	l0,0c0.5-0.6,0.7-1.2,0.7-2c0-0.5-0.2-1-0.5-1.4c-0.4-0.4-1-0.6-1.6-0.6c-1.4,0-2,0.9-2.6,1.8c-0.4,0.6-0.7,1.2-1.3,1.2
	c-0.2,0-0.4-0.1-0.5-0.2c-0.2-0.2-0.3-0.5-0.3-0.8c0-0.5,0.3-1.1,0.8-1.5l0.2-0.1h-1.5l0,0c-0.4,0.5-0.6,1-0.6,1.6
	c0,0.7,0.2,1.2,0.6,1.6c0.4,0.4,0.9,0.6,1.5,0.6C48,208.3,48.6,207.4,49.2,206.6"/>
<path d="M48.7,203.3c1.1,0.3,2.2,0.1,3.1-0.4c0.8-0.5,1.4-1.3,1.6-2.3c0.2-1,0.1-2-0.4-2.8c-0.5-0.9-1.5-1.6-2.6-1.8
	c-2.2-0.6-4.3,0.6-4.8,2.7c-0.1,0.3-0.1,0.6-0.1,0.9c0,0.7,0.2,1.3,0.5,1.8C46.7,202.4,47.6,203.1,48.7,203.3 M46.9,199
	c0.2-0.7,0.6-1.2,1.1-1.6c0.6-0.4,1.4-0.5,2.2-0.3s1.5,0.7,1.8,1.3s0.4,1.2,0.3,1.9c-0.4,1.4-1.8,2.2-3.4,1.8
	C47.4,201.8,46.5,200.5,46.9,199"/>
<path d="M113.5,206.6c0-9.6-3.7-18.6-10.5-25.4c-0.8-0.8-1.6-1.5-2.5-2.3v-1.4c1.4-0.1,2.6-1.3,2.6-2.7c0-1.5-1.2-2.7-2.7-2.7
	c-0.1,0-0.1,0-0.2,0l2.6-1.2l-1-2.2l3.9-9.1l-1.7-0.7l-4,9.3l-2.1,1l1.4,3H87.8H67.4H55.9l1.4-3l-2.2-1l-4-9.3l-1.7,0.7l3.9,9.1
	l-1,2.2l2.6,1.2c0,0,0,0-0.1,0c-1.5,0-2.7,1.2-2.7,2.7c0,1.4,1.1,2.6,2.5,2.7v1.4c-0.8,0.7-1.7,1.5-2.5,2.3
	c-6.8,6.8-10.5,15.8-10.5,25.4c0,7.4,2.2,14.5,6.5,20.6c4.2,5.9,9.9,10.4,16.7,12.9c0,0,0.4,0.1,1,0.4c0.1,1,0.7,1.9,1.6,2.2
	c1,0.4,2.1,0,2.7-0.7h0.1v10.2c0,3.8,3.2,6.8,7.2,6.8s7.2-3.1,7.2-6.8v-6.8l17.6-8.4c0.6-0.2,1.1-0.5,1.6-0.9
	c1.4-1.3,1.6-3.3,0.7-5.9c1.6-1.8,3-3.7,4.1-5.8C111.8,219,113.5,212.9,113.5,206.6 M94.8,173.8l5.2,1.1l-5.2,1.1V173.8z
	 M78.1,228.4v-27h20.6v5.1c0,5-0.9,8.4-2.2,10.9c-1.1,1.8-2.4,3.5-4,5c-0.1,0.1-0.2,0.2-0.3,0.3C88.4,226.3,83.3,228.3,78.1,228.4
	 M84.3,229.3c-0.4,0.9-0.7,1.9-0.9,3c-2-0.7-3.9-1.4-5.8-2.1l0,0C79.9,230.3,82.2,229.9,84.3,229.3 M78.1,200.5v-22.9h17.4h3.2v18
	v4.9H78.1z M85.3,173.8l5.2,1.1l-5.2,1.1V173.8z M75.7,173.8l5.2,1.1l-5.2,1.1V173.8z M66,173.8l5.2,1.1L66,176V173.8z M56.6,173.8
	l5.2,1.1l-5.2,1.1V173.8z M56.6,195.6v-18h3.2h17.4v22.9H56.6V195.6z M56.6,201.4h20.6v27c-4.2-0.1-8.3-1.4-11.8-3.8l0,0
	c-0.1-0.1-0.3-0.2-0.4-0.3l-0.1-0.1c-0.1-0.1-0.2-0.1-0.3-0.2c-0.1-0.1-0.2-0.2-0.3-0.2c0,0,0,0-0.1-0.1c-2.2-1.7-4.1-3.9-5.5-6.4
	c-1.3-2.5-2.1-5.9-2.1-10.8L56.6,201.4z M66.4,238.8c-0.3-0.1-0.6-0.2-0.8-0.3c-6.4-2.4-11.9-6.7-15.8-12.3
	c-4-5.7-6.2-12.5-6.2-19.6c0-9.1,3.5-17.6,10-24.1c0.4-0.4,0.8-0.8,1.2-1.1v9.3c-1.4-1-3-2-3.1-2.1c0.1-0.1,1.3-2,1.3-2l-1-0.6v0.1
	l-3.2,4.8l1,0.6c0,0,1.2-1.8,1.3-2c0.1,0.1,2.2,1.4,3.7,2.5v3.3l-6.6-3v0.1l-0.5,1l7.1,3.3v4c-0.5,1.9-0.8,3.9-0.8,6
	c0,4.3,1.2,8.3,3.2,11.8c1.3,2.5,3,4.2,4.6,5.7c0.7,0.6,1.4,1.2,2.2,1.8c0.1,0,0.1,0.1,0.2,0.1c0.1,0.1,0.2,0.1,0.3,0.2
	c0.1,0.1,0.2,0.1,0.3,0.2l0.1,0.1c0.6,0.4,1.2,0.8,1.9,1.1l0,0c0.9,0.4,2.1,1,3.5,1.6l-1.5,3.7l-0.7-0.3c-0.4-0.2-0.9,0-1.1,0.4
	s0,0.9,0.4,1.1l0.7,0.3L66.4,238.8z M83,252.3c0,0.7-0.2,1.4-0.5,2c-0.3,0.5-0.8,0.8-1.3,0.8c-0.7,0-1.3-0.4-1.5-1.1
	c0-0.1-0.1-0.4-0.2-0.9c0.2,0.1,0.4,0.1,0.6,0.1c0.9,0,1.6-0.7,1.6-1.5c0-0.9-0.7-1.5-1.6-1.5c-0.5,0-0.9,0.2-1.2,0.5
	c-0.5-2-1-4.2-1-4.2h-0.3h-0.4c0,0-0.5,2.2-1,4.2c-0.3-0.3-0.7-0.5-1.1-0.5c-0.9,0-1.5,0.7-1.5,1.5c0,0.9,0.7,1.5,1.5,1.5
	c0.2,0,0.4,0,0.6-0.1c-0.1,0.4-0.2,0.8-0.2,0.9c-0.2,0.6-0.8,1.1-1.5,1.1c-0.6,0-1.1-0.3-1.4-0.8c-0.3-0.6-0.4-1.3-0.4-2v-9.6
	c3.2,1,7.2,2.2,10.9,3L83,252.3L83,252.3z M83.8,243.9c-5.6-1.2-12.1-3.3-15.9-4.6c0.4-0.9,1-2.5,1.7-4.2l1,0.4c0,0.1,0,0.1,0,0.2
	c0,1.4,1.2,2.6,2.6,2.6s2.6-1.2,2.6-2.6c0-1.4-1.2-2.6-2.6-2.6c-0.8,0-1.4,0.3-1.9,0.9l-1.1-0.5c0.6-1.5,1.1-2.9,1.5-3.7
	c3.8,1.6,8.7,3.5,13.4,5c5,1.5,9,2.4,12,2.7C91.8,240.1,84.2,243.7,83.8,243.9 M102.7,234.7c-0.5,0.5-1.7,1-4.2,1
	c1.7-1.2,3.2-2.5,4.6-4C103.5,233.1,103.4,234.1,102.7,234.7 M95.6,235.5c-2.4-0.3-5.7-1.1-10-2.4c-0.2-0.1-0.4-0.1-0.6-0.2
	c0.4-2.5,1.2-4.1,2.6-4.9c2.2-1,4.2-2.4,6-4.1c1.6-1.4,3.2-3.1,4.4-5.5c2-3.5,3.2-7.6,3.2-11.9c0-2-0.3-4.1-0.8-6v-3.8l1.1,2.8
	l1.1-0.4c0,0-1.1-2.7-1.1-2.8c0.2-0.1,6.2-2.5,6.2-2.5l-0.4-1.1h-0.1l-6.7,2.7v-0.5l4.5-6.4l-0.4-0.7h-0.1l-4,0.9v-7.5
	c0.4,0.4,0.8,0.7,1.2,1.1c6.4,6.4,10,15,10,24.1c0,5.9-1.5,11.8-4.5,16.9C104.4,228.4,100.4,232.5,95.6,235.5 M100.9,192.6
	c0,0-0.2,0.3-0.4,0.6V192C100.7,192.3,100.9,192.6,100.9,192.6 M100.6,190c0.2,0,2.2-0.5,2.5-0.6c-0.2,0.3-1.4,2-1.5,2.1
	C101.5,191.4,100.7,190.2,100.6,190"/>
<path d="M104.4,149c-1.4-2.1-3.7-3-5.4-3c-2.4,0-4.9,1-7.3,2c-2.7,1.1-5.5,2.2-8.3,2c0.3-1,0.7-2,1.2-2.8l-1.7-0.8
	c0.3-0.6,0.6-1.3,0.7-2.1c-0.2-0.1-2.5-0.9-6.2-0.9s-5.8,0.8-6,0.9c0.1,0.8,0.3,1.5,0.7,2.1l-1.7,0.8c0.5,0.8,0.9,1.8,1.2,2.8
	c-2.8,0.3-5.6-0.9-8.3-2c-2.4-1-4.9-2-7.3-2c-1.7,0-4,0.9-5.4,3c-1.1,1.7-2,4.9,0.4,10l0,0v-0.1l3.5-1.5l0.2,0.6
	c-1.1,0.5-2.2,1.8-0.9,4.8c3-1.3,3.1-3,2.6-4.1l0.6-0.2l1.5,3.4l1.5,3.4l-0.6,0.2c-0.5-1.1-1.8-2.2-4.8-0.9c1.3,3,3.6,4.2,5.4,4.2
	c3.1,0,5.3-1.9,5-3.8c-0.2-1.4-1.5-1.9-2-1.8c-0.6,0.1-1,0.8-0.9,1.2c0,0.1,0.1,0.2,0.1,0.3l-0.1,0.1c-0.8-0.1-1.5-0.7-1.7-1.5
	c-0.2-1,0.5-2,1.5-2.2c0.6-0.1,1.2,0.1,1.7,0.5l0.2-0.3c-0.6-0.3-1-0.8-1.1-1.5c-0.3-1.6,1.5-3.2,1.6-3.2l0,0l0,0
	c0,0,2.3,0.8,2.6,2.4c0.1,0.7-0.1,1.3-0.5,1.8l0.3,0.2c0.2-0.5,0.7-1,1.4-1.1c1-0.2,2,0.5,2.2,1.5c0.2,0.8-0.3,1.7-1,2l-0.1-0.1
	c0-0.1,0-0.2,0-0.3c-0.1-0.5-0.7-0.9-1.3-0.8c-0.5,0.1-1.5,1-1.2,2.4c0.5,2.4,2.5,4.1,4.9,4.1s5-2,5-5c-3.5,0-4.3,1.6-4.3,3h-0.7v-4
	v-4h0.7c0,1.3,0.9,3,4.3,3c0-3.5-1.6-4.3-3-4.3v-0.7H77h1.1h3.4v0.7c-1.3,0-3,0.9-3,4.3c3.5,0,4.3-1.6,4.3-3h0.7v4v4H83
	c0-1.3-0.9-3-4.3-3c0,3,2.5,5,5,5c2.4,0,4.5-1.7,4.9-4.1c0.3-1.4-0.7-2.4-1.2-2.4c-0.6-0.1-1.2,0.3-1.3,0.8c0,0.1,0,0.2,0,0.3
	l-0.1,0.1c-0.7-0.4-1.2-1.2-1-2c0.2-1,1.2-1.7,2.2-1.5c0.6,0.1,1.1,0.5,1.4,1.1l0.3-0.2c-0.4-0.5-0.6-1.1-0.5-1.8
	c0.3-1.6,2.6-2.4,2.6-2.4s1.9,1.6,1.6,3.2c-0.1,0.7-0.6,1.2-1.1,1.5l0.2,0.3c0.4-0.4,1-0.6,1.7-0.5c1,0.2,1.7,1.2,1.5,2.2
	c-0.2,0.9-0.9,1.5-1.7,1.5l-0.1-0.1c0.1-0.1,0.1-0.2,0.1-0.3c0.1-0.5-0.3-1.1-0.9-1.2c-0.5-0.1-1.8,0.4-2,1.8c-0.3,1.9,2,3.8,5,3.8
	c1.8,0,4.1-1.2,5.4-4.2c-3-1.3-4.3-0.2-4.8,0.9l-0.6-0.2l1.5-3.4l1.5-3.4l0.6,0.2c-0.5,1.1-0.4,2.8,2.6,4.1c1.3-3,0.2-4.3-0.9-4.8
	l0.2-0.6l3.5,1.5v0.1l0,0C106.4,153.8,105.5,150.7,104.4,149 M72.3,153.4c-1.7,0-3.1,0.9-3.9,2.3c-0.9-1.6-2.9-2.6-4.8-2.2
	c-1.4,0.3-2.6,1.3-3.1,2.5c-0.8-1.3-2.2-2.1-3.8-2.1c-2,0-3.7,1.3-4.3,3.1c-1.1-2.9-1.1-5.3,0-7s3-2.2,3.8-2.2
	c2.1,0,4.3,0.9,6.6,1.8c3,1.2,6.1,2.5,9.5,2c0.1,0.6,0.2,1.1,0.3,1.7C72.5,153.4,72.4,153.4,72.3,153.4 M77.6,144.1
	c0.9,0,1.7,0.7,1.8,1.6c-0.5-0.4-1.1-0.7-1.8-0.7c-0.7,0-1.3,0.3-1.8,0.7C75.9,144.8,76.7,144.1,77.6,144.1 M77.6,145.8
	c0.9,0,1.7,0.7,1.8,1.6c-0.5-0.4-1.1-0.7-1.8-0.7c-0.7,0-1.3,0.3-1.8,0.7C75.9,146.5,76.7,145.8,77.6,145.8 M77.6,155.9
	c-1,0-1.8-0.8-1.8-1.8s0.8-1.8,1.8-1.8s1.8,0.8,1.8,1.8C79.4,155.1,78.6,155.9,77.6,155.9 M79.3,152c-0.5-0.4-1.1-0.6-1.7-0.6
	c-0.7,0-1.2,0.2-1.7,0.6c-0.1-0.2-0.1-0.4-0.1-0.6c0-1,0.8-1.8,1.8-1.8s1.8,0.8,1.8,1.8C79.4,151.6,79.4,151.8,79.3,152 M79.4,149.5
	c-0.5-0.4-1.1-0.7-1.8-0.7c-0.7,0-1.3,0.3-1.8,0.7v-0.1c0-1,0.8-1.8,1.8-1.8s1.8,0.8,1.8,1.8C79.4,149.4,79.4,149.4,79.4,149.5
	 M102.8,157c-0.6-1.8-2.3-3.1-4.3-3.1c-1.6,0-3,0.8-3.8,2.1c-0.6-1.2-1.7-2.2-3.1-2.5c-2-0.4-3.9,0.5-4.8,2.2
	c-0.8-1.3-2.2-2.3-3.9-2.3c-0.1,0-0.2,0-0.3,0c0.1-0.5,0.2-1.1,0.3-1.7c3.4,0.5,6.5-0.8,9.5-2c2.3-0.9,4.5-1.8,6.6-1.8
	c0.8,0,2.7,0.5,3.8,2.2C103.9,151.7,103.9,154.1,102.8,157"/>
<polygon points="88.3,178.9 88.3,178.9 87.6,178.9 88,179.7 88.3,179.7 88.4,179.7 88.3,180 88.4,179.8 88.5,179.8 88.6,179.7 
	89,178.9 "/>
<polyline points="80,179.6 79.9,179.7 79.9,180 79.2,179.9 79.2,179.4 78.7,178.5 78.8,178.4 79.7,178.9 80.2,178.9 80.2,179.6 
	80,179.5 "/>
<path d="M80.5,179.4c-0.1,0-0.2-0.1-0.2-0.2c0-0.1,0.1-0.2,0.2-0.2s0.1,0,0.2,0.1h0.1c0,0,0-0.1,0-0.2c0-0.3-0.2-0.5-0.5-0.5
	s-0.5,0.2-0.5,0.5s0.2,0.5,0.5,0.5L80.5,179.4C80.5,179.4,80.5,179.4,80.5,179.4"/>
<path d="M79.7,180.2c0-0.1-0.1-0.2-0.2-0.2s-0.2,0.1-0.2,0.2c0,0.1,0,0.1,0.1,0.2v0.1c0,0-0.1,0-0.2,0c-0.3,0-0.5-0.2-0.5-0.5
	s0.2-0.5,0.5-0.5s0.5,0.2,0.5,0.5L79.7,180.2L79.7,180.2"/>
<polyline points="80,198.7 79.9,198.6 79.9,198.3 79.2,198.4 79.2,198.8 78.7,199.7 78.8,199.9 79.7,199.3 80.2,199.3 80.2,198.6 
	80,198.7 "/>
<path d="M80.5,198.8c-0.1,0-0.2,0.1-0.2,0.2c0,0.1,0.1,0.2,0.2,0.2s0.1,0,0.2-0.1h0.1c0,0,0,0.1,0,0.2c0,0.3-0.2,0.5-0.5,0.5
	s-0.5-0.2-0.5-0.5s0.2-0.5,0.5-0.5L80.5,198.8C80.5,198.8,80.5,198.8,80.5,198.8"/>
<path d="M79.7,198.1c0,0.1-0.1,0.2-0.2,0.2s-0.2-0.1-0.2-0.2c0-0.1,0-0.1,0.1-0.2v-0.1c0,0-0.1,0-0.2,0c-0.3,0-0.5,0.2-0.5,0.5
	s0.2,0.5,0.5,0.5s0.5-0.2,0.5-0.5L79.7,198.1C79.7,198.1,79.7,198.1,79.7,198.1"/>
<polyline points="96.6,198.7 96.7,198.6 96.7,198.3 97.4,198.4 97.4,198.8 97.9,199.7 97.8,199.9 96.9,199.3 96.4,199.3 96.4,198.6 
	96.6,198.7 "/>
<path d="M96.1,198.8c0.1,0,0.2,0.1,0.2,0.2c0,0.1-0.1,0.2-0.2,0.2s-0.1,0-0.2-0.1h-0.1c0,0,0,0.1,0,0.2c0,0.3,0.2,0.5,0.5,0.5
	s0.5-0.2,0.5-0.5s-0.2-0.5-0.5-0.5L96.1,198.8C96.1,198.8,96.1,198.8,96.1,198.8"/>
<path d="M96.9,198.1c0,0.1,0.1,0.2,0.2,0.2s0.2-0.1,0.2-0.2c0-0.1,0-0.1-0.1-0.2v-0.1c0.1,0,0.1,0,0.2,0c0.3,0,0.5,0.2,0.5,0.5
	s-0.2,0.5-0.5,0.5s-0.5-0.2-0.5-0.5L96.9,198.1C96.9,198.1,96.9,198.1,96.9,198.1"/>
<polyline points="96.6,179.6 96.7,179.7 96.7,180 97.4,179.9 97.4,179.4 97.9,178.5 97.8,178.4 96.9,178.9 96.4,178.9 96.4,179.6 
	96.6,179.5 "/>
<path d="M96.1,179.4c0.1,0,0.2-0.1,0.2-0.2c0-0.1-0.1-0.2-0.2-0.2s-0.1,0-0.2,0.1h-0.1c0,0,0-0.1,0-0.2c0-0.3,0.2-0.5,0.5-0.5
	s0.5,0.2,0.5,0.5s-0.2,0.5-0.5,0.5L96.1,179.4C96.1,179.4,96.1,179.4,96.1,179.4"/>
<path d="M96.9,180.2c0-0.1,0.1-0.2,0.2-0.2s0.2,0.1,0.2,0.2c0,0.1,0,0.1-0.1,0.2v0.1c0.1,0,0.1,0,0.2,0c0.3,0,0.5-0.2,0.5-0.5
	s-0.2-0.5-0.5-0.5s-0.5,0.2-0.5,0.5L96.9,180.2L96.9,180.2z"/>
<rect x="87.5" y="180.8" width="1.5" height="0.6"/>
<polygon points="88.4,182.1 88.2,182.1 87.9,181.5 88.7,181.5 "/>
<polyline points="89.2,181.1 89.2,181.1 89.2,181.1 89.2,181.1 "/>
<path d="M89.4,181.4l-0.1,0.1c-0.1,0-0.2-0.1-0.2-0.2c0-0.1,0.1-0.2,0.2-0.2h-0.2c-0.2,0-0.4,0.2-0.4,0.4s0.2,0.4,0.4,0.4
	c0.2,0,0.4-0.2,0.4-0.4C89.4,181.5,89.4,181.5,89.4,181.4L89.4,181.4z"/>
<path d="M87.4,181.1L87.4,181.1L87.4,181.1L87.4,181.1z"/>
<path d="M87.2,181.4l0.1,0.1c0.1,0,0.2-0.1,0.2-0.2c0-0.1-0.1-0.2-0.2-0.2h0.2c0.2,0,0.4,0.2,0.4,0.4s-0.2,0.4-0.4,0.4
	c-0.2,0-0.4-0.2-0.4-0.4C87.2,181.5,87.2,181.5,87.2,181.4L87.2,181.4z"/>
<polygon points="88.3,199.4 88.3,199.4 89,199.4 88.6,198.6 88.3,198.5 88.2,198.5 88.4,198.3 88.2,198.5 88.1,198.5 88,198.6 
	87.6,199.4 "/>
<rect x="87.6" y="196.7" width="1.5" height="0.6"/>
<polygon points="88.2,196.1 88.4,196.1 88.7,196.8 87.9,196.8 "/>
<path d="M87.4,197.1L87.4,197.1L87.4,197.1z"/>
<path d="M87.2,196.9l0.1-0.1c0.1,0,0.2,0.1,0.2,0.2c0,0.1-0.1,0.2-0.2,0.2h0.2c0.2,0,0.4-0.2,0.4-0.4s-0.2-0.4-0.4-0.4
	c-0.2,0-0.4,0.2-0.4,0.4C87.2,196.8,87.2,196.8,87.2,196.9L87.2,196.9z"/>
<path d="M89.2,197.1L89.2,197.1L89.2,197.1z"/>
<path d="M89.4,196.9l-0.1-0.1c-0.1,0-0.2,0.1-0.2,0.2c0,0.1,0.1,0.2,0.2,0.2h-0.2c-0.2,0-0.4-0.2-0.4-0.4s0.2-0.4,0.4-0.4
	c0.2,0,0.4,0.2,0.4,0.4C89.4,196.8,89.4,196.8,89.4,196.9L89.4,196.9z"/>
<polygon points="97.4,189.1 97.4,189.1 97.4,188.4 96.6,188.8 96.6,189.1 96.6,189.2 96.4,189.1 96.6,189.3 96.5,189.3 96.6,189.4 
	97.4,189.8 "/>
<rect x="94.8" y="188.4" width="0.6" height="1.5"/>
<polygon points="94.2,189.2 94.2,189 94.8,188.7 94.8,189.5 "/>
<polyline points="95.2,190.1 95.2,190 95.2,190.1 95.2,190.1 "/>
<path d="M95,190.2l-0.1-0.1c0-0.1,0.1-0.2,0.2-0.2s0.2,0.1,0.2,0.2v-0.2c0-0.2-0.2-0.4-0.4-0.4c-0.2,0-0.4,0.2-0.4,0.4
	s0.2,0.4,0.4,0.4C94.9,190.3,94.9,190.3,95,190.2L95,190.2z"/>
<path d="M95.2,188.2L95.2,188.2L95.2,188.2L95.2,188.2"/>
<path d="M95,188.1l-0.1,0.1c0,0.1,0.1,0.2,0.2,0.2s0.2-0.1,0.2-0.2v0.2c0,0.2-0.2,0.4-0.4,0.4c-0.2,0-0.4-0.2-0.4-0.4
	s0.2-0.4,0.4-0.4C94.9,188,94.9,188,95,188.1L95,188.1z"/>
<polygon points="79.2,189.1 79.2,189.1 79.2,188.4 80,188.8 80,189.1 80,189.2 80.2,189.1 80,189.3 80.1,189.3 80,189.4 79.2,189.8 
	"/>
<rect x="81.1" y="188.4" width="0.6" height="1.5"/>
<polygon points="82.4,189.2 82.4,189 81.8,188.7 81.8,189.5 "/>
<polyline points="81.4,190.1 81.4,190 81.4,190.1 81.4,190.1 "/>
<path d="M81.7,190.2l0.1-0.1c0-0.1-0.1-0.2-0.2-0.2s-0.2,0.1-0.2,0.2v-0.2c0-0.2,0.2-0.4,0.4-0.4c0.2,0,0.4,0.2,0.4,0.4
	s-0.2,0.4-0.4,0.4C81.8,190.3,81.7,190.3,81.7,190.2L81.7,190.2z"/>
<path d="M81.4,188.2L81.4,188.2L81.4,188.2L81.4,188.2"/>
<path d="M81.7,188.1l0.1,0.1c0,0.1-0.1,0.2-0.2,0.2s-0.2-0.1-0.2-0.2v0.2c0,0.2,0.2,0.4,0.4,0.4c0.2,0,0.4-0.2,0.4-0.4
	S82,188,81.8,188C81.8,188,81.7,188,81.7,188.1L81.7,188.1z"/>
<g enable-background="new    ">
	<path d="M52.6,273.9V299h30.8v-25.1h7.8v58.4h-7.8v-26.7H52.6v26.7h-7.8v-58.4H52.6z"/>
	<path d="M100.8,302.5c0.9-2.7,2.2-5,3.9-7c1.7-2,3.9-3.6,6.5-4.7c2.6-1.1,5.5-1.7,8.8-1.7c3.4,0,6.3,0.6,8.9,1.7
		c2.5,1.1,4.7,2.7,6.4,4.7c1.7,2,3.1,4.3,3.9,7c0.9,2.7,1.3,5.6,1.3,8.7c0,3.1-0.4,6-1.3,8.7c-0.9,2.7-2.2,5-3.9,7
		c-1.7,2-3.9,3.5-6.4,4.7c-2.5,1.1-5.5,1.7-8.9,1.7c-3.3,0-6.3-0.6-8.8-1.7c-2.6-1.1-4.7-2.7-6.5-4.7c-1.7-2-3.1-4.3-3.9-7
		c-0.9-2.7-1.3-5.6-1.3-8.7C99.5,308.1,99.9,305.2,100.8,302.5z M107.9,318c0.7,2,1.6,3.7,2.8,5c1.2,1.3,2.6,2.4,4.2,3.1
		c1.6,0.7,3.3,1.1,5.1,1.1s3.5-0.4,5.1-1.1c1.6-0.7,3-1.7,4.2-3.1c1.2-1.3,2.1-3,2.8-5c0.7-2,1-4.3,1-6.8c0-2.6-0.3-4.8-1-6.8
		c-0.7-2-1.6-3.7-2.8-5c-1.2-1.4-2.6-2.4-4.2-3.1c-1.6-0.7-3.3-1.1-5.1-1.1s-3.5,0.4-5.1,1.1c-1.6,0.7-3,1.7-4.2,3.1
		c-1.2,1.4-2.1,3-2.8,5c-0.7,2-1,4.3-1,6.8C106.9,313.7,107.2,316,107.9,318z"/>
	<path d="M154.3,290v6.2h0.2c3.2-4.8,7.7-7.2,13.7-7.2c2.6,0,5,0.5,7.1,1.6s3.6,2.9,4.5,5.6c1.4-2.3,3.3-4.1,5.6-5.3
		c2.3-1.3,4.9-1.9,7.6-1.9c2.1,0,4,0.2,5.8,0.7c1.7,0.5,3.2,1.2,4.4,2.2c1.2,1,2.2,2.2,2.9,3.8c0.7,1.6,1,3.4,1,5.6v31h-7v-27.7
		c0-1.3-0.1-2.5-0.3-3.7c-0.2-1.1-0.6-2.1-1.2-3c-0.6-0.8-1.4-1.5-2.5-2c-1.1-0.5-2.4-0.7-4.1-0.7c-3.4,0-6.1,1-8.1,2.9
		s-2.9,4.6-2.9,7.9v26.3h-7v-27.7c0-1.4-0.1-2.6-0.4-3.8c-0.2-1.1-0.7-2.1-1.3-3c-0.6-0.8-1.4-1.5-2.4-2c-1-0.5-2.3-0.7-3.9-0.7
		c-2,0-3.7,0.4-5.2,1.2c-1.4,0.8-2.6,1.8-3.5,2.9c-0.9,1.1-1.6,2.3-2,3.6c-0.4,1.2-0.6,2.2-0.6,3.1v26.3h-7V290H154.3z"/>
	<path d="M246.5,329.6c-3.2,2.4-7.1,3.6-11.9,3.6c-3.4,0-6.3-0.5-8.8-1.6c-2.5-1.1-4.6-2.6-6.3-4.6c-1.7-2-3-4.3-3.8-7
		c-0.8-2.7-1.3-5.7-1.4-8.9c0-3.2,0.5-6.2,1.5-8.8c1-2.7,2.4-5,4.1-7c1.8-2,3.9-3.5,6.3-4.6c2.4-1.1,5.1-1.6,8-1.6
		c3.8,0,6.9,0.8,9.4,2.3c2.5,1.6,4.5,3.5,6,5.9c1.5,2.4,2.5,5,3.1,7.9c0.6,2.8,0.8,5.5,0.7,8.1h-31.7c-0.1,1.9,0.2,3.6,0.7,5.3
		c0.5,1.7,1.3,3.1,2.4,4.4c1.1,1.3,2.5,2.3,4.2,3.1c1.7,0.8,3.7,1.1,6,1.1c2.9,0,5.4-0.7,7.2-2c1.9-1.4,3.1-3.4,3.7-6.2h6.9
		C251.7,323.6,249.6,327.2,246.5,329.6z M244.8,302.4c-0.6-1.5-1.5-2.7-2.5-3.8c-1.1-1.1-2.3-1.9-3.8-2.5c-1.4-0.6-3-0.9-4.8-0.9
		c-1.8,0-3.4,0.3-4.9,0.9c-1.4,0.6-2.7,1.5-3.7,2.6c-1,1.1-1.9,2.4-2.5,3.8c-0.6,1.4-1,3-1.1,4.6h24.3
		C245.8,305.5,245.4,303.9,244.8,302.4z"/>
	<path d="M280.9,291.6c1.2-3.7,2.9-6.9,5.3-9.8c2.3-2.8,5.3-5.1,8.8-6.8c3.5-1.7,7.6-2.5,12.2-2.5c4.6,0,8.7,0.8,12.2,2.5
		c3.5,1.7,6.4,4,8.8,6.8c2.3,2.8,4.1,6.1,5.3,9.8c1.2,3.7,1.8,7.5,1.8,11.5c0,4-0.6,7.8-1.8,11.5c-1.2,3.7-2.9,6.9-5.3,9.8
		c-2.3,2.8-5.3,5.1-8.8,6.7c-3.5,1.7-7.6,2.5-12.2,2.5c-4.6,0-8.7-0.8-12.2-2.5c-3.5-1.7-6.4-3.9-8.8-6.7c-2.3-2.8-4.1-6.1-5.3-9.8
		c-1.2-3.7-1.8-7.5-1.8-11.5C279.1,299.1,279.7,295.3,280.9,291.6z M288,311.8c0.8,2.9,2,5.4,3.6,7.7s3.7,4.1,6.3,5.5
		c2.6,1.4,5.6,2.1,9.2,2.1c3.5,0,6.6-0.7,9.2-2.1c2.6-1.4,4.7-3.2,6.3-5.5s2.8-4.9,3.6-7.7c0.8-2.9,1.1-5.8,1.1-8.7
		s-0.4-5.8-1.1-8.7c-0.8-2.9-2-5.4-3.6-7.7s-3.7-4.1-6.3-5.5c-2.6-1.4-5.6-2.1-9.2-2.1c-3.5,0-6.6,0.7-9.2,2.1
		c-2.6,1.4-4.7,3.2-6.3,5.5s-2.8,4.9-3.6,7.7c-0.8,2.9-1.1,5.8-1.1,8.7S287.3,308.9,288,311.8z"/>
	<path d="M338.2,296.1V290h7.1v-6.3c0-3.4,1-6,3-7.8c2-1.8,4.9-2.7,8.7-2.7c0.7,0,1.4,0.1,2.2,0.2c0.8,0.1,1.6,0.3,2.2,0.5v6.1
		c-0.6-0.2-1.3-0.4-2-0.4c-0.7-0.1-1.4-0.1-2-0.1c-1.7,0-3,0.3-3.9,1c-0.9,0.7-1.4,1.9-1.4,3.8v5.9h8.2v6.1h-8.2v36.2h-7v-36.2
		H338.2z"/>
	<path d="M359.9,296.1V290h7.1v-6.3c0-3.4,1-6,3-7.8c2-1.8,4.9-2.7,8.7-2.7c0.7,0,1.4,0.1,2.2,0.2c0.8,0.1,1.6,0.3,2.2,0.5v6.1
		c-0.6-0.2-1.3-0.4-2-0.4c-0.7-0.1-1.4-0.1-2-0.1c-1.7,0-3,0.3-3.9,1c-0.9,0.7-1.4,1.9-1.4,3.8v5.9h8.2v6.1H374v36.2h-7v-36.2H359.9
		z"/>
	<path d="M387.8,282.4v-8.5h7v8.5H387.8z M394.8,290v42.3h-7V290H394.8z"/>
	<path d="M429.8,297.4c-1.7-1.5-4.1-2.2-7-2.2c-2.5,0-4.6,0.5-6.3,1.4c-1.7,0.9-3,2.2-4,3.7c-1,1.5-1.7,3.3-2.2,5.3
		c-0.4,2-0.7,4-0.7,6.2c0,2,0.2,3.9,0.7,5.7c0.5,1.9,1.2,3.5,2.2,4.9c1,1.4,2.3,2.6,3.8,3.5c1.6,0.9,3.5,1.3,5.6,1.3
		c3.4,0,6.1-0.9,8.1-2.7c1.9-1.8,3.1-4.3,3.6-7.6h7.1c-0.8,5.2-2.7,9.3-5.8,12.1c-3.1,2.8-7.4,4.3-12.8,4.3c-3.2,0-6.1-0.5-8.5-1.6
		c-2.5-1-4.6-2.5-6.2-4.4c-1.7-1.9-2.9-4.2-3.8-6.8c-0.8-2.6-1.3-5.5-1.3-8.7c0-3.2,0.4-6.1,1.2-8.9c0.8-2.8,2.1-5.2,3.7-7.2
		c1.7-2,3.7-3.7,6.3-4.8c2.5-1.2,5.4-1.8,8.8-1.8c2.4,0,4.6,0.3,6.7,0.9c2.1,0.6,4,1.5,5.6,2.7c1.6,1.2,2.9,2.7,4,4.5
		c1,1.8,1.7,4,2,6.5h-7.2C432.7,300.9,431.6,298.8,429.8,297.4z"/>
	<path d="M477.4,329.6c-3.2,2.4-7.1,3.6-11.9,3.6c-3.4,0-6.3-0.5-8.8-1.6c-2.5-1.1-4.6-2.6-6.3-4.6c-1.7-2-3-4.3-3.8-7
		c-0.8-2.7-1.3-5.7-1.4-8.9c0-3.2,0.5-6.2,1.5-8.8c1-2.7,2.4-5,4.1-7c1.8-2,3.9-3.5,6.3-4.6c2.4-1.1,5.1-1.6,8-1.6
		c3.8,0,6.9,0.8,9.4,2.3c2.5,1.6,4.5,3.5,6,5.9c1.5,2.4,2.5,5,3.1,7.9c0.6,2.8,0.8,5.5,0.7,8.1h-31.7c-0.1,1.9,0.2,3.6,0.7,5.3
		c0.5,1.7,1.3,3.1,2.4,4.4c1.1,1.3,2.5,2.3,4.2,3.1c1.7,0.8,3.7,1.1,6,1.1c2.9,0,5.4-0.7,7.2-2c1.9-1.4,3.1-3.4,3.7-6.2h6.9
		C482.6,323.6,480.6,327.2,477.4,329.6z M475.8,302.4c-0.6-1.5-1.5-2.7-2.5-3.8c-1.1-1.1-2.3-1.9-3.8-2.5c-1.4-0.6-3-0.9-4.8-0.9
		c-1.8,0-3.4,0.3-4.9,0.9c-1.4,0.6-2.7,1.5-3.7,2.6c-1,1.1-1.9,2.4-2.5,3.8c-0.6,1.4-1,3-1.1,4.6h24.3
		C476.8,305.5,476.4,303.9,475.8,302.4z"/>
</g>
</svg>
