<?xml version="1.0" encoding="UTF-8"?>
<svg width="73px" height="131px" viewBox="0 0 73 131" version="1.1" xmlns="http://www.w3.org/2000/svg" xmlns:xlink="http://www.w3.org/1999/xlink">
    <!-- Generator: Sketch 62 (91390) - https://sketch.com -->
    <title>Home_Office</title>
    <desc>Created with Sketch.</desc>
    <g id="Page-1" stroke="none" stroke-width="1" fill="none" fill-rule="evenodd">
        <g id="Home_Office" fill="#000000">
            <g id="Layer_1">
                <path d="M38.2,9.4 L38.2,13.5 C40.3,13.6 41.8,14 42.6,14.2 C42.2,11.8 40.5,10 38.2,9.4" id="Shape"></path>
                <path d="M35.7,6.5 L35.7,6.5 C35.7,7.9 35.4,8.8 35,9.4 C35,9.4 35.7,9.2 36.6,9.2 C37.2,9.2 38.1,9.4 38.2,9.4 C37.8,8.8 37.5,7.9 37.5,6.5 L37.5,6.5 C40.6,6.5 41.3,7.9 41.3,9.1 L41.9,9.1 L41.9,5.6 L41.9,2.1 L41.3,2.1 C41.3,3.3 40.5,4.7 37.5,4.7 C37.5,1.6 38.9,0.9 40.1,0.9 L40.1,0.3 L36.6,0.3 L33.1,0.3 L33.1,0.9 C34.3,0.9 35.7,1.7 35.7,4.7 C32.6,4.7 31.9,3.3 31.9,2.1 L31.3,2.1 L31.3,5.6 L31.3,9.1 L31.9,9.1 C31.9,7.9 32.6,6.5 35.7,6.5" id="Shape"></path>
                <path d="M35,9.4 C32.8,10 31.1,11.9 30.6,14.2 C31.4,14 32.9,13.6 35,13.5 L35,9.4 Z" id="Shape"></path>
                <path d="M38.8,110.9 C38.8,112.3 40,113.5 41.4,113.5 C42.8,113.5 44,112.3 44,110.9 C44,109.5 42.8,108.3 41.4,108.3 C39.9,108.4 38.8,109.5 38.8,110.9 M40.1,110.9 C40.1,110.2 40.7,109.6 41.4,109.6 C42.1,109.6 42.7,110.2 42.7,110.9 C42.7,111.6 42.1,112.2 41.4,112.2 C40.6,112.2 40.1,111.7 40.1,110.9" id="Shape"></path>
                <path d="M34.1,77 C34.1,75.7 33.1,74.7 31.8,74.7 L31.4,74.7 L18.8,74.7 C17.7,74.7 16.8,75.6 16.8,76.7 C16.8,77.5 17.4,78.1 18.2,78.1 C19,78.1 19.6,77.5 19.6,76.6 C19.9,76.9 20.2,77.1 20.6,77.3 C20.4,78.1 20.2,79.2 20.1,80.5 C19.9,80.2 19.6,80.1 19.3,80.1 C18.8,80.1 18.3,80.5 18.3,81.1 C18.3,81.6 18.7,82.1 19.3,82.1 C19.6,82.1 19.9,81.9 20.1,81.7 C20.1,82.4 20.1,83.1 20.2,83.9 C20,83.8 19.8,83.7 19.6,83.7 C19.1,83.7 18.6,84.1 18.6,84.7 C18.6,85.2 19,85.7 19.6,85.7 C19.9,85.7 20.3,85.5 20.4,85.2 C20.4,85.3 20.4,85.4 20.5,85.5 C20.7,86.1 20.9,86.7 21.1,87.2 C21,87.1 20.8,87.1 20.6,87.1 C20.1,87.1 19.6,87.5 19.6,88.1 C19.6,88.6 20,89.1 20.6,89.1 C21.1,89.1 21.5,88.7 21.6,88.3 C21.9,88.9 22.3,89.5 22.8,90.1 L22.6,90.1 C22.1,90.1 21.6,90.5 21.6,91.1 C21.6,91.7 22,92.1 22.6,92.1 C23.1,92.1 23.6,91.7 23.6,91.1 C23.6,91.1 23.6,91.1 23.6,91 C25.1,92.5 27,93.8 29.3,94.7 L28.9,97.7 C28.9,97.7 29.8,98.1 31.2,98.5 C32.6,98.9 33.9,99.1 33.9,99.1 L34.1,77 Z M22.3,78.2 C22.3,78.2 22.4,78.2 22.5,78.3 L29.6,92.7 C20.8,88.7 21.7,81.5 22.3,78.2 L22.3,78.2 Z M29.8,91.6 L23.3,78.5 C23.7,78.6 24.1,78.6 24.5,78.6 L30.1,89.9 L29.8,91.6 Z M30.2,88.7 L25.2,78.5 C25.6,78.5 25.9,78.4 26.2,78.3 L30.4,86.9 L30.2,88.7 Z M30.6,85.8 L26.8,78.2 C27.1,78.1 27.4,78 27.7,77.8 L30.8,84 L30.6,85.8 Z M31,82.9 L28.3,77.5 C28.6,77.3 28.9,77.1 29.1,76.9 L31.2,81.1 L31,82.9 Z M31.7,77.9 L31.4,80.1 L29.7,76.6 C29.9,76.5 30.1,76.5 30.3,76.5 C31.1,76.4 31.8,77.1 31.7,77.9 L31.7,77.9 Z" id="Shape"></path>
                <path d="M25.5,19.1 C25.5,18.3 26.2,17.6 27,17.6 C27.8,17.6 28.5,18.3 28.5,19.1 C28.5,20 27.8,20.6 27,20.6 C26.2,20.7 25.5,20 25.5,19.1" id="Shape"></path>
                <path d="M5.6,29.7 C5.6,28.9 6.3,28.2 7.1,28.2 C8,28.2 8.6,28.9 8.6,29.7 C8.6,30.6 7.9,31.2 7.1,31.2 C6.3,31.2 5.6,30.5 5.6,29.7" id="Shape"></path>
                <path d="M4.8,25.8 C4.8,24.9 5.5,24.3 6.3,24.3 C7.1,24.3 7.8,25 7.8,25.8 C7.8,26.6 7.1,27.3 6.3,27.3 C5.5,27.4 4.8,26.7 4.8,25.8" id="Shape"></path>
                <path d="M5.1,21.9 C5.1,21.1 5.8,20.4 6.6,20.4 C7.5,20.4 8.1,21.1 8.1,21.9 C8.1,22.7 7.4,23.4 6.6,23.4 C5.8,23.4 5.1,22.7 5.1,21.9" id="Shape"></path>
                <path d="M7.2,18.5 C7.2,17.7 7.9,17 8.7,17 C9.6,17 10.2,17.7 10.2,18.5 C10.2,19.3 9.5,20 8.7,20 C7.9,20.1 7.2,19.4 7.2,18.5" id="Shape"></path>
                <path d="M10.4,16.2 C10.4,15.4 11.1,14.7 11.9,14.7 C12.7,14.7 13.4,15.4 13.4,16.2 C13.4,17.1 12.7,17.7 11.9,17.7 C11.1,17.8 10.4,17.1 10.4,16.2" id="Shape"></path>
                <path d="M14.3,15.5 C14.3,14.7 15,14 15.8,14 C16.7,14 17.3,14.7 17.3,15.5 C17.3,16.3 16.6,17 15.8,17 C15,17.1 14.3,16.4 14.3,15.5" id="Shape"></path>
                <path d="M18.1,16.3 C18.1,15.5 18.8,14.8 19.6,14.8 C20.5,14.8 21.1,15.5 21.1,16.3 C21.1,17.1 20.4,17.8 19.6,17.8 C18.8,17.9 18.1,17.2 18.1,16.3" id="Shape"></path>
                <path d="M21.8,17.8 C21.8,17 22.5,16.3 23.3,16.3 C24.2,16.3 24.8,17 24.8,17.8 C24.8,18.7 24.1,19.3 23.3,19.3 C22.5,19.3 21.8,18.6 21.8,17.8" id="Shape"></path>
                <path d="M47.7,19.1 C47.7,18.3 47,17.6 46.2,17.6 C45.4,17.6 44.7,18.3 44.7,19.1 C44.7,20 45.4,20.6 46.2,20.6 C47,20.7 47.7,20 47.7,19.1" id="Shape"></path>
                <path d="M67.6,29.7 C67.6,28.9 66.9,28.2 66.1,28.2 C65.2,28.2 64.6,28.9 64.6,29.7 C64.6,30.6 65.3,31.2 66.1,31.2 C66.9,31.2 67.6,30.5 67.6,29.7" id="Shape"></path>
                <path d="M68.4,25.8 C68.4,24.9 67.7,24.3 66.9,24.3 C66.1,24.3 65.4,25 65.4,25.8 C65.4,26.6 66.1,27.3 66.9,27.3 C67.7,27.4 68.4,26.7 68.4,25.8" id="Shape"></path>
                <path d="M68,21.9 C68,21.1 67.3,20.4 66.5,20.4 C65.6,20.4 65,21.1 65,21.9 C65,22.7 65.7,23.4 66.5,23.4 C67.4,23.4 68,22.7 68,21.9" id="Shape"></path>
                <path d="M66,18.5 C66,17.7 65.3,17 64.5,17 C63.7,17 63,17.7 63,18.5 C63,19.3 63.7,20 64.5,20 C65.3,20.1 66,19.4 66,18.5" id="Shape"></path>
                <path d="M62.8,16.2 C62.8,15.4 62.1,14.7 61.3,14.7 C60.4,14.7 59.8,15.4 59.8,16.2 C59.8,17.1 60.5,17.7 61.3,17.7 C62.1,17.8 62.8,17.1 62.8,16.2" id="Shape"></path>
                <path d="M58.9,15.5 C58.9,14.7 58.2,14 57.4,14 C56.5,14 55.9,14.7 55.9,15.5 C55.9,16.3 56.6,17 57.4,17 C58.2,17.1 58.9,16.4 58.9,15.5" id="Shape"></path>
                <path d="M55,16.3 C55,15.5 54.3,14.8 53.5,14.8 C52.6,14.8 52,15.5 52,16.3 C52,17.1 52.7,17.8 53.5,17.8 C54.4,17.9 55,17.2 55,16.3" id="Shape"></path>
                <path d="M51.3,17.8 C51.3,17 50.6,16.3 49.8,16.3 C49,16.3 48.3,17 48.3,17.8 C48.3,18.7 49,19.3 49.8,19.3 C50.7,19.3 51.3,18.6 51.3,17.8" id="Shape"></path>
                <path d="M49.8,41.2 C49.8,40.3 49,39.5 48.1,39.5 C47.2,39.5 46.4,40.3 46.4,41.2 C46.4,42.1 47.2,42.9 48.1,42.9 C49,42.9 49.8,42.1 49.8,41.2" id="Shape"></path>
                <path d="M38.7,51.4 L38.7,70.8 L55.9,70.8 L55.9,51.4 L38.7,51.4 Z M55.4,70.3 L39.2,70.3 L39.2,52 L45.5,52 L47.9,52 L55.3,52 L55.4,70.3 L55.4,70.3 Z" id="Shape"></path>
                <path d="M40.9,52.6 L40.9,52.6 L39.9,52.6 L39.9,68.6 L39.9,69.6 L40.9,69.6 L53.7,69.6 L54.7,69.6 L54.7,68.6 L54.7,53.6 L54.7,52.6 L53.7,52.6 L48.2,52.6 L45.3,52.6 L40.9,52.6 Z M53.7,53.1 L53.7,53.6 L54.2,53.6 L54.2,68.6 L53.7,68.6 L53.7,69.1 L40.9,69.1 L40.9,68.6 L40.4,68.6 L40.4,53.6 L40.9,53.6 L40.9,53.1 L53.7,53.1 Z" id="Shape"></path>
                <path d="M53,57.5 L52.2,58.3 L52.2,58.3 C52.2,58.3 52.1,58.3 52.1,58.4 L52.1,58.4 L50.6,59.8 C50.1,60.2 50,60.9 50.4,61.4 L51.3,62.6 C51.4,62.7 51.4,62.8 51.4,63 C51.4,63.1 51.3,63.3 51.2,63.3 C51.1,63.4 51,63.4 50.8,63.4 C50.7,63.4 50.5,63.3 50.5,63.2 C50.5,63.2 49.6,62 49.2,61.4 L49.2,59.7 L51.3,57.7 L51.3,56 L50.6,55.3 L51.5,54.4 L47.8,54.4 L46.9,55.3 L46.9,56.3 C47,56.2 47.2,56.2 47.3,56.2 C47.7,56.2 48.1,56.6 48.1,57 C48.1,57.4 47.7,57.8 47.3,57.8 C47.2,57.8 47,57.8 46.9,57.7 L46.9,58.9 L45.6,58.9 L44.1,56.8 C44.3,56.6 44.4,56.3 44.4,56 C44.4,55.4 43.9,55 43.4,55 C43.2,55 43,55.1 42.8,55.2 L42.8,55.8 L42.8,56.8 L42.8,56.9 L42.9,56.9 L44.3,58.9 L45,59.9 L46.3,59.9 L46.7,59.9 L45.8,60.8 L44,60.8 C43.9,60.4 43.5,60.2 43.1,60.2 C42.7,60.2 42.3,60.5 42.2,60.8 C42.2,60.9 42.1,61 42.1,61.2 C42.1,61.4 42.2,61.7 42.3,61.8 L43.9,61.8 L46.4,61.8 L47.1,62.8 L45.5,62.8 L44.3,62.8 L44.3,62.8 L45.4,64.3 L46,65.1 L44.6,65.1 C44.5,64.7 44.1,64.4 43.6,64.4 C43.2,64.4 42.8,64.7 42.6,65.1 L42.6,65.4 C42.6,65.7 42.7,65.9 42.9,66.1 L44.4,66.1 L46.8,66.1 L48,66.1 L47.3,65.1 L46.7,64.3 L48.3,64.3 L48.9,65.1 L49.6,66.1 L51.7,66.1 L52,66.1 L52,67.2 L51.7,67.2 C51.6,66.8 51.2,66.5 50.7,66.5 C50.2,66.5 49.9,66.8 49.7,67.2 L49.7,67.5 C49.7,67.8 49.8,68 50,68.2 L53,68.2 L53,66 L53,65 L52,65 L51,65 L50,63.7 C50.2,63.9 50.4,64.1 50.7,64.1 C51,64.1 51.3,64.1 51.6,63.9 C51.9,63.7 52,63.4 52.1,63.1 C52.1,62.8 52.1,62.5 51.9,62.2 L51,61 C50.8,60.8 50.9,60.4 51.1,60.3 C51.1,60.3 51.3,60.1 51.5,59.9 C51.9,60.2 52.4,60.2 52.8,59.9 C53,59.7 53.1,59.5 53.1,59.2 L53.1,59.2 L53.1,59.2 L53,57.5 Z" id="Shape"></path>
                <polygon id="Shape" points="34.3 41.2 36.6 38.9 38.9 41.2 36.6 43.5"></polygon>
                <path d="M23.4,41.2 C23.4,40.3 24.2,39.5 25.1,39.5 C26,39.5 26.8,40.3 26.8,41.2 C26.8,42.1 26,42.9 25.1,42.9 C24.2,42.9 23.4,42.1 23.4,41.2" id="Shape"></path>
                <path d="M54.7,84.8 L54.7,84.8 L54.7,84.8 L54.7,84.3 C54.7,83.6 54.2,83.1 53.5,83.1 L49.2,83.1 C49.2,82.6 48.7,82.1 48.2,82.1 C47.9,82.1 47.7,82.2 47.5,82.4 L46.2,83.7 L47.5,83.7 L47.5,83.7 L49,83.7 L53.5,83.7 C53.8,83.7 54,83.9 54,84.2 C54,84.5 53.8,84.7 53.5,84.7 L53.5,84.7 L50.6,84.7 L50.6,84.7 L45,84.7 L45,83.5 L46.5,82 L40.6,82 L42.1,83.5 L42.1,85.7 L39.7,83.8 C39.9,83.6 40,83.3 40,83 C40,82.4 39.5,82 39,82 C38.8,82 38.5,82.1 38.3,82.2 L38.3,83.7 L38.3,83.7 L38.3,84 L42,87 L40.3,87.5 C40.2,87.1 39.8,86.8 39.3,86.8 C38.7,86.8 38.3,87.3 38.3,87.8 C38.3,88 38.4,88.3 38.5,88.4 L39.7,88.4 L40.6,88.4 L49.8,85.5 L49.8,86.9 L48.6,87.4 C48.5,86.9 48.1,86.6 47.6,86.6 C47,86.6 46.6,87.1 46.6,87.6 C46.6,87.8 46.7,88.1 46.8,88.2 L47.9,88.2 L49.1,88.2 L50.5,87.5 L51.4,87.1 L51,86.2 L51,86 L54.4,86 C54.4,86.1 54.3,86.3 54.3,86.4 C54.2,86.6 54.1,86.9 54,87.1 C53.8,86.9 53.5,86.8 53.2,86.8 C52.6,86.8 52.2,87.3 52.2,87.8 C52.2,88 52.3,88.3 52.4,88.4 L54,88.4 L54.5,88.4 C54.8,87.8 55,87.1 55.1,86.7 C55.4,85.8 55.6,85 55.6,84.7 C55.7,84.8 54.7,84.8 54.7,84.8 L54.7,84.8 Z M43.6,84.9 L42.6,83.9 L44.6,83.9 L43.6,84.9 Z" id="Shape"></path>
                <path d="M54.8,77.4 C54.9,77.2 54.9,77.1 54.9,76.9 C54.9,76.2 54.4,75.7 53.7,75.7 L49.2,75.7 C49.2,75.2 48.7,74.7 48.2,74.7 C47.9,74.7 47.7,74.8 47.5,75 L46.2,76.3 L47.5,76.3 L47.5,76.3 L49,76.3 L53.8,76.3 C54.1,76.3 54.3,76.5 54.3,76.8 C54.3,77.1 54.1,77.3 53.8,77.3 L50.7,77.3 L45,77.3 L45,76.1 L46.5,74.6 L40.6,74.6 L42.1,76.1 L42.1,78.3 L39.7,76.4 C39.9,76.2 40,75.9 40,75.7 C40,75.1 39.5,74.7 39,74.7 C38.8,74.7 38.5,74.8 38.3,74.9 L38.3,76.4 L38.3,76.7 L41.9,79.6 L40.2,80.1 C40.1,79.7 39.7,79.4 39.2,79.4 C38.6,79.4 38.2,79.9 38.2,80.4 C38.2,80.6 38.3,80.9 38.4,81.1 L40,81.1 L40.5,81.1 L49.7,78.2 L49.7,79.7 L48.5,80.1 C48.4,79.7 48,79.4 47.5,79.4 C46.9,79.4 46.5,79.9 46.5,80.4 C46.5,80.6 46.6,80.9 46.7,81.1 L48.3,81.1 L49,81.1 L51.3,80.4 L52.4,80 L51.5,79.2 L50.9,78.6 L55,78.6 L55,79.7 C54.8,79.5 54.5,79.3 54.2,79.3 C53.6,79.3 53.2,79.8 53.2,80.3 C53.2,80.5 53.3,80.8 53.4,81 L55,81 L56,81 L56,78.5 L56,78 L56,77.3 L54.8,77.4 L54.8,77.4 Z M43.6,77.5 L42.6,76.5 L44.6,76.5 L43.6,77.5 Z" id="Shape"></path>
                <path d="M51,90.4 L49.2,90.4 C49.2,89.9 48.7,89.4 48.2,89.4 C47.9,89.4 47.7,89.5 47.5,89.7 L46.2,91 L47.5,91 L47.5,91 L49.1,91 L51.1,91 C51.4,91 51.6,91.2 51.6,91.5 C51.6,91.8 51.4,92 51.1,92 L48.2,92 L45.2,92 L45.2,91 L46.7,89.5 L40.8,89.5 L42.3,91 L42.3,93.5 L39.9,91.3 C40.1,91.1 40.3,90.8 40.3,90.5 C40.3,89.9 39.8,89.5 39.3,89.5 C39.1,89.5 38.8,89.6 38.6,89.7 L38.6,90.8 L38.6,91.4 L42.4,94.9 L42.6,94.7 L40.2,97.6 C40,97.4 39.7,97.4 39.5,97.4 C38.9,97.5 38.5,98 38.6,98.5 C38.6,98.7 38.7,98.9 38.8,99.1 C39.2,99.1 39.7,99 40.5,98.9 L43.2,95.7 C43.6,95.6 43.9,95.4 44.3,95.3 L45.4,96.3 C45.2,96.4 45,96.5 44.8,96.6 C44.5,96.4 44.1,96.3 43.8,96.4 C43.3,96.6 43,97.2 43.2,97.7 C43.3,97.9 43.4,98 43.5,98.1 C43.5,98.1 43.9,98 44.3,97.8 C44.7,97.6 45.1,97.5 45.1,97.5 L45.1,97.5 C45.6,97.3 46,97.1 46.4,96.9 L46.4,95.7 L46.4,94.2 C47.1,93.8 47.7,93.4 48.2,92.9 L49.2,93.8 C49,94 48.8,94.1 48.5,94.3 C48.2,94.1 47.8,94.1 47.5,94.3 C47.3,94.4 47.1,94.7 47,94.9 L47,95.3 C47,95.4 47.1,95.6 47.1,95.7 C47.2,95.9 47.4,96 47.6,96.1 C48.1,95.8 48.5,95.5 49,95.2 C49.3,95 49.7,94.7 50,94.4 C50.1,94.3 50.2,94.2 50.3,94.1 L50.3,93.1 L50.3,92.8 L51,92.8 C51.7,92.8 52.2,92.3 52.2,91.6 C52.2,91 51.7,90.4 51,90.4 L51,90.4 Z M43.6,92.3 L42.6,91.3 L44.6,91.3 L43.6,92.3 Z" id="Shape"></path>
                <path d="M33.4,67.7 C33.5,67.5 33.5,67.4 33.5,67.2 C33.5,66.5 33,66 32.3,66 L27.8,66 C27.8,65.5 27.3,65 26.8,65 C26.5,65 26.3,65.1 26.1,65.3 L24.8,66.6 L26,66.6 L26,66.6 L27.6,66.6 L32.4,66.6 C32.7,66.6 32.9,66.8 32.9,67.1 C32.9,67.4 32.7,67.6 32.4,67.6 L29.3,67.6 L29.3,67.6 L23.7,67.6 L23.7,66.4 L25.2,64.9 L19.3,64.9 L20.8,66.4 L20.8,68.6 L18.4,66.7 C18.6,66.5 18.7,66.2 18.7,66 C18.7,65.4 18.2,65 17.7,65 C17.4,65 17.2,65.1 17,65.2 L17,66.7 L17,67 L20.6,69.9 L18.9,70.4 C18.8,70 18.4,69.7 17.9,69.7 C17.3,69.7 16.9,70.2 16.9,70.7 C16.9,71 17,71.2 17.1,71.4 L18.7,71.4 L19.2,71.4 L28.4,68.5 L28.4,70 L27.2,70.4 C27.1,70 26.7,69.7 26.2,69.7 C25.6,69.7 25.2,70.2 25.2,70.7 C25.2,71 25.3,71.2 25.4,71.4 L27,71.4 L27.5,71.4 L29.8,70.7 L30.9,70.4 L30,69.6 L29.4,69 L33.5,69 L33.5,70.1 C33.3,69.9 33,69.7 32.7,69.7 C32.1,69.7 31.7,70.2 31.7,70.7 C31.7,71 31.8,71.2 31.9,71.4 L33.5,71.4 L34.5,71.4 L34.5,69 L34.5,67.7 L33.4,67.7 Z M22.1,67.8 L21.1,66.8 L23.1,66.8 L22.1,67.8 Z" id="Shape"></path>
                <path d="M33.4,60.6 C33.5,60.4 33.5,60.3 33.5,60.1 C33.5,59.4 33,58.9 32.3,58.9 L27.8,58.9 C27.8,58.4 27.3,57.9 26.8,57.9 C26.5,57.9 26.3,58 26.1,58.2 L24.8,59.5 L26,59.5 L26,59.5 L27.5,59.5 L32.3,59.5 C32.6,59.5 32.8,59.7 32.8,60 C32.8,60.3 32.6,60.5 32.3,60.5 L29.2,60.5 L23.6,60.5 L23.6,59.3 L25.1,57.8 L19.2,57.8 L20.7,59.3 L20.7,61.5 L18.3,59.6 C18.5,59.4 18.6,59.1 18.6,58.9 C18.6,58.3 18.1,57.9 17.6,57.9 C17.3,57.9 17.1,58 16.9,58.1 L16.9,59.6 L16.9,59.9 L20.5,62.8 L18.8,63.3 C18.7,62.9 18.3,62.6 17.8,62.6 C17.2,62.6 16.8,63.1 16.8,63.6 C16.8,63.8 16.9,64.1 17,64.3 L18.6,64.3 L19.1,64.3 L28.3,61.4 L28.3,62.9 L27.1,63.3 C27,62.9 26.6,62.6 26.1,62.6 C25.5,62.6 25.1,63.1 25.1,63.6 C25.1,63.8 25.2,64.1 25.3,64.3 L27,64.3 L27.5,64.3 L29.8,63.6 L30.9,63.2 L30,62.4 L29.4,61.8 L33.5,61.8 L33.5,62.9 C33.3,62.7 33,62.5 32.7,62.5 C32.1,62.5 31.7,63 31.7,63.5 C31.7,63.7 31.8,64 31.9,64.2 L33.5,64.2 L34.5,64.2 L34.5,61.7 L34.5,60.4 L33.4,60.4 L33.4,60.6 L33.4,60.6 Z M22.1,60.7 L21.1,59.7 L23.1,59.7 L22.1,60.7 Z" id="Shape"></path>
                <path d="M33.4,53.4 C33.5,53.2 33.5,53.1 33.5,52.9 C33.5,52.2 33,51.7 32.3,51.7 L27.8,51.7 C27.8,51.2 27.3,50.7 26.8,50.7 C26.5,50.7 26.3,50.8 26.1,51 L24.8,52.3 L26,52.3 L26,52.3 L27.5,52.3 L32.3,52.3 C32.6,52.3 32.8,52.5 32.8,52.8 C32.8,53.1 32.6,53.3 32.3,53.3 L32.3,53.3 L29.2,53.3 L29.2,53.3 L23.6,53.3 L23.6,52.1 L25.1,50.6 L19.2,50.6 L20.7,52.1 L20.7,54.3 L18.3,52.4 C18.5,52.2 18.6,51.9 18.6,51.7 C18.6,51.1 18.1,50.7 17.6,50.7 C17.3,50.7 17.1,50.8 16.9,50.9 L16.9,52.4 L16.9,52.7 L20.5,55.6 L18.8,56.1 C18.7,55.7 18.3,55.4 17.8,55.4 C17.2,55.4 16.8,55.9 16.8,56.4 C16.8,56.7 16.9,56.9 17,57.1 L18.6,57.1 L19.1,57.1 L28.3,54.2 L28.3,55.7 L27.1,56.1 C27,55.7 26.6,55.4 26.1,55.4 C25.5,55.4 25.1,55.9 25.1,56.4 C25.1,56.7 25.2,56.9 25.3,57.1 L26.9,57.1 L27.4,57.1 L29.7,56.4 L30.8,56.1 L29.9,55.3 L29.3,54.7 L33.4,54.7 L33.4,55.8 C33.2,55.6 32.9,55.4 32.6,55.4 C32,55.4 31.6,55.9 31.6,56.4 C31.6,56.7 31.7,56.9 31.8,57.1 L33.4,57.1 L34.4,57.1 L34.4,54.6 L34.4,53.3 L33.4,53.4 L33.4,53.4 Z M22.1,53.6 L21.1,52.6 L23.1,52.6 L22.1,53.6 Z" id="Shape"></path>
                <path d="M64.7,71.7 L64.7,71.7 C65.4,71.5 65.7,70.8 65.5,70.2 C65.4,69.9 65.2,69.6 64.9,69.5 C64.6,69.3 64.3,69.3 64,69.4 C63.7,69.5 63.4,69.7 63.3,70 C63.1,70.3 63.1,70.6 63.2,70.9 C63.4,71.5 64.1,71.8 64.7,71.7" id="Shape"></path>
                <path d="M61.2,74.4 L61.4,75.5 L65.4,74.9 C65.5,74.9 69.4,76.9 69.4,76.9 L69.2,75.5 C69.2,75.5 66.6,74.2 66.4,74.1 C66.6,73.9 68.7,72 68.7,72 L68.5,70.6 L68.4,70.7 C68.4,70.7 65.3,73.6 65.2,73.7 C65.2,73.8 61.2,74.4 61.2,74.4" id="Shape"></path>
                <path d="M64.3,78.3 C64.3,78.6 64.4,78.9 64.7,79.2 C64.9,79.4 65.2,79.6 65.6,79.5 C65.9,79.5 66.2,79.4 66.5,79.1 C66.7,78.9 66.8,78.6 66.8,78.2 C66.8,77.9 66.7,77.6 66.4,77.3 C66.2,77.1 65.9,76.9 65.5,76.9 C64.8,77 64.3,77.6 64.3,78.3" id="Shape"></path>
                <path d="M61.5,80.3 L61.4,81.4 C61.4,81.4 64.5,81.8 64.7,81.9 C64.7,82 64.6,82.8 64.6,82.8 L64.6,83.3 C64.6,83.8 64.7,84.3 65,84.7 C65.3,85.1 65.8,85.4 66.5,85.5 C67.9,85.7 68.9,85 69.1,83.6 L69.4,81.4 L61.5,80.3 L61.5,80.3 Z M67.9,82.3 C67.9,82.4 67.8,83.4 67.8,83.4 C67.7,84.4 66.9,84.4 66.6,84.3 C66,84.2 65.6,83.8 65.6,83.3 L65.6,83.1 C65.6,83.1 65.7,82.3 65.7,82.1 C65.9,82 67.8,82.2 67.9,82.3 L67.9,82.3 Z" id="Shape"></path>
                <path d="M60.8,84.8 L59.5,88.6 L60.6,89 C60.6,89 61.5,86.3 61.5,86.2 C61.6,86.3 63.4,86.8 63.6,86.9 C63.5,87.1 62.7,89.5 62.7,89.5 L63.8,89.9 C63.8,89.9 64.6,87.4 64.7,87.3 C64.8,87.4 66.6,87.9 66.7,88 C66.6,88.2 65.8,90.7 65.8,90.7 L66.9,91.1 L68.2,87.3 L60.8,84.8 L60.8,84.8 Z" id="Shape"></path>
                <path d="M59.3,89.3 L58.8,90.1 C58.8,90.1 63.2,92.9 63.6,93.2 C63.1,93.2 56.5,93.8 56.5,93.8 L56,94.6 L62.6,98.8 L63.2,97.9 C63.2,97.9 58.8,95.1 58.4,94.8 C58.9,94.8 65.6,94.1 65.6,94.1 L66.1,93.3 L59.3,89.3 L59.3,89.3 Z" id="Shape"></path>
                <path d="M56.7,98.7 C55.9,98.8 55.2,99 54.7,98.5 C54.5,98.3 54.3,97.7 54.8,97.2 C55.3,96.7 56,96.6 56.8,96.7 L57.1,96.7 L55.9,95.5 L55.9,95.5 C55.1,95.6 54.5,95.8 54,96.4 C53.6,96.8 53.4,97.3 53.4,97.8 C53.4,98.4 53.6,98.9 54.1,99.4 C55.1,100.4 56.2,100.2 57.2,100 C57.9,99.8 58.5,99.7 59,100.1 C59.1,100.3 59.2,100.4 59.2,100.6 C59.2,100.9 59.1,101.1 58.8,101.4 C58.4,101.8 57.9,102 57.2,101.9 L57,101.9 L58.1,103 L58.1,103 C58.7,102.9 59.2,102.7 59.6,102.3 C60.1,101.8 60.3,101.3 60.3,100.8 C60.3,100.3 60.1,99.7 59.6,99.3 C58.7,98.3 57.6,98.5 56.7,98.7" id="Shape"></path>
                <path d="M51.9,98.3 L48.6,100.5 L49.2,101.5 C49.2,101.5 51.5,99.9 51.7,99.8 C51.8,99.9 52.8,101.5 52.9,101.6 C52.8,101.7 50.6,103.2 50.6,103.2 L51.2,104.2 C51.2,104.2 53.4,102.7 53.5,102.7 C53.6,102.8 54.6,104.3 54.7,104.5 C54.6,104.6 52.3,106.1 52.3,106.1 L52.9,107.1 L56.2,104.9 L51.9,98.3 L51.9,98.3 Z" id="Shape"></path>
                <path d="M23,103.5 C22.9,103.4 20,101.6 19.9,101.5 C20,101.4 21.7,98.7 21.7,98.7 L20.7,98.1 L20.7,98.2 L16.6,104.7 L17.6,105.3 C17.6,105.3 19.3,102.6 19.4,102.5 C19.5,102.6 22.4,104.4 22.5,104.5 C22.4,104.6 20.7,107.3 20.7,107.3 L21.7,107.9 L25.9,101.3 L24.9,100.7 C24.8,100.7 23.1,103.3 23,103.5" id="Shape"></path>
                <path d="M19,97.7 C19.1,96.7 18.7,95.8 18.1,95.1 C16.4,93.2 14.1,93.6 12.6,94.9 C11.7,95.7 11.2,96.7 11.2,97.7 C11.1,98.7 11.5,99.6 12.2,100.4 C13.6,102 16,102.1 17.7,100.6 C18.4,99.8 18.9,98.8 19,97.7 M17.8,97.7 C17.8,98.4 17.4,99.2 16.8,99.7 C15.6,100.8 14,100.8 13,99.6 C12.5,99.1 12.3,98.4 12.4,97.8 C12.4,97.1 12.8,96.4 13.4,95.8 C14,95.3 14.8,95 15.5,95 C16.2,95 16.8,95.3 17.2,95.8 C17.6,96.4 17.8,97 17.8,97.7" id="Shape"></path>
                <path d="M14.9,91.2 C14.9,91.2 10.1,93.4 9.7,93.6 C9.9,93.2 13,87.1 13,87.1 L12.6,86.2 L12.5,86.2 L5.5,89.5 L6,90.5 C6,90.5 10.8,88.3 11.2,88.1 C11,88.5 7.9,94.6 7.9,94.6 L8.3,95.4 L15.3,92.1 L14.9,91.2 Z" id="Shape"></path>
                <polygon id="Shape" points="12.3 84.1 12.2 84.2 4.7 86 5 87.2 12.5 85.3"></polygon>
                <path d="M8.7,81.6 C8.4,81.4 8.1,81.3 7.8,81.4 C7.5,81.4 7.2,81.6 7,81.9 C6.8,82.2 6.7,82.5 6.8,82.8 C6.8,83.1 7,83.4 7.3,83.6 C7.6,83.8 7.9,83.9 8.2,83.8 C8.9,83.7 9.3,83.1 9.2,82.4 C9.1,82 8.9,81.8 8.7,81.6" id="Shape"></path>
                <path d="M8.2,78.6 C8.7,77.9 9.1,77.3 9.8,77.3 C10,77.3 10.2,77.4 10.4,77.6 C10.6,77.8 10.7,78.1 10.7,78.4 C10.7,79 10.3,79.6 9.6,80.1 L9.4,80.3 L11.1,80.3 L11.1,80.3 C11.6,79.7 11.8,79.1 11.8,78.3 C11.8,77.8 11.6,77.3 11.3,76.9 C10.9,76.5 10.3,76.3 9.7,76.3 C8.3,76.3 7.7,77.2 7.1,78.1 C6.7,78.7 6.4,79.3 5.8,79.3 C5.6,79.3 5.4,79.2 5.3,79.1 C5.1,78.9 5,78.6 5,78.3 C5,77.8 5.3,77.2 5.8,76.8 L6,76.7 L4.5,76.7 L4.5,76.7 C4.1,77.2 3.9,77.7 3.9,78.3 C3.9,79 4.1,79.5 4.5,79.9 C4.9,80.3 5.4,80.5 6,80.5 C7,80.3 7.6,79.4 8.2,78.6" id="Shape"></path>
                <path d="M7.7,75.3 C8.8,75.6 9.9,75.4 10.8,74.9 C11.6,74.4 12.2,73.6 12.4,72.6 C12.6,71.6 12.5,70.6 12,69.8 C11.5,68.9 10.5,68.2 9.4,68 C7.2,67.4 5.1,68.6 4.6,70.7 C4.5,71 4.5,71.3 4.5,71.6 C4.5,72.3 4.7,72.9 5,73.4 C5.7,74.4 6.6,75.1 7.7,75.3 M5.9,71 C6.1,70.3 6.5,69.8 7,69.4 C7.6,69 8.4,68.9 9.2,69.1 C10,69.3 10.7,69.8 11,70.4 C11.3,71 11.4,71.6 11.3,72.3 C10.9,73.7 9.5,74.5 7.9,74.1 C6.4,73.8 5.5,72.5 5.9,71" id="Shape"></path>
                <path d="M72.5,78.6 C72.5,69 68.8,60 62,53.2 C61.2,52.4 60.4,51.7 59.5,50.9 L59.5,49.5 C60.9,49.4 62.1,48.2 62.1,46.8 C62.1,45.3 60.9,44.1 59.4,44.1 L59.2,44.1 L61.8,42.9 L60.8,40.7 L64.7,31.6 L63,30.9 L59,40.2 L56.9,41.2 L58.3,44.2 L46.8,44.2 L26.4,44.2 L14.9,44.2 L16.3,41.2 L14.1,40.2 L10.1,30.9 L8.4,31.6 L12.3,40.7 L11.3,42.9 L13.9,44.1 C13.9,44.1 13.9,44.1 13.8,44.1 C12.3,44.1 11.1,45.3 11.1,46.8 C11.1,48.2 12.2,49.4 13.6,49.5 L13.6,50.9 C12.8,51.6 11.9,52.4 11.1,53.2 C4.3,60 0.6,69 0.6,78.6 C0.6,86 2.8,93.1 7.1,99.2 C11.3,105.1 17,109.6 23.8,112.1 C23.8,112.1 24.2,112.2 24.8,112.5 C24.9,113.5 25.5,114.4 26.4,114.7 C27.4,115.1 28.5,114.7 29.1,114 L29.2,114 L29.2,124.2 C29.2,128 32.4,131 36.4,131 C40.4,131 43.6,127.9 43.6,124.2 L43.6,117.4 L61.2,109 C61.8,108.8 62.3,108.5 62.8,108.1 C64.2,106.8 64.4,104.8 63.5,102.2 C65.1,100.4 66.5,98.5 67.6,96.4 C70.8,91 72.5,84.9 72.5,78.6 L72.5,78.6 Z M53.8,45.8 L59,46.9 L53.8,48 L53.8,45.8 Z M37.1,100.4 L37.1,73.4 L57.7,73.4 L57.7,78.5 C57.7,83.5 56.8,86.9 55.5,89.4 C54.4,91.2 53.1,92.9 51.5,94.4 C51.4,94.5 51.3,94.6 51.2,94.7 C47.4,98.3 42.3,100.3 37.1,100.4 L37.1,100.4 Z M43.3,101.3 C42.9,102.2 42.6,103.2 42.4,104.3 C40.4,103.6 38.5,102.9 36.6,102.2 L36.6,102.2 C38.9,102.3 41.2,101.9 43.3,101.3 L43.3,101.3 Z M37.1,72.5 L37.1,49.6 L54.5,49.6 L57.7,49.6 L57.7,67.6 L57.7,72.5 L37.1,72.5 Z M44.3,45.8 L49.5,46.9 L44.3,48 L44.3,45.8 Z M34.7,45.8 L39.9,46.9 L34.7,48 L34.7,45.8 Z M25,45.8 L30.2,46.9 L25,48 L25,45.8 Z M15.6,45.8 L20.8,46.9 L15.6,48 L15.6,45.8 Z M15.6,67.6 L15.6,49.6 L18.8,49.6 L36.2,49.6 L36.2,72.5 L15.6,72.5 L15.6,67.6 Z M15.6,73.4 L36.2,73.4 L36.2,100.4 C32,100.3 27.9,99 24.4,96.6 L24.4,96.6 C24.3,96.5 24.1,96.4 24,96.3 L23.9,96.2 C23.8,96.1 23.7,96.1 23.6,96 C23.5,95.9 23.4,95.8 23.3,95.8 C23.3,95.8 23.3,95.8 23.2,95.7 C21,94 19.1,91.8 17.7,89.3 C16.4,86.8 15.6,83.4 15.6,78.5 L15.6,73.4 Z M25.4,110.8 C25.1,110.7 24.8,110.6 24.6,110.5 C18.2,108.1 12.7,103.8 8.8,98.2 C4.8,92.5 2.6,85.7 2.6,78.6 C2.6,69.5 6.1,61 12.6,54.5 C13,54.1 13.4,53.7 13.8,53.4 L13.8,62.7 C12.4,61.7 10.8,60.7 10.7,60.6 C10.8,60.5 12,58.6 12,58.6 L11,58 L11,58.1 L7.8,62.9 L8.8,63.5 C8.8,63.5 10,61.7 10.1,61.5 C10.2,61.6 12.3,62.9 13.8,64 L13.8,67.3 L7.2,64.3 L7.2,64.4 L6.7,65.4 L13.8,68.7 L13.8,72.7 C13.3,74.6 13,76.6 13,78.7 C13,83 14.2,87 16.2,90.5 C17.5,93 19.2,94.7 20.8,96.2 C21.5,96.8 22.2,97.4 23,98 C23.1,98 23.1,98.1 23.2,98.1 C23.3,98.2 23.4,98.2 23.5,98.3 C23.6,98.4 23.7,98.4 23.8,98.5 L23.9,98.6 C24.5,99 25.1,99.4 25.8,99.7 L25.8,99.7 C26.7,100.1 27.9,100.7 29.3,101.3 L27.8,105 L27.1,104.7 C26.7,104.5 26.2,104.7 26,105.1 C25.8,105.5 26,106 26.4,106.2 L27.1,106.5 L25.4,110.8 Z M42,124.3 C42,125 41.8,125.7 41.5,126.3 C41.2,126.8 40.7,127.1 40.2,127.1 C39.5,127.1 38.9,126.7 38.7,126 C38.7,125.9 38.6,125.6 38.5,125.1 C38.7,125.2 38.9,125.2 39.1,125.2 C40,125.2 40.7,124.5 40.7,123.7 C40.7,122.8 40,122.2 39.1,122.2 C38.6,122.2 38.2,122.4 37.9,122.7 C37.4,120.7 36.9,118.5 36.9,118.5 L36.6,118.5 L36.2,118.5 C36.2,118.5 35.7,120.7 35.2,122.7 C34.9,122.4 34.5,122.2 34.1,122.2 C33.2,122.2 32.6,122.9 32.6,123.7 C32.6,124.6 33.3,125.2 34.1,125.2 C34.3,125.2 34.5,125.2 34.7,125.1 C34.6,125.5 34.5,125.9 34.5,126 C34.3,126.6 33.7,127.1 33,127.1 C32.4,127.1 31.9,126.8 31.6,126.3 C31.3,125.7 31.2,125 31.2,124.3 L31.2,114.7 C34.4,115.7 38.4,116.9 42.1,117.7 L42,124.3 L42,124.3 Z M42.8,115.9 C37.2,114.7 30.7,112.6 26.9,111.3 C27.3,110.4 27.9,108.8 28.6,107.1 L29.6,107.5 L29.6,107.7 C29.6,109.1 30.8,110.3 32.2,110.3 C33.6,110.3 34.8,109.1 34.8,107.7 C34.8,106.3 33.6,105.1 32.2,105.1 C31.4,105.1 30.8,105.4 30.3,106 L29.2,105.5 C29.8,104 30.3,102.6 30.7,101.8 C34.5,103.4 39.4,105.3 44.1,106.8 C49.1,108.3 53.1,109.2 56.1,109.5 C50.8,112.1 43.2,115.7 42.8,115.9 L42.8,115.9 Z M61.7,106.7 C61.2,107.2 60,107.7 57.5,107.7 C59.2,106.5 60.7,105.2 62.1,103.7 C62.5,105.1 62.4,106.1 61.7,106.7 L61.7,106.7 Z M54.6,107.5 C52.2,107.2 48.9,106.4 44.6,105.1 C44.4,105 44.2,105 44,104.9 C44.4,102.4 45.2,100.8 46.6,100 C48.8,99 50.8,97.6 52.6,95.9 C54.2,94.5 55.8,92.8 57,90.4 C59,86.9 60.2,82.8 60.2,78.5 C60.2,76.5 59.9,74.4 59.4,72.5 L59.4,68.7 L60.5,71.5 L61.6,71.1 C61.6,71.1 60.5,68.4 60.5,68.3 C60.7,68.2 66.7,65.8 66.7,65.8 L66.3,64.7 L66.2,64.7 L59.5,67.4 L59.5,66.9 L64,60.5 L63.6,59.8 L63.5,59.8 L59.5,60.7 L59.5,53.2 C59.9,53.6 60.3,53.9 60.7,54.3 C67.1,60.7 70.7,69.3 70.7,78.4 C70.7,84.3 69.2,90.2 66.2,95.3 C63.4,100.4 59.4,104.5 54.6,107.5 L54.6,107.5 Z M59.9,64.6 C59.9,64.6 59.7,64.9 59.5,65.2 L59.5,64 C59.7,64.3 59.9,64.6 59.9,64.6 L59.9,64.6 Z M59.6,62 C59.8,62 61.8,61.5 62.1,61.4 C61.9,61.7 60.7,63.4 60.6,63.5 C60.5,63.4 59.7,62.2 59.6,62 L59.6,62 Z" id="Shape"></path>
                <path d="M63.4,21 C62,18.9 59.7,18 58,18 C55.6,18 53.1,19 50.7,20 C48,21.1 45.2,22.2 42.4,22 C42.7,21 43.1,20 43.6,19.2 L41.9,18.4 C42.2,17.8 42.5,17.1 42.6,16.3 C42.4,16.2 40.1,15.4 36.4,15.4 C32.7,15.4 30.6,16.2 30.4,16.3 C30.5,17.1 30.7,17.8 31.1,18.4 L29.4,19.2 C29.9,20 30.3,21 30.6,22 C27.8,22.3 25,21.1 22.3,20 C19.9,19 17.4,18 15,18 C13.3,18 11,18.9 9.6,21 C8.5,22.7 7.6,25.9 10,31 L10,31 L10,30.9 L13.5,29.4 L13.7,30 C12.6,30.5 11.5,31.8 12.8,34.8 C15.8,33.5 15.9,31.8 15.4,30.7 L16,30.5 L17.5,33.9 L19,37.3 L18.4,37.5 C17.9,36.4 16.6,35.3 13.6,36.6 C14.9,39.6 17.2,40.8 19,40.8 C22.1,40.8 24.3,38.9 24,37 C23.8,35.6 22.5,35.1 22,35.2 C21.4,35.3 21,36 21.1,36.4 C21.1,36.5 21.2,36.6 21.2,36.7 L21.1,36.8 C20.3,36.7 19.6,36.1 19.4,35.3 C19.2,34.3 19.9,33.3 20.9,33.1 C21.5,33 22.1,33.2 22.6,33.6 L22.8,33.3 C22.2,33 21.8,32.5 21.7,31.8 C21.4,30.2 23.2,28.6 23.3,28.6 L23.3,28.6 L23.3,28.6 C23.3,28.6 25.6,29.4 25.9,31 C26,31.7 25.8,32.3 25.4,32.8 L25.7,33 C25.9,32.5 26.4,32 27.1,31.9 C28.1,31.7 29.1,32.4 29.3,33.4 C29.5,34.2 29,35.1 28.3,35.4 L28.2,35.3 L28.2,35 C28.1,34.5 27.5,34.1 26.9,34.2 C26.4,34.3 25.4,35.2 25.7,36.6 C26.2,39 28.2,40.7 30.6,40.7 C33,40.7 35.6,38.7 35.6,35.7 C32.1,35.7 31.3,37.3 31.3,38.7 L30.6,38.7 L30.6,34.7 L30.6,30.7 L31.3,30.7 C31.3,32 32.2,33.7 35.6,33.7 C35.6,30.2 34,29.4 32.6,29.4 L32.6,28.7 L36,28.7 L37.1,28.7 L40.5,28.7 L40.5,29.4 C39.2,29.4 37.5,30.3 37.5,33.7 C41,33.7 41.8,32.1 41.8,30.7 L42.5,30.7 L42.5,34.7 L42.5,38.7 L42,38.7 C42,37.4 41.1,35.7 37.7,35.7 C37.7,38.7 40.2,40.7 42.7,40.7 C45.1,40.7 47.2,39 47.6,36.6 C47.9,35.2 46.9,34.2 46.4,34.2 C45.8,34.1 45.2,34.5 45.1,35 L45.1,35.3 L45,35.4 C44.3,35 43.8,34.2 44,33.4 C44.2,32.4 45.2,31.7 46.2,31.9 C46.8,32 47.3,32.4 47.6,33 L47.9,32.8 C47.5,32.3 47.3,31.7 47.4,31 C47.7,29.4 50,28.6 50,28.6 C50,28.6 51.9,30.2 51.6,31.8 C51.5,32.5 51,33 50.5,33.3 L50.7,33.6 C51.1,33.2 51.7,33 52.4,33.1 C53.4,33.3 54.1,34.3 53.9,35.3 C53.7,36.2 53,36.8 52.2,36.8 L52.1,36.7 C52.2,36.6 52.2,36.5 52.2,36.4 C52.3,35.9 51.9,35.3 51.3,35.2 C50.8,35.1 49.5,35.6 49.3,37 C49,38.9 51.3,40.8 54.3,40.8 C56.1,40.8 58.4,39.6 59.7,36.6 C56.7,35.3 55.4,36.4 54.9,37.5 L54.3,37.3 L55.8,33.9 L57.3,30.5 L57.9,30.7 C57.4,31.8 57.5,33.5 60.5,34.8 C61.8,31.8 60.7,30.5 59.6,30 L59.8,29.4 L63.3,30.9 L63.3,31 L63.3,31 C65.4,25.8 64.5,22.7 63.4,21 M31.3,25.4 C29.6,25.4 28.2,26.3 27.4,27.7 C26.5,26.1 24.5,25.1 22.6,25.5 C21.2,25.8 20,26.8 19.5,28 C18.7,26.7 17.3,25.9 15.7,25.9 C13.7,25.9 12,27.2 11.4,29 C10.3,26.1 10.3,23.7 11.4,22 C12.5,20.3 14.4,19.8 15.2,19.8 C17.3,19.8 19.5,20.7 21.8,21.6 C24.8,22.8 27.9,24.1 31.3,23.6 C31.4,24.2 31.5,24.7 31.6,25.3 C31.5,25.4 31.4,25.4 31.3,25.4 M36.6,16.1 C37.5,16.1 38.3,16.8 38.4,17.7 C37.9,17.3 37.3,17 36.6,17 C35.9,17 35.3,17.3 34.8,17.7 C34.9,16.8 35.7,16.1 36.6,16.1 M36.6,17.8 C37.5,17.8 38.3,18.5 38.4,19.4 C37.9,19 37.3,18.7 36.6,18.7 C35.9,18.7 35.3,19 34.8,19.4 C34.9,18.5 35.7,17.8 36.6,17.8 M36.6,27.9 C35.6,27.9 34.8,27.1 34.8,26.1 C34.8,25.1 35.6,24.3 36.6,24.3 C37.6,24.3 38.4,25.1 38.4,26.1 C38.4,27.1 37.6,27.9 36.6,27.9 M38.3,24 C37.8,23.6 37.2,23.4 36.6,23.4 C35.9,23.4 35.4,23.6 34.9,24 C34.8,23.8 34.8,23.6 34.8,23.4 C34.8,22.4 35.6,21.6 36.6,21.6 C37.6,21.6 38.4,22.4 38.4,23.4 C38.4,23.6 38.4,23.8 38.3,24 M38.4,21.5 C37.9,21.1 37.3,20.8 36.6,20.8 C35.9,20.8 35.3,21.1 34.8,21.5 L34.8,21.4 C34.8,20.4 35.6,19.6 36.6,19.6 C37.6,19.6 38.4,20.4 38.4,21.4 C38.4,21.4 38.4,21.4 38.4,21.5 M61.8,29 C61.2,27.2 59.5,25.9 57.5,25.9 C55.9,25.9 54.5,26.7 53.7,28 C53.1,26.8 52,25.8 50.6,25.5 C48.6,25.1 46.7,26 45.8,27.7 C45,26.4 43.6,25.4 41.9,25.4 L41.6,25.4 C41.7,24.9 41.8,24.3 41.9,23.7 C45.3,24.2 48.4,22.9 51.4,21.7 C53.7,20.8 55.9,19.9 58,19.9 C58.8,19.9 60.7,20.4 61.8,22.1 C62.9,23.7 62.9,26.1 61.8,29" id="Shape"></path>
                <polygon id="Shape" points="47.3 50.9 47.3 50.9 46.6 50.9 47 51.7 47.3 51.7 47.4 51.7 47.3 52 47.4 51.8 47.5 51.8 47.6 51.7 48 50.9"></polygon>
                <polyline id="Shape" points="39 51.6 38.9 51.7 38.9 52 38.2 51.9 38.2 51.4 37.7 50.5 37.8 50.4 38.7 50.9 39.2 50.9 39.2 51.6 39 51.5"></polyline>
                <path d="M39.5,51.4 C39.4,51.4 39.3,51.3 39.3,51.2 C39.3,51.1 39.4,51 39.5,51 C39.6,51 39.6,51 39.7,51.1 L39.8,51.1 L39.8,50.9 C39.8,50.6 39.6,50.4 39.3,50.4 C39,50.4 38.8,50.6 38.8,50.9 C38.8,51.2 39,51.4 39.3,51.4 L39.5,51.4 L39.5,51.4" id="Shape"></path>
                <path d="M38.7,52.2 C38.7,52.1 38.6,52 38.5,52 C38.4,52 38.3,52.1 38.3,52.2 C38.3,52.3 38.3,52.3 38.4,52.4 L38.4,52.5 L38.2,52.5 C37.9,52.5 37.7,52.3 37.7,52 C37.7,51.7 37.9,51.5 38.2,51.5 C38.5,51.5 38.7,51.7 38.7,52 L38.7,52.2 L38.7,52.2" id="Shape"></path>
                <polyline id="Shape" points="39 70.7 38.9 70.6 38.9 70.3 38.2 70.4 38.2 70.8 37.7 71.7 37.8 71.9 38.7 71.3 39.2 71.3 39.2 70.6 39 70.7"></polyline>
                <path d="M39.5,70.8 C39.4,70.8 39.3,70.9 39.3,71 C39.3,71.1 39.4,71.2 39.5,71.2 C39.6,71.2 39.6,71.2 39.7,71.1 L39.8,71.1 L39.8,71.3 C39.8,71.6 39.6,71.8 39.3,71.8 C39,71.8 38.8,71.6 38.8,71.3 C38.8,71 39,70.8 39.3,70.8 L39.5,70.8 L39.5,70.8" id="Shape"></path>
                <path d="M38.7,70.1 C38.7,70.2 38.6,70.3 38.5,70.3 C38.4,70.3 38.3,70.2 38.3,70.1 C38.3,70 38.3,70 38.4,69.9 L38.4,69.8 L38.2,69.8 C37.9,69.8 37.7,70 37.7,70.3 C37.7,70.6 37.9,70.8 38.2,70.8 C38.5,70.8 38.7,70.6 38.7,70.3 L38.7,70.1 L38.7,70.1" id="Shape"></path>
                <polyline id="Shape" points="55.6 70.7 55.7 70.6 55.7 70.3 56.4 70.4 56.4 70.8 56.9 71.7 56.8 71.9 55.9 71.3 55.4 71.3 55.4 70.6 55.6 70.7"></polyline>
                <path d="M55.1,70.8 C55.2,70.8 55.3,70.9 55.3,71 C55.3,71.1 55.2,71.2 55.1,71.2 C55,71.2 55,71.2 54.9,71.1 L54.8,71.1 L54.8,71.3 C54.8,71.6 55,71.8 55.3,71.8 C55.6,71.8 55.8,71.6 55.8,71.3 C55.8,71 55.6,70.8 55.3,70.8 L55.1,70.8 L55.1,70.8" id="Shape"></path>
                <path d="M55.9,70.1 C55.9,70.2 56,70.3 56.1,70.3 C56.2,70.3 56.3,70.2 56.3,70.1 C56.3,70 56.3,70 56.2,69.9 L56.2,69.8 L56.4,69.8 C56.7,69.8 56.9,70 56.9,70.3 C56.9,70.6 56.7,70.8 56.4,70.8 C56.1,70.8 55.9,70.6 55.9,70.3 L55.9,70.1 L55.9,70.1" id="Shape"></path>
                <polyline id="Shape" points="55.6 51.6 55.7 51.7 55.7 52 56.4 51.9 56.4 51.4 56.9 50.5 56.8 50.4 55.9 50.9 55.4 50.9 55.4 51.6 55.6 51.5"></polyline>
                <path d="M55.1,51.4 C55.2,51.4 55.3,51.3 55.3,51.2 C55.3,51.1 55.2,51 55.1,51 C55,51 55,51 54.9,51.1 L54.8,51.1 L54.8,50.9 C54.8,50.6 55,50.4 55.3,50.4 C55.6,50.4 55.8,50.6 55.8,50.9 C55.8,51.2 55.6,51.4 55.3,51.4 L55.1,51.4 L55.1,51.4" id="Shape"></path>
                <path d="M55.9,52.2 C55.9,52.1 56,52 56.1,52 C56.2,52 56.3,52.1 56.3,52.2 C56.3,52.3 56.3,52.3 56.2,52.4 L56.2,52.5 L56.4,52.5 C56.7,52.5 56.9,52.3 56.9,52 C56.9,51.7 56.7,51.5 56.4,51.5 C56.1,51.5 55.9,51.7 55.9,52 L55.9,52.2 L55.9,52.2 Z" id="Shape"></path>
                <polygon id="Rectangle-path" points="46.5 52.8 48 52.8 48 53.4 46.5 53.4"></polygon>
                <polygon id="Shape" points="47.4 54.1 47.2 54.1 46.9 53.5 47.7 53.5"></polygon>
                <path d="M48.4,53.4 L48.3,53.5 C48.2,53.5 48.1,53.4 48.1,53.3 C48.1,53.2 48.2,53.1 48.3,53.1 L48.1,53.1 C47.9,53.1 47.7,53.3 47.7,53.5 C47.7,53.7 47.9,53.9 48.1,53.9 C48.3,53.9 48.5,53.7 48.5,53.5 C48.4,53.5 48.4,53.5 48.4,53.4 L48.4,53.4 Z" id="Shape"></path>
                <path d="M46.2,53.4 L46.3,53.5 C46.4,53.5 46.5,53.4 46.5,53.3 C46.5,53.2 46.4,53.1 46.3,53.1 L46.5,53.1 C46.7,53.1 46.9,53.3 46.9,53.5 C46.9,53.7 46.7,53.9 46.5,53.9 C46.3,53.9 46.1,53.7 46.1,53.5 C46.2,53.5 46.2,53.5 46.2,53.4 L46.2,53.4 Z" id="Shape"></path>
                <polygon id="Shape" points="47.3 71.4 47.3 71.4 48 71.4 47.6 70.6 47.3 70.5 47.2 70.5 47.4 70.3 47.2 70.5 47.1 70.5 47 70.6 46.6 71.4"></polygon>
                <polygon id="Rectangle-path" points="46.6 68.7 48.1 68.7 48.1 69.3 46.6 69.3"></polygon>
                <polygon id="Shape" points="47.2 68.1 47.4 68.1 47.7 68.8 46.9 68.8"></polygon>
                <path d="M46.2,68.9 L46.3,68.8 C46.4,68.8 46.5,68.9 46.5,69 C46.5,69.1 46.4,69.2 46.3,69.2 L46.5,69.2 C46.7,69.2 46.9,69 46.9,68.8 C46.9,68.6 46.7,68.4 46.5,68.4 C46.3,68.4 46.1,68.6 46.1,68.8 C46.2,68.8 46.2,68.8 46.2,68.9 L46.2,68.9 Z" id="Shape"></path>
                <path d="M48.4,68.9 L48.3,68.8 C48.2,68.8 48.1,68.9 48.1,69 C48.1,69.1 48.2,69.2 48.3,69.2 L48.1,69.2 C47.9,69.2 47.7,69 47.7,68.8 C47.7,68.6 47.9,68.4 48.1,68.4 C48.3,68.4 48.5,68.6 48.5,68.8 C48.4,68.8 48.4,68.8 48.4,68.9 L48.4,68.9 Z" id="Shape"></path>
                <polygon id="Shape" points="56.4 61.1 56.4 61.1 56.4 60.4 55.6 60.8 55.6 61.1 55.6 61.2 55.4 61.1 55.6 61.3 55.5 61.3 55.6 61.4 56.4 61.8"></polygon>
                <polygon id="Rectangle-path" points="53.8 60.4 54.4 60.4 54.4 61.9 53.8 61.9"></polygon>
                <polygon id="Shape" points="53.2 61.2 53.2 61 53.8 60.7 53.8 61.5"></polygon>
                <polyline id="Shape" points="54.2 62.1 54.2 62 54.2 62.1 54.2 62.1"></polyline>
                <path d="M54,62.2 L53.9,62.1 C53.9,62 54,61.9 54.1,61.9 C54.2,61.9 54.3,62 54.3,62.1 L54.3,61.9 C54.3,61.7 54.1,61.5 53.9,61.5 C53.7,61.5 53.5,61.7 53.5,61.9 C53.5,62.1 53.7,62.3 53.9,62.3 C53.9,62.3 53.9,62.3 54,62.2 L54,62.2 Z" id="Shape"></path>
                <path d="M54,60.1 L53.9,60.2 C53.9,60.3 54,60.4 54.1,60.4 C54.2,60.4 54.3,60.3 54.3,60.2 L54.3,60.4 C54.3,60.6 54.1,60.8 53.9,60.8 C53.7,60.8 53.5,60.6 53.5,60.4 C53.5,60.2 53.7,60 53.9,60 C53.9,60 53.9,60 54,60.1 L54,60.1 Z" id="Shape"></path>
                <polygon id="Shape" points="38.2 61.1 38.2 61.1 38.2 60.4 39 60.8 39 61.1 39 61.2 39.2 61.1 39 61.3 39.1 61.3 39 61.4 38.2 61.8"></polygon>
                <polygon id="Rectangle-path" points="40.1 60.4 40.7 60.4 40.7 61.9 40.1 61.9"></polygon>
                <polygon id="Shape" points="41.4 61.2 41.4 61 40.8 60.7 40.8 61.5"></polygon>
                <polyline id="Shape" points="40.4 62.1 40.4 62 40.4 62.1 40.4 62.1"></polyline>
                <path d="M40.7,62.2 L40.8,62.1 C40.8,62 40.7,61.9 40.6,61.9 C40.5,61.9 40.4,62 40.4,62.1 L40.4,61.9 C40.4,61.7 40.6,61.5 40.8,61.5 C41,61.5 41.2,61.7 41.2,61.9 C41.2,62.1 41,62.3 40.8,62.3 C40.8,62.3 40.7,62.3 40.7,62.2 L40.7,62.2 Z" id="Shape"></path>
                <path d="M40.7,60.1 L40.8,60.2 C40.8,60.3 40.7,60.4 40.6,60.4 C40.5,60.4 40.4,60.3 40.4,60.2 L40.4,60.4 C40.4,60.6 40.6,60.8 40.8,60.8 C41,60.8 41.2,60.6 41.2,60.4 C41.2,60.2 41,60 40.8,60 C40.8,60 40.7,60 40.7,60.1 L40.7,60.1 Z" id="Shape"></path>
            </g>
        </g>
    </g>
</svg>